<svg id="Capa_1" data-name="Capa 1" xmlns="http://www.w3.org/2000/svg" viewBox="0 0 331.63 65.24"><defs><style>.cls-1{fill:#1d1d1b;}</style></defs><title>Calitic-1</title><polygon class="cls-1" points="290.13 20.63 260.26 20.63 260.26 26.94 268.65 26.94 268.65 44.05 281.75 44.05 281.75 26.94 290.13 26.94 290.13 20.63"/><rect class="cls-1" x="125.6" y="20.63" width="13.1" height="23.42"/><rect class="cls-1" x="175.91" y="20.63" width="13.1" height="23.42"/><polygon class="cls-1" points="170.24 26.94 170.24 20.63 145.25 20.63 145.25 44.05 158.35 44.05 158.35 35.32 169.46 35.32 169.46 30.72 158.35 30.72 158.35 26.94 170.24 26.94"/><polygon class="cls-1" points="220.51 26.94 220.51 20.63 195.49 20.63 195.49 44.05 220.51 44.05 220.51 37.74 208.6 37.74 208.6 34.74 219.7 34.74 219.7 30.14 208.6 30.14 208.6 26.94 220.51 26.94"/><path class="cls-1" d="M243.87,27.06h12.21c0-5.42-1.11-6.82-13.9-6.82-10.66,0-16.9-.34-16.9,8.16,0,7.77,5.8,7.31,15.9,7.31,1.9,0,3.14.86,3.14,2.13s-.88,2.23-2.81,2.23-2.9-1.12-2.9-2.43H225.23c0,6.41,4.41,6.8,16.41,6.8s15.7-1.33,15.7-8.53S253.7,29,241,29c-1.25,0-2.89-.56-2.89-2.32s1.36-2.21,2.66-2.21S243.87,25.17,243.87,27.06Z"/><path class="cls-1" d="M310.62,20.24c-12,0-16.94,1.3-16.94,12.14s4.93,12.14,16.94,12.14,17.11-1.21,17.11-12.14S322.63,20.24,310.62,20.24ZM314,35.58c0,2.74-1.47,4.25-3.28,4.25s-3.28-1.48-3.28-4.25V28.71c0-2.78,1.47-4.26,3.28-4.26S314,25.91,314,28.71Z"/><polygon class="cls-1" points="106.66 29.91 99.32 20.64 99.32 20.63 86.31 20.63 86.31 44.05 98.29 44.05 98.29 33.94 106.22 44.05 118.65 44.05 118.65 20.63 106.66 20.63 106.66 29.91"/><polygon class="cls-1" points="1.67 20.63 15.59 20.63 21.74 31.32 27.88 20.63 41.8 20.63 41.8 44.05 29.82 44.05 29.82 34.72 24.77 44.05 18.7 44.05 13.65 34.72 13.65 44.05 1.67 44.05 1.67 20.63"/><path class="cls-1" d="M69.87,44.05H82.62L73.44,20.63H55.14L46,44.05H58.71L59.84,41h8.9Zm-8.13-8.26,2.55-7,2.55,7Z"/></svg>