<svg id="Capa_1" data-name="Capa 1" xmlns="http://www.w3.org/2000/svg" viewBox="0 0 463 290"><defs><style>.cls-1{fill:#f1f1f1;}.cls-1,.cls-2,.cls-3{stroke:#000;stroke-miterlimit:10;}.cls-1,.cls-3{stroke-width:0.56px;}.cls-2{fill:#ffb592;stroke-width:0.5px;}.cls-3{fill:#9bf7c6;}.cls-4{font-size:29px;font-family:HansonBold, Hanson;}.cls-5{letter-spacing:-0.05em;}.cls-6{letter-spacing:-0.13em;}.cls-7{letter-spacing:-0.09em;}.cls-8{letter-spacing:-0.1em;}.cls-9{letter-spacing:-0.02em;}.cls-10{letter-spacing:0.02em;}.cls-11{letter-spacing:-0.01em;}.cls-12{letter-spacing:0.02em;}.cls-13{font-size:34px;}.cls-14{font-size:20px;}</style></defs><title>BC-boton</title><rect class="cls-1" x="51.1" y="118.25" width="407.11" height="168.4"/><rect class="cls-1" x="51.1" y="95.38" width="407.11" height="22.87"/><rect class="cls-1" x="51.1" y="95.38" width="22.87" height="22.87"/><line class="cls-1" x1="62.54" y1="99.55" x2="62.54" y2="114.09"/><line class="cls-1" x1="56.24" y1="103.18" x2="68.83" y2="110.45"/><line class="cls-1" x1="56.24" y1="110.45" x2="68.83" y2="103.18"/><rect class="cls-2" x="28.23" y="26.78" width="407.11" height="168.4"/><rect class="cls-2" x="28.23" y="3.91" width="407.11" height="22.87"/><rect class="cls-2" x="28.23" y="3.91" width="22.87" height="22.87"/><line class="cls-3" x1="39.66" y1="8.08" x2="39.66" y2="22.62"/><line class="cls-3" x1="33.37" y1="11.71" x2="45.96" y2="18.98"/><line class="cls-3" x1="33.37" y1="18.98" x2="45.96" y2="11.71"/><rect class="cls-1" x="5.35" y="72.5" width="407.11" height="168.4"/><rect class="cls-1" x="5.35" y="49.63" width="407.11" height="22.87"/><rect class="cls-1" x="5.35" y="49.63" width="22.87" height="22.87"/><line class="cls-1" x1="16.79" y1="53.8" x2="16.79" y2="68.34"/><line class="cls-1" x1="10.49" y1="57.43" x2="23.08" y2="64.7"/><line class="cls-1" x1="10.49" y1="64.7" x2="23.08" y2="57.43"/><text class="cls-4" transform="translate(35.86 167.24)"><tspan class="cls-5">B</tspan><tspan class="cls-6" x="23.81" y="0">A</tspan><tspan class="cls-7" x="50.43" y="0">J</tspan><tspan x="72.47" y="0">A </tspan><tspan class="cls-8" x="116.7" y="0">C</tspan><tspan class="cls-9" x="143.09" y="0">A</tspan><tspan x="172.9" y="0">L</tspan><tspan class="cls-10" x="196.01" y="0">I</tspan><tspan class="cls-5" x="205.46" y="0">F</tspan><tspan class="cls-11" x="227.3" y="0">O</tspan><tspan x="256.21" y="0">R</tspan><tspan class="cls-12" x="281.94" y="0">N</tspan><tspan class="cls-9" x="310.1" y="0">I</tspan><tspan x="318.27" y="0">A</tspan><tspan class="cls-13" x="348.72" y="0"> </tspan><tspan class="cls-14"><tspan x="147.93" y="24">(BC)</tspan></tspan></text><path d="M216.33,131.55a6.75,6.75,0,0,1-2.36-.44L211.05,130a3,3,0,0,0-2.17,0l-2.7,1a6.51,6.51,0,0,1-8.43-8.41l1.07-2.79a3,3,0,0,0,0-2.16l-1.07-2.79a6.52,6.52,0,0,1,8.43-8.41l2.7,1a3,3,0,0,0,2.17,0l2.92-1.11a6.51,6.51,0,0,1,8.41,8.42l-1.09,2.84a3,3,0,0,0,0,2.16l1.09,2.85a6.53,6.53,0,0,1-6,8.86Zm-1.11-3.71a3,3,0,0,0,3.9-3.9L218,121.1a6.48,6.48,0,0,1,0-4.67l1.09-2.84a3,3,0,0,0-3.9-3.91l-2.92,1.12a6.54,6.54,0,0,1-4.67,0l-2.71-1.05a3,3,0,0,0-3.91,3.9l1.07,2.79a6.48,6.48,0,0,1,0,4.67L201,123.88a3,3,0,0,0,3.91,3.9l2.71-1a6.48,6.48,0,0,1,4.67,0Z"/></svg>