<svg id="Capa_1" data-name="Capa 1" xmlns="http://www.w3.org/2000/svg" viewBox="0 0 463 290"><defs><style>.cls-1{fill:#f1f1f1;}.cls-1,.cls-2,.cls-3{stroke:#000;stroke-miterlimit:10;}.cls-1,.cls-3{stroke-width:0.56px;}.cls-2{fill:#baf7c7;stroke-width:0.5px;}.cls-3{fill:#9bf7c6;}.cls-4{font-size:29px;font-family:HansonBold, Hanson;}.cls-5{letter-spacing:-0.12em;}.cls-6{letter-spacing:-0.05em;}.cls-7{letter-spacing:-0.02em;}.cls-8{letter-spacing:-0.02em;}.cls-9{letter-spacing:-0.01em;}.cls-10{font-size:20px;}</style></defs><title>CDMX-boton</title><rect class="cls-1" x="51.26" y="118.62" width="407.11" height="168.4"/><rect class="cls-1" x="51.26" y="95.75" width="407.11" height="22.87"/><rect class="cls-1" x="51.26" y="95.75" width="22.87" height="22.87"/><line class="cls-1" x1="62.7" y1="99.92" x2="62.7" y2="114.45"/><line class="cls-1" x1="56.4" y1="103.55" x2="68.99" y2="110.82"/><line class="cls-1" x1="56.4" y1="110.82" x2="68.99" y2="103.55"/><rect class="cls-2" x="28.39" y="27.15" width="407.11" height="168.4"/><rect class="cls-2" x="28.39" y="4.28" width="407.11" height="22.87"/><rect class="cls-2" x="28.39" y="4.28" width="22.87" height="22.87"/><line class="cls-3" x1="39.82" y1="8.44" x2="39.82" y2="22.98"/><line class="cls-3" x1="33.53" y1="12.08" x2="46.12" y2="19.35"/><line class="cls-3" x1="33.53" y1="19.35" x2="46.12" y2="12.08"/><rect class="cls-1" x="5.51" y="72.87" width="407.11" height="168.4"/><rect class="cls-1" x="5.51" y="50" width="407.11" height="22.87"/><rect class="cls-1" x="5.51" y="50" width="22.87" height="22.87"/><line class="cls-1" x1="16.95" y1="54.17" x2="16.95" y2="68.71"/><line class="cls-1" x1="10.65" y1="57.8" x2="23.25" y2="65.07"/><line class="cls-1" x1="10.65" y1="65.07" x2="23.25" y2="57.8"/><text class="cls-4" transform="translate(20.26 164.39)">CIU<tspan class="cls-5" x="65.95" y="0">D</tspan><tspan class="cls-6" x="89.52" y="0">A</tspan><tspan x="118.38" y="0">D </tspan><tspan class="cls-7" x="159.24" y="0">D</tspan><tspan x="185.69" y="0">E M</tspan><tspan class="cls-8" x="254.88" y="0">É</tspan><tspan x="278.23" y="0">X</tspan><tspan class="cls-9" x="308.76" y="0">I</tspan><tspan class="cls-7" x="317.26" y="0">C</tspan><tspan x="345.88" y="0">O </tspan><tspan class="cls-10"><tspan x="139.37" y="24">(CDMX)</tspan></tspan></text></svg>