<svg id="Capa_1" data-name="Capa 1" xmlns="http://www.w3.org/2000/svg" viewBox="0 0 463 290"><defs><style>.cls-1{fill:#f1f1f1;stroke-width:0.56px;}.cls-1,.cls-2{stroke:#000;stroke-miterlimit:10;}.cls-2{fill:#a792ff;stroke-width:0.5px;}.cls-3{font-size:29px;font-family:HansonBold, Hanson;}.cls-4{letter-spacing:-0.02em;}.cls-5{letter-spacing:-0.01em;}.cls-6{letter-spacing:-0.01em;}.cls-7{letter-spacing:-0.01em;}.cls-8{font-size:20px;}.cls-9{letter-spacing:0.01em;}.cls-10{letter-spacing:-0.02em;}</style></defs><title>TRC-boton</title><rect class="cls-1" x="50.55" y="117.95" width="407.11" height="168.4"/><rect class="cls-1" x="50.55" y="95.07" width="407.11" height="22.87"/><rect class="cls-1" x="50.55" y="95.07" width="22.87" height="22.87"/><line class="cls-1" x1="61.98" y1="99.24" x2="61.98" y2="113.78"/><line class="cls-1" x1="55.69" y1="102.88" x2="68.28" y2="110.15"/><line class="cls-1" x1="55.69" y1="110.15" x2="68.28" y2="102.88"/><rect class="cls-2" x="27.67" y="26.48" width="407.11" height="168.4"/><rect class="cls-2" x="27.67" y="3.6" width="407.11" height="22.87"/><rect class="cls-2" x="27.67" y="3.6" width="22.87" height="22.87"/><line class="cls-2" x1="39.11" y1="7.77" x2="39.11" y2="22.31"/><line class="cls-2" x1="32.81" y1="11.41" x2="45.41" y2="18.68"/><line class="cls-2" x1="32.81" y1="18.68" x2="45.41" y2="11.41"/><rect class="cls-1" x="4.8" y="72.2" width="407.11" height="168.4"/><rect class="cls-1" x="4.8" y="49.32" width="407.11" height="22.87"/><rect class="cls-1" x="4.8" y="49.32" width="22.87" height="22.87"/><line class="cls-1" x1="16.23" y1="53.49" x2="16.23" y2="68.03"/><line class="cls-1" x1="9.94" y1="57.13" x2="22.53" y2="64.4"/><line class="cls-1" x1="9.94" y1="64.4" x2="22.53" y2="57.13"/><text class="cls-3" transform="translate(115.98 168.73)"><tspan class="cls-4">T</tspan><tspan class="cls-5" x="27.84" y="0">O</tspan><tspan x="56.75" y="0">R</tspan><tspan class="cls-4" x="82.48" y="0">R</tspan><tspan class="cls-6" x="107.56" y="0">E</tspan><tspan class="cls-7" x="131.69" y="0">Ó</tspan><tspan x="160.6" y="0">N</tspan><tspan class="cls-8"><tspan x="57.88" y="24">(</tspan><tspan class="cls-9" x="65.46" y="24">T</tspan><tspan class="cls-10" x="85.22" y="24">R</tspan><tspan x="102.52" y="24">C)</tspan></tspan></text></svg>