<svg id="Capa_1" data-name="Capa 1" xmlns="http://www.w3.org/2000/svg" viewBox="0 0 160 160"><title>BC-icon</title><path d="M117.48,157a39.6,39.6,0,0,1-14.09-2.62l-17.5-6.68a18,18,0,0,0-13,0L56.76,154a38.51,38.51,0,0,1-41.57-8.77,38.49,38.49,0,0,1-8.85-41.56L12.73,87a18,18,0,0,0,0-13L6.34,57.35a38.49,38.49,0,0,1,8.85-41.56A38.49,38.49,0,0,1,56.76,7l16.18,6.25a18,18,0,0,0,13,0l17.49-6.67A39,39,0,0,1,153.67,57l-6.53,17a18,18,0,0,0,0,13l6.53,17a39.07,39.07,0,0,1-36.19,53Zm-6.64-22.15a18.07,18.07,0,0,0,23.32-23.36l-6.53-17a38.9,38.9,0,0,1,0-27.94l6.53-17a18.08,18.08,0,0,0-23.32-23.37L93.35,32.83a38.93,38.93,0,0,1-27.95-.06L49.23,26.52A18.07,18.07,0,0,0,25.84,49.86l6.4,16.66a38.9,38.9,0,0,1,0,27.94l-6.4,16.67a18.07,18.07,0,0,0,23.39,23.33l16.17-6.25a38.9,38.9,0,0,1,27.94-.05Z"/></svg>