<svg id="Capa_1" data-name="Capa 1" xmlns="http://www.w3.org/2000/svg" viewBox="0 0 160 160"><title>CDMX-icon</title><path d="M136.91,8.56c0,42.95-5.74,66.16-33.71,83.85,6.7-20.22,8.17-46.08,8.17-83.85H91.78C91.78,56.48,89,80.29,80,97.13,71,80.29,68.22,56.48,68.22,8.56H48.63c0,37.77,1.47,63.63,8.17,83.85-28-17.69-33.71-40.9-33.71-83.85H3.5c0,34,4,54.74,13.94,71.57,8.49,14.44,21.45,25.79,41,35.6C46.67,124.24,37,136,37,151.44H56.57c0-11.21,11.93-20.07,23.43-26,11.5,5.94,23.43,14.8,23.43,26H123c0-15.49-9.69-27.2-21.44-35.71,19.53-9.81,32.49-21.16,41-35.6,9.9-16.83,13.94-37.56,13.94-71.57Z"/></svg>