<svg id="Capa_1" data-name="Capa 1" xmlns="http://www.w3.org/2000/svg" viewBox="0 0 85 160"><title>TRC-icon</title><path d="M42,157A36.73,36.73,0,0,1,5.31,120.31c0-8,2.67-18.27,7.14-27.35a30.27,30.27,0,0,0,0-26.92C8,57,5.31,46.74,5.31,38.69a36.69,36.69,0,0,1,73.38,0C78.69,46.74,76,57,71.55,66a30.27,30.27,0,0,0,0,26.92c4.47,9.08,7.14,19.3,7.14,27.35A36.73,36.73,0,0,1,42,157ZM42,20.47A18.24,18.24,0,0,0,23.78,38.69c0,5.19,2.06,12.72,5.24,19.19a48.57,48.57,0,0,1,0,43.24c-3.18,6.47-5.24,14-5.24,19.19a18.22,18.22,0,0,0,36.44,0c0-5.19-2.06-12.72-5.24-19.19a48.57,48.57,0,0,1,0-43.24c3.18-6.47,5.24-14,5.24-19.19A18.24,18.24,0,0,0,42,20.47Z"/></svg>