<svg id="Capa_1" data-name="Capa 1" xmlns="http://www.w3.org/2000/svg" xmlns:xlink="http://www.w3.org/1999/xlink" viewBox="0 0 1920 1080"><defs><style>.cls-1,.cls-3{fill:none;}.cls-2{clip-path:url(#clip-path);}.cls-3{stroke:#f1f1f1;stroke-miterlimit:10;stroke-width:0.75px;}.cls-4{fill:#f1f1f1;}</style><clipPath id="clip-path"><rect class="cls-1" x="-2060.5" y="-2110.5" width="1920" height="1240"/></clipPath></defs><title>BG-10</title><g class="cls-2"><polyline class="cls-3" points="182.17 -2895.59 -464.62 -2325.82 -523.48 -2213.88 -588.65 -2042.56 -643.07 -1980 -799.09 -1753.81 -1017.89 -1435.32 -1242.27 -1135.68 -1489.22 -847.39 -1717.88 -564.97 -1937.19 -264.44 -2388.46 374.71"/></g><g id="djvWam"><path class="cls-4" d="M-1.75-3.54H300.94c0,7.42-.27,14.41.06,21.37.61,13.06-5.52,22.57-15.14,30.48C272.31,59.48,258.65,70.53,245.34,82c-10.21,8.78-21,17.23-29.66,27.39-14.69,17.15-23.47,37.43-27,60-4.13,26.61.2,51.59,12.17,75.58a119.89,119.89,0,0,0,41,46.8c16.62,11.16,26.89,27.21,36,44.35,2.62,4.94,5.44,9.79,7.87,14.83,6.51,13.49,2.93,25.43-8.59,34.38-7.5,5.82-15.84,10.55-23.35,16.36-8.17,6.31-16.39,12.75-23.56,20.13-12.74,13.13-27.57,17-45.43,14.62a109.23,109.23,0,0,0-56.8,7.45A81.27,81.27,0,0,1,109.51,449c-10.68,1.62-21.15-4.65-26.39-15.62C78.38,423.38,74.52,413,69.86,403a195.91,195.91,0,0,0-60.3-74.61c-3.49-2.64-7.53-4.55-11.31-6.81Z"/><path class="cls-4" d="M492.7,1077c3.94-6.78,4.82-14.19,4.59-21.87-.36-11.75,4.83-21.48,13.2-28.81,15-13.13,30.93-25.22,46.3-37.95a225.88,225.88,0,0,0,40.56-44.47c19-27,32.48-56.44,39.13-88.77,2.51-12.21,3.76-24.74,4.78-37.2a165.89,165.89,0,0,0,0-27.48c-1.12-13.11-2.25-26.37-5.23-39.14-3.38-14.48-9.1-28.41-13.18-42.75a66.33,66.33,0,0,1-2.33-18.35c.07-14,12-18.25,22.85-16.47,10.52,1.73,20.7,5.65,31.24,7a119.05,119.05,0,0,0,29.58.34c12-1.46,23.9-4.37,35.61-7.54,12-3.24,19.82-12.54,27.47-21.63,5.59-6.64,10.81-13.6,16.27-20.35,13.2-16.31,33.77-17.38,48.4-6.29,9.15,6.94,12.67,16.44,11,27.86-3.14,21.57-15.54,28-33.79,31.09-11,1.86-22.09,3.71-33,6.23-11.26,2.61-19.66,9.81-27.32,18.25-13.33,14.71-24.39,30.72-30.18,49.87A98.69,98.69,0,0,0,716,806.1c2.23,11.79,4.52,23.64,5.57,35.57.63,7.1-1.42,14.39-1.67,21.61-.34,10-.48,20.07-.07,30.08.67,16.69,8.44,31.72,11.77,47.81,3.59,17.38-3.64,26.24-20.38,30.15-10.7,2.51-22,3.47-32.1,7.35-25,9.58-39.19,28.93-44.8,54.69a58,58,0,0,0,2.33,33.69c1.42,3.69,4.73,6.65,7.18,9.94Z"/><path class="cls-4" d="M-1.75,651.79c8.21-5.95,17-11.3,24.49-18,9.54-8.5,17.8-18.43,27.17-27.14,6.68-6.2,14.16-11.36,24.42-8.57C86,601.25,94.54,611.8,95.88,623.73c1.7,15.17,1.27,30.63,6.81,45.31a95.55,95.55,0,0,0,33.87,44.42c6.52,4.76,13.52,9.56,18.28,15.86,11.11,14.72,5.08,30.17-11.2,38.34a183.78,183.78,0,0,1-23.85,9.41c-11.77,4-22.32,10.16-32.45,17.12a127.51,127.51,0,0,0-33.26,34c-6.09,9-10.61,19.2-14.83,29.29s-6.81,21.11-11,31.32c-3,7.31-7.84,14.18-16.71,14.84-4.32.33-8.82-1.76-13.25-2.75Z"/><path class="cls-4" d="M777,1077c.09-.58-.05-1.46.29-1.71,8.23-6.2,8.92-9,6.73-19.23-2.26-10.55-4.47-21-1.82-32.13a21.34,21.34,0,0,1,24.26-16.19c9.82,1.51,18,6.13,21.77,16.28,3.49,9.34.17,17.53-4.47,25.25-3,5-6.92,9.52-10.56,14.16-4.12,5.26-3.94,9.18.83,13.57Z"/><path class="cls-4" d="M1365.45-3.3h282.42c-2.21,13.22,5.65,22.52,12.43,31.86,10.64,14.67,25.08,24.71,42,31.13,23.06,8.74,46,8.68,69-.46,14.89-5.89,26.83-15.88,38.89-25.82,6.53-5.38,13.65-8.38,22.32-7.4,7.18.82,14.15,9.34,14.81,18.16a43,43,0,0,1-5,23.47c-10.23,19.67-19.94,39.59-26.27,60.9-3.08,10.39-5.35,21-7.79,31.6a78.3,78.3,0,0,1-16.55,33.75c-11,13-21.37,26.45-29.71,41.4-9.34,16.75-16.83,34.24-20.64,53-2.38,11.74-3.77,23.69-5.14,35.61-3,26.5,1.37,52.25,9.6,77.3a203.7,203.7,0,0,0,31.67,60.5c6.6,8.65,13.94,17.18,16,28.69,2.84,16.29-2.27,29.73-14.14,40.61-14.34,13.13-28.85,9.59-43.76.21-15.48-9.74-31.78-17.42-49.75-20.73-18.87-3.48-37.9-3.41-56.44,2.07a353.54,353.54,0,0,0-34.62,12.35c-21.32,8.79-33.27-2.33-39.26-19.67-9-26-22.26-48.61-45.28-64.61-17.2-12-36-19.51-57.11-20.53-9.78-.48-19.6-.43-29.36-1.1-8-.56-15.2-3-20.07-10.38-4.07-6.13-4.39-12.79-3.33-19.41,2.16-13.47,5.12-26.81,7.58-40.23,1.21-6.62,1.7-13.39,3.15-19.95,2.15-9.67,11.79-17.49,21.74-18.9,12.05-1.71,24.26-2.95,36-5.95,18.21-4.67,32.36-15.85,43.36-31,12.35-17,16.61-36.31,14.86-56.88-1.37-16-7.85-30.26-17.8-42.74-13.12-16.45-30.26-26-51.1-29.87-14-2.61-27.28-1-40.35,3.27-20.2,6.61-35.11,19.93-45.62,38.26-3.23,5.63-5.94,11.59-9.54,17-8.05,12-19.85,16.2-34.45,12.25-9-2.45-17.91-5.53-26.85-8.33-6.43-2-12.92-3.86-19.26-6.1-12.34-4.36-21.44-12.94-29.11-23.18-9-12-18-24-26.68-36.3a133.09,133.09,0,0,1-10.1-17.24c-5.14-10.25,1.78-20.6,11.94-23.1s20.63-4.12,31-5.66c13.14-1.95,25.17-6.86,36.49-13.42,12.73-7.38,25.74-14.52,37.46-23.31,16.05-12,27.39-28,32.3-47.83C1366.41,6,1365.49,1.52,1365.45-3.3Z"/><path class="cls-4" d="M705.12,433.81c.49-7.68,1.22-14.29,1.25-20.9,0-7.62-.61-15.24-.91-22.86-.77-20.26,12-33,31.37-36.93,9.87-2,19,.61,28.2,3,15.06,3.81,30.16,7.88,45.82,7,23.23-1.26,45-7.47,65.2-19.58,21.33-12.79,36-31.41,48.7-52.09A62.81,62.81,0,0,1,937,276.77a16.22,16.22,0,0,1,24.5,4,180.41,180.41,0,0,1,12.81,24.44c11,25.74,27.23,47.11,49.7,64,18.22,13.71,38.84,21.65,60.33,28.12,11.92,3.58,22,10.58,32.16,17.74,11,7.72,23,14.89,35.51,19.43,20.58,7.44,39.88,17.11,59,27.53,13.87,7.57,28.9,12.35,44.73,13.07,15.55.7,31.17-.33,46.71.4,5.35.26,11,2.76,15.71,5.65,5.57,3.44,6,12.56,1.79,19.79-5.07,8.75-10.81,17.13-15.43,26.1-12.68,24.63-11.71,48.84,3.56,72.19,12.19,18.63,30.24,27.78,51.6,31,15.63,2.36,30.18,7.83,44.68,13.76,6.22,2.54,12.88,4,19.18,6.41,17.27,6.53,22.46,17.8,16.88,34-4.21,12.2-10.47,23.82-16.87,35.1-6.13,10.79-20.29,15.24-32.72,13.25-16.32-2.61-32.87-3.69-49,1.08-16.55,4.88-33.36,9.26-49.3,15.72-19.17,7.78-37.07,18.47-51.72,33.36-10,10.19-19.71,21-27.92,32.63-6.69,9.51-11.4,20.52-16.22,31.22a156.31,156.31,0,0,0-11.94,42.44c-2.68,18.73-17.48,32.19-36.61,34.21-9.31,1-18.46,3.43-27.77,4.43-8.16.88-16.66,2.16-24.36-2.19-8.78-5-12.6-13.5-15.1-22.69-2.29-8.39-3.91-17-6.4-25.29-4.3-14.37-12.64-26.61-21.24-38.72-3.65-5.14-7.22-10.68-9.24-16.58-4-11.82.61-21.51,9.32-29.74,10.55-10,21.76-19.37,31.2-30.3,14.81-17.14,23.32-37.57,27.45-59.93a137.16,137.16,0,0,0,1.8-38.19,129.71,129.71,0,0,0-10.14-39.31c-8.84-20.42-21.33-38.3-38.84-52.29-10-8-20.63-15.39-30.63-23.48-7.64-6.18-14.55-13.27-22.15-19.51a69.31,69.31,0,0,0-25.52-13.48c-5.94-1.65-11.77-3.68-17.67-5.46-12.81-3.87-20.89-13.07-27.27-24.16-6-10.39-12.23-20.61-20.93-29a95.08,95.08,0,0,0-33.37-21c-12.13-4.48-24.89-7.06-37.84-6.27-16.62,1-33.29,2.32-49.72,4.89-13.45,2.11-24.44,9.95-34.5,19.06-5.67,5.13-11.51,10.5-18.19,14-15.77,8.31-37,.13-40.46-19.64C705.61,443.4,705.5,438.07,705.12,433.81Z"/><path class="cls-4" d="M1920,927.46c0,10.67-.09,21.33,0,32,0,3.13-.6,4.78-3.9,6.3-5.62,2.57-10.7,6.35-16,9.67-14.21,9-29.93,13-46.44,15.12-13,1.69-24.74-2.12-36.72-5.49-16.33-4.59-31.51-11.43-44.55-22.62-6.74-5.77-14.28-10.62-20.77-16.64-9.78-9.06-10.62-20.35-6.2-32.39,3.75-10.2,8.41-20.15,11.1-30.62,4.71-18.31.57-35.55-8.69-51.82-7.15-12.56-18.39-20.65-29.67-29-4.24-3.12-7.73-7.4-11.1-11.53-5.83-7.14-2.72-18.32,3-23.15A159.46,159.46,0,0,1,1724,756.49c7.51-5,15-10.17,23.07-14.19,14-7,23.83-7.56,36.82,3,9.21,7.49,17.76,15.79,27,23.23,15,12.06,32.22,20.32,50.24,26.67s28.73,18.72,33.19,37.28c5,20.74,12,40.75,24.85,58.21.77,1,.69,2.83.7,4.27C1920,905.79,1920,916.63,1920,927.46Z"/><path class="cls-4" d="M1117.7,93.94a126.27,126.27,0,0,0-48.38,6.51,158.56,158.56,0,0,0-47.17,24.84c-18.37,14.19-32.09,31.7-42.85,52A123.24,123.24,0,0,1,967,196.68c-10.21,12.73-22.29,10.69-30.07-.63A148.24,148.24,0,0,1,920,163.34c-6.77-18.45.22-28.85,14.76-39.25,9.62-6.9,19.62-13.4,28.48-21.19,15.34-13.47,24.46-31.31,32.45-49.77,4.85-11.23,11.44-21,24.68-23.22A81.15,81.15,0,0,1,1035,29.1c8.12.11,16.27,1.21,24.35.79,10.85-.55,21.63-2.42,32.48-3.22,9-.67,18.29-2,27.07-.57,12.84,2,21,11.75,27.74,22.14,3.61,5.52,7.28,11.2,9.61,17.3,4.1,10.72,4.3,17.87-7,24.39-5.09,2.95-11.94,3.1-18.08,3.9C1126.77,94.4,1122.2,93.94,1117.7,93.94Z"/><path class="cls-4" d="M1539.6,893.86c1-4.89,1.54-11.91,3.82-18.32,4.35-12.26,15.19-17.23,26.55-21a66.63,66.63,0,0,1,14-3c11.95-1.24,21.65,4.17,25.8,15.37s6.62,23.45,8.17,35.44c1.78,13.74-5.6,23.66-17.51,29.65-8.49,4.29-17.35,8.62-26.55,10.57-17.91,3.81-27.44-2.32-31.42-20.55C1540.55,913.56,1540.6,904.66,1539.6,893.86Z"/><path class="cls-4" d="M653.25,170.12c10.29-.91,22,7.74,23.23,18.48,1.08,9.42-3.22,16.38-10.41,21.45-8.13,5.74-16.78,9.36-27.21,4.8-10.79-4.71-13.45-18.75-10.9-26.16C632,177.1,638.73,169.78,653.25,170.12Z"/></g></svg>