<svg id="Capa_1" data-name="Capa 1" xmlns="http://www.w3.org/2000/svg" xmlns:xlink="http://www.w3.org/1999/xlink" viewBox="0 0 1920 1080"><defs><style>.cls-1,.cls-3,.cls-5,.cls-7{fill:none;}.cls-2{clip-path:url(#clip-path);}.cls-3{stroke:#fff;}.cls-3,.cls-5,.cls-7{stroke-miterlimit:10;}.cls-3,.cls-5{stroke-width:0.75px;}.cls-4{clip-path:url(#clip-path-2);}.cls-5{stroke:#f1f1f1;}.cls-6{clip-path:url(#clip-path-3);}.cls-7{stroke:#3a3a3a;}</style><clipPath id="clip-path"><rect class="cls-1" x="-0.5" y="-1493" width="1920" height="1246.5"/></clipPath><clipPath id="clip-path-2"><rect class="cls-1" x="-0.5" y="-0.5" width="1920" height="1240"/></clipPath><clipPath id="clip-path-3"><rect class="cls-1" x="2320.5" y="-20.5" width="1920" height="1240"/></clipPath></defs><title>BG-2</title><g class="cls-2"><path class="cls-3" d="M792.1-1830.53c55.9,211.28,197.84,487.38,484.19,705.71S1832.47-860.12,2136-934.45C1866.13-522,1435.74-50.33,911.5,191.88c33.73-283.27-.25-500.23-199.15-719.38S184.21-879.33-116.46-911.14C162.68-1091.73,569.91-1450.12,792.1-1830.53Z"/><path class="cls-3" d="M39-1020.57C704.51-898,1144.49-309.42,1088.11,99.87"/><path class="cls-3" d="M-1055.17,521.56c491.85-278,1447.37-730.39,2115.64-1413S2159.79-2269.76,2568-2923.82"/><path class="cls-3" d="M685.56-1668.08C781-1468.45,925.44-1154,1008.23-818.19s106.65,695.66,79.88,918.06"/></g><g class="cls-4"><polygon class="cls-5" points="1595.38 -215.82 1620.87 -145.79 1716.64 28.48 1752.26 225.44 1795.26 517.1 1795.33 560.65 1818.67 786.41 1828.84 1068.11 1849.02 1315.29 1880.06 1531.47 122.81 1845.56 96.94 1581.82 73.05 1330.24 61.59 1103.08 42.36 883.81 18.49 655.51 -38.25 365.23 -121 221.42 -164.65 127.34 1595.38 -215.82"/><polyline class="cls-5" points="1345.76 -165.24 1380.77 -72.92 1471.35 67.44 1506.47 300.26 1549.44 575.64 1547.39 613.29 1561.11 845.51 1584.47 1120.41 1605.8 1354.97 1638.55 1575.63"/><polyline class="cls-5" points="1378.9 1616.89 1352.02 1388.66 1334.43 1145.31 1310.13 889.32 1296.1 671.31 1297.44 621.89 1260.89 346.47 1215.38 118.46 1134.64 -26.54 1098.88 -121.04"/><polyline class="cls-5" points="841.07 -68.06 873.36 17.74 968.31 172.42 1017.01 421.12 1040.93 662.3 1041.6 708.6 1065.67 923.54 1081.79 1181.27 1107.55 1441.61 1129.83 1662.2"/><polyline class="cls-5" points="880.72 1706.76 854.54 1473.24 830.28 1217.84 817.73 974.32 792.44 764.32 792.54 728.97 758.85 476.8 718.89 223.96 627.13 60.79 597.39 -24.75"/><polyline class="cls-5" points="343.81 25.86 372.02 118.48 463.63 279.93 507.95 530.78 546.09 773.66 544.15 813.56 556.78 1019.32 570.78 1262.61 600.95 1512.19 630.64 1754.79"/><polyline class="cls-5" points="375.56 1795.26 342.12 1545.03 319.24 1298.62 312.74 1057.68 295.46 863.2 296.52 825.31 260.99 597.48 223.47 327.86 130.89 172.84 90.33 77.63"/><polyline class="cls-5" points="1828.84 1068.11 1583.48 1108.75 1335.32 1149.75 1082.27 1186.07 830.72 1222.46 570.78 1262.61 319.24 1298.62 73.05 1330.24"/><polyline class="cls-5" points="1819.24 802.09 1561.11 845.51 1310.13 889.32 1066.11 930.65 817.73 974.32 556.78 1019.32 312.74 1057.68 61.59 1103.08"/><polyline class="cls-5" points="1795.26 517.1 1548.01 566.44 1297.44 621.89 1042.11 674.68 792.54 728.97 546.09 773.66 296.52 825.31 42.36 883.81"/><polyline class="cls-5" points="1753.83 236.08 1506.47 300.26 1260.91 356.19 1017.01 421.12 760.42 483.27 510 543.83 261.99 603.87 18.49 655.51"/><polyline class="cls-5" points="1709.97 16.35 1471.35 67.44 1215.38 118.46 968.31 172.42 718.89 223.96 463.63 279.93 223.47 327.86 -38.25 365.23"/><polyline class="cls-5" points="2242.17 -785.59 1595.38 -215.82 1536.52 -103.88 1471.35 67.44 1416.93 130 1260.91 356.19 1042.11 674.68 817.73 974.32 570.78 1262.61 342.12 1545.03 122.81 1845.56 -328.46 2484.71"/><polyline class="cls-5" points="2066 1638.11 1880.06 1531.47 1605.8 1354.97 1335.32 1149.75 1066.11 930.65 792.54 728.97 510 543.83 223.47 327.86 97.74 264.01 -61.91 191.57 -164.65 127.34 -342.39 6.07"/><polyline class="cls-5" points="-269.72 1062.69 930.66 825.93 2111.3 589.28"/></g><g class="cls-6"><path class="cls-7" d="M1265.83,1983.55C1757.68,1707,2713.2,1257,3381.47,577.88S4480.79-793.21,4889-1443.85"/></g></svg>