<svg id="Capa_1" data-name="Capa 1" xmlns="http://www.w3.org/2000/svg" xmlns:xlink="http://www.w3.org/1999/xlink" viewBox="0 0 1920 1080"><defs><style>.cls-1,.cls-3,.cls-5,.cls-7{fill:none;}.cls-2{clip-path:url(#clip-path);}.cls-3,.cls-5{stroke:#fff;}.cls-3,.cls-5,.cls-7{stroke-miterlimit:10;}.cls-3{stroke-width:0.75px;}.cls-4{clip-path:url(#clip-path-2);}.cls-6{clip-path:url(#clip-path-3);}.cls-7{stroke:#3a3a3a;}</style><clipPath id="clip-path"><rect class="cls-1" x="-2321.5" width="1920" height="1246.5"/></clipPath><clipPath id="clip-path-2"><rect class="cls-1" x="-0.5" y="-0.5" width="1920" height="1240"/></clipPath><clipPath id="clip-path-3"><rect class="cls-1" x="-0.5" y="1472.5" width="1920" height="1240"/></clipPath></defs><title>BG-3</title><g class="cls-2"><path class="cls-3" d="M-3376.17,2014.56c491.85-278,1447.37-730.39,2115.64-1413S-161.21-776.76,247-1430.82"/></g><g class="cls-4"><path class="cls-5" d="M-146.67-195.57H151.64l175.48,48.25,147,17.55L557.91-138l122.83,8.24,204.15-21.52L1255-187.8l141.09-16.6L1499-244.24l134.45-96.26,59.75-41.5,48.14,212.46,44.81,129.46V13l484.67,1117.05-486.33,204.16s-112.87,94.6-278.85,134.44-265.57,26.56-373.45,39.84S679.08,1555,679.08,1555s-126.15-11.62-225.74-8.3S196.07,1480.31,111.42,1482s-258.09,1.66-258.09,1.66Z"/><polyline class="cls-5" points="821.63 1541.07 1132.99 856.3 1311.8 443.18 1441.29 14.64 1499.02 -244.24"/><polyline class="cls-5" points="243.67 -170.26 335.93 -79.76 453.39 15.43 572.88 78.01 688.32 157.19 1311.8 443.18 1536.89 527.81 1781.94 527.81 1804.21 511.61 2014.06 538.27"/><polyline class="cls-5" points="2183.37 1166.81 1792.06 878.17 1547.01 734.38 1311.8 443.18 1358.67 839.69 1455.88 1301.44 1505.66 1468.69"/><polyline class="cls-5" points="1741.36 -169.54 1571.31 143.01 1457.9 296.93 1311.8 443.18 1249.3 341.49 884.89 -151.29"/><path class="cls-5" d="M1255-187.8l56.77,631s108.86-4.48,187.22-40.94S1788,224,1788,224l5.7-23.72,62.9-24.91"/><path class="cls-5" d="M-146.67,1304.72l302.53-168S367.74,1088,467.6,1027.09,979,686.13,979,686.13L1311.8,443.18,681.91,508.34,658,497.93l-217.85,1.88L145.25,443.18H-146.67"/><polyline class="cls-5" points="-146.67 39.29 142.78 39.29 374.73 91.04 685.26 102.54 911.45 78.01 1276.13 46.74 1441.29 14.64 1555.82 -33.55 1741.36 -169.54"/><polyline class="cls-5" points="1633.47 -340.5 1721.92 12.25 1788.01 224.02 2183.37 1166.81"/><path class="cls-5" d="M2201.27,969.75s-200.41,84.82-323.62,136.09-248,158.54-421.77,195.6-298.69,28.5-413.34,40.48-273.81,34.23-345.68,34.23-148.88-8.56-222.47,0S287.86,1340.21,192,1323.1s-338.7-18.38-338.7-18.38"/><polyline class="cls-5" points="287.07 1517.72 257.56 464.75 243.67 -170.26"/><path class="cls-5" d="M-146.67,845.05H154s217,58.31,297.9,59.9,150.73-6.35,245.93,0,165-13.67,320.5-29.84,364.83-17.13,480.7-59,303.11-205.94,515-277.83"/><polyline class="cls-5" points="662.42 -138.45 685.26 102.54 722.52 504.14 759.03 906.15 821.63 1541.07"/><line class="cls-5" x1="884.89" y1="-151.29" x2="1062.08" y2="1517.72"/><polyline class="cls-5" points="1970.08 1256.35 1767.65 813.72 1633.47 424.71 1527.47 -83.1 1499.02 -244.24"/></g><g class="cls-6"><path class="cls-7" d="M-1055.17,3476.55C-563.32,3200,392.2,2750,1060.47,2070.88S2159.79,699.79,2568,49.15"/></g></svg>