<svg id="Capa_1" data-name="Capa 1" xmlns="http://www.w3.org/2000/svg" xmlns:xlink="http://www.w3.org/1999/xlink" viewBox="0 0 1920 1080"><defs><style>.cls-1,.cls-4,.cls-6,.cls-8{fill:none;}.cls-2{clip-path:url(#clip-path);}.cls-3{clip-path:url(#clip-path-2);}.cls-4,.cls-6{stroke:#fff;}.cls-4,.cls-6,.cls-8{stroke-miterlimit:10;}.cls-5{clip-path:url(#clip-path-3);}.cls-6,.cls-8{stroke-width:0.5px;}.cls-7{clip-path:url(#clip-path-4);}.cls-8{stroke:#3a3a3a;}</style><clipPath id="clip-path"><rect class="cls-1" x="-2198.5" y="-1493.5" width="1920" height="1240"/></clipPath><clipPath id="clip-path-2"><rect class="cls-1" x="-2198.5" y="-20.5" width="1920" height="1240"/></clipPath><clipPath id="clip-path-3"><rect class="cls-1" x="-0.5" y="-1493.5" width="1920" height="1240"/></clipPath><clipPath id="clip-path-4"><rect class="cls-1" x="-4.92" y="-20" width="1950.95" height="1274"/></clipPath></defs><title>BG-8</title><g class="cls-3"><path class="cls-4" d="M-2516-939h362.79l213.4,58.69L-1761.08-859l101.94-10,149.37,10,248.28-26.17,450.14-44.41,171.58-20.19,125.15-48.44,163.5-117.08,72.67-50.46,58.53,258.37,54.5,157.45v64.59L424,673.14-167.43,921.42s-137.27,115.06-339.12,163.51-323,32.29-454.17,48.44-551.07,56.52-551.07,56.52-153.4-14.13-274.52-10.09-312.87-80.74-415.82-78.72-313.87,2-313.87,2Z"/><polyline class="cls-4" points="317.63 717.79 -158.25 366.78 -456.26 191.91 -742.31 -162.23 -685.32 319.98 -567.1 881.53 -506.55 1084.93"/><polyline class="cls-4" points="-351.12 -1115.29 -243.55 -686.29 -163.18 -428.75 317.63 717.79"/><path class="cls-4" d="M339.4,478.15S95.67,581.3-54.17,643.65-355.78,836.46-567.1,881.53s-363.23,34.66-502.67,49.23-333,41.62-420.39,41.62-181.06-10.4-270.55,0-226.84-43.7-343.39-64.51S-2516,885.52-2516,885.52"/><path class="cls-4" d="M-2516,326.5h365.64s263.87,70.91,362.28,72.84,183.31-7.71,299.09,0,200.67-16.62,389.77-36.29,443.68-20.83,584.6-71.76S-146,40.85,111.73-46.58"/><polyline class="cls-4" points="58.23 826.69 -187.94 288.4 -351.12 -184.69 -480.03 -802.25 -514.62 -998.21"/></g><g class="cls-5"><path class="cls-6" d="M83.7-1938.57c263,251.48,705.19,520.07,1303.52,580.68s1023.94-108.69,1393.06-478.92C2752.41-1015.53,2546.68,29.85,2007.92,831,1810.46,399.07,1573.81,120.42,1099.68-17.6S40.24-57.14-416.8,159.75C-174.7-340.16,96.2-1204.38,83.7-1938.57Z"/><path class="cls-6" d="M-289.63-131.27C767.19-537.21,1906-84.41,2180.4,546.28"/><path class="cls-6" d="M-181.37-429.09c794.66-154,1944.77-3,2535.14,616.5"/><path class="cls-6" d="M418.47-1681.73C399.65-1058.68,190.46-476.93,5.61,4.32"/><path class="cls-6" d="M1233.32,27.43c190.5-429.57,323.3-966.49,377.61-1373.31"/><path class="cls-6" d="M1587.75,233c246-547.44,383-1200.72,447.58-1628.12"/><path class="cls-6" d="M1837.2,517c384.31-708.16,532.69-1497.25,602.57-2081.72"/><path class="cls-6" d="M-515.27,3013.7c461.45-823.79,1434-2299.43,1796.56-3851.92s375-2916.62,391-4201.78"/><path class="cls-6" d="M72.38-1614.87c309.41,200.45,788.44,521.41,1197.84,926.33S2025.78,207,2180.4,546.28"/></g><g class="cls-7"><path class="cls-8" d="M1977.77,17.39l-324.45-33.8L1457,16.19l-161.83,2.43L1204.92.16l-134.53-5L850.78-51.34,452.34-133,300.77-167,193.36-222,58-342l-60.29-51.9L-78.68-168.25-142.09-32.52l-6,57.77-653.73,1160L-296,1462.45s112,115.69,288,177.82,285.84,59,401.67,85.65,487.58,101.9,487.58,101.9,138.52,1.66,246.46,16.55,287.34-43.06,379.22-31.66,280.53,31,280.53,31Z"/><polyline class="cls-8" points="727.81 1796.51 466.76 1016.45 319.09 546.85 226.82 66.08 193.36 -222.03"/><polyline class="cls-8" points="1550.36 0.68 1439.75 88.66 1301.21 178.88 1164.16 233.41 1029.63 306.45 319.09 546.85 64.69 613.39 -201.84 585.62 -224.23 565.47 -455.49 570.7"/><polyline class="cls-8" points="-710.87 1235.13 -252.56 965.54 30.27 836.92 319.09 546.85 223.19 972.8 65.13 1464.01 -7.97 1640.28"/><polyline class="cls-8" points="-78.68 -168.25 70.85 190.97 176.76 371.23 319.09 546.85 398.59 443.33 850.78 -51.34"/><path class="cls-8" d="M452.34-133,319.09,546.85s-117.89-17.21-199-65.74S-174,254.52-174,254.52l-3.51-26.44-65.59-34.23"/><path class="cls-8" d="M1807.76,1649.18l-310-217.06s-224.94-77-326.64-154.52S653.49,848.8,653.49,848.8L319.09,546.85,996.8,689.1l27.23-8.61,236.74,26.73L1587.89,679l317.5,33.08"/><polyline class="cls-8" points="1951.16 272.83 1636.34 240.03 1378.2 270.04 1039.15 247.36 795.91 195.04 402.81 119.71 226.82 66.08 107.71 0.68 -78.68 -168.25"/><polyline class="cls-8" points="58.04 -341.97 -78.14 31.68 -174.02 254.52 -710.87 1235.13"/><path class="cls-8" d="M-708,1018.78s208.36,115,336.56,184.68S-119.66,1404,65.13,1464s321.63,64.85,445,90.87,293.92,68.25,372.1,76.39,162.9,7.57,242,25.21,206.95-17.94,313.13-25.7,370.46,18.4,370.46,18.4"/><polyline class="cls-8" points="1311.87 1831.69 1463.29 689.78 1550.36 0.68"/><path class="cls-8" d="M1859.85,1149.22l-327-34.08s-242.6,38.84-330.79,31.4-163.23-24-267.49-27.87-177.93-33.57-345.21-68.78-394.87-60-516.15-118.65S-233.14,672.9-455.49,570.7"/><polyline class="cls-8" points="1091.3 -12.17 1039.15 247.36 953.11 679.93 867.85 1113.04 727.81 1796.51"/><line class="cls-8" x1="850.78" y1="-51.34" x2="468.93" y2="1743.86"/><polyline class="cls-8" points="-489.02 1356.69 -218.7 898.21 -28.68 490.31 144.16 -49.99 193.36 -222.03"/></g></svg>