<svg id="Capa_1" data-name="Capa 1" xmlns="http://www.w3.org/2000/svg" xmlns:xlink="http://www.w3.org/1999/xlink" viewBox="0 0 1920 1080"><defs><style>.cls-1,.cls-3,.cls-4,.cls-5{fill:none;}.cls-2{clip-path:url(#clip-path);}.cls-3{stroke:#fff;stroke-miterlimit:10;}.cls-3,.cls-4,.cls-5{stroke-width:0.5px;}.cls-4,.cls-5{stroke:#000;stroke-linejoin:bevel;}.cls-5{stroke-dasharray:4;}</style><clipPath id="clip-path"><rect class="cls-1" x="699.5" y="-3603.5" width="1920" height="1240"/></clipPath></defs><title>BG-12</title><g class="cls-2"><path class="cls-3" d="M184.73,903.7c461.45-823.79,1434-2299.43,1796.56-3851.92s375.05-2916.62,391-4201.78"/></g><polyline class="cls-4" points="272.2 1064 442.26 1063 535.38 791.21 346.57 769.19 415.09 724.69 332.96 585.87 378.68 591.36 415.09 724.69 535.38 791.21 445.09 515.01 352.79 508.71 361.08 549.59 301.91 545.6 275.16 510.16 189.27 500.11"/><line class="cls-4" x1="362.33" y1="635.51" x2="378.68" y2="591.36"/><line class="cls-4" x1="352.79" y1="508.71" x2="342.12" y2="548.31"/><polyline class="cls-4" points="451.33 1036.51 570.95 999.77 683.84 1041.39 733.18 824.26"/><line class="cls-4" x1="683.84" y1="1041.39" x2="550.83" y2="1005.95"/><line class="cls-4" x1="570.95" y1="999.77" x2="530.32" y2="805.98"/><polyline class="cls-4" points="515.71 731.05 475.01 516.09 562.32 517.45 649.38 844.05 730.91 583.66 827.2 628 712.02 952.02 798.75 1045.89 847.98 1060.44 1042.48 956.29 1072.47 708.56 997.13 690.64 994.09 894.07 847.98 1060.44"/><polyline class="cls-4" points="584.46 600.5 598.52 534.43 730.91 583.66"/><polyline class="cls-4" points="598.52 534.43 692.13 527.34 827.2 628"/><polyline class="cls-4" points="786.12 743.56 902.16 789.08 966.51 861.72 994.09 894.07 1042.48 956.29 1091.88 1020.4 970.57 1014.59"/><line class="cls-4" x1="798.75" y1="1045.89" x2="902.16" y2="789.08"/><line class="cls-4" x1="838.26" y1="1057.57" x2="966.51" y2="861.72"/><line class="cls-4" x1="790.86" y1="730.23" x2="827.2" y2="759.68"/><polyline class="cls-4" points="857.89 771.71 860.75 545.71 997.13 690.64"/><polyline class="cls-4" points="860.75 545.71 935.13 553.06 1072.47 708.56"/><polyline class="cls-4" points="1000.55 627.14 1017.25 572.46 1108.9 807.94 1165.88 882.55 1103.21 897.4"/><polyline class="cls-4" points="1000.55 1016.02 1014.64 1050.22 1059.41 1018.85"/><polyline class="cls-4" points="1091.88 1020.4 1213.25 992.99 1148.94 887.01"/><line class="cls-4" x1="1095.06" y1="998.23" x2="1181.39" y2="940.48"/><polyline class="cls-4" points="1043.04 986.32 1059.41 978.27 1108.9 807.94"/><polyline class="cls-4" points="1017.25 572.46 1120.42 616.46 1165.88 882.55"/><polyline class="cls-4" points="1127.08 655.45 1142.08 668.15 1208.84 911.48 1200.75 972.39"/><path class="cls-4" d="M1194.87,997.14l-1.75,54.56s49.28-1.64,89-34,51.64-79.92,51.64-79.92l-59,2.74-46-16.44s-19,49.75,5.45,58,40.51-41.51,40.51-41.51"/><polyline class="cls-4" points="1274.7 940.48 1275.64 695.28 1232.51 904.51"/><polyline class="cls-4" points="1275.64 695.28 1303.02 690.64 1333.75 937.74"/><polyline class="cls-4" points="1311.13 985.59 1362.98 978.68 1399.62 911.48 1327.44 887.01"/><polyline class="cls-4" points="1399.62 911.48 1364.6 880.93 1326.68 880.93"/><polyline class="cls-4" points="1364.6 880.93 1356.72 776.34 1315.37 789.96"/><line class="cls-4" x1="1142.08" y1="668.15" x2="1130.98" y2="678.26"/><path class="cls-4" d="M1122.87,630.85s39.69-17,109.64,5.43,124.21,140.06,124.21,140.06l59.58,33.26,77-81.41,68.76,60.53-13.79,9.87"/><polyline class="cls-4" points="1292.37 678.75 1326.68 616.46 1493.31 728.19"/><polyline class="cls-4" points="1326.68 616.46 1421.99 624.69 1562.07 788.72"/><line class="cls-4" x1="1193.12" y1="1051.7" x2="1132.53" y2="1011.22"/><line class="cls-4" x1="1208.84" y1="911.48" x2="1163.79" y2="911.48"/><line class="cls-4" x1="196.35" y1="839.83" x2="237.94" y2="853.33"/><line class="cls-4" x1="257.3" y1="843.91" x2="271.15" y2="802.48"/><line class="cls-4" x1="267.81" y1="863.04" x2="309.49" y2="876.44"/><line class="cls-4" x1="248.57" y1="874.54" x2="235.22" y2="915.69"/><line class="cls-5" x1="223.88" y1="762.5" x2="132.92" y2="4"/><polyline class="cls-4" points="459.52 559.14 475.01 516.09 445.09 515.01"/><line class="cls-4" x1="402.17" y1="920.5" x2="400.43" y2="935.07"/><line class="cls-4" x1="408.59" y1="928.66" x2="394.01" y2="926.92"/><line class="cls-4" x1="432.9" y1="743.85" x2="431.16" y2="758.42"/><line class="cls-4" x1="439.31" y1="752" x2="424.74" y2="750.27"/><line class="cls-4" x1="360.99" y1="593.21" x2="359.26" y2="607.78"/><line class="cls-4" x1="367.41" y1="601.37" x2="352.84" y2="599.63"/><line class="cls-4" x1="623.27" y1="710.04" x2="621.54" y2="724.61"/><line class="cls-4" x1="629.69" y1="718.2" x2="615.12" y2="716.46"/><line class="cls-4" x1="763.38" y1="860.69" x2="761.65" y2="875.26"/><line class="cls-4" x1="769.8" y1="868.84" x2="755.23" y2="867.11"/><line class="cls-4" x1="875.79" y1="936.29" x2="874.05" y2="950.86"/><line class="cls-4" x1="882.21" y1="944.44" x2="867.63" y2="942.71"/><line class="cls-4" x1="910.27" y1="965.07" x2="908.53" y2="979.64"/><line class="cls-4" x1="916.68" y1="973.22" x2="902.11" y2="971.49"/><line class="cls-4" x1="1028.52" y1="805.51" x2="1026.78" y2="820.08"/><line class="cls-4" x1="1034.94" y1="813.66" x2="1020.37" y2="811.93"/><line class="cls-4" x1="920.81" y1="788.19" x2="919.08" y2="802.76"/><line class="cls-4" x1="927.23" y1="796.34" x2="912.66" y2="794.6"/><line class="cls-4" x1="963.73" y1="610.61" x2="962" y2="625.18"/><line class="cls-4" x1="970.15" y1="618.76" x2="955.58" y2="617.02"/><line class="cls-4" x1="1103.03" y1="707.75" x2="1101.29" y2="722.32"/><line class="cls-4" x1="1109.45" y1="715.91" x2="1094.87" y2="714.17"/><line class="cls-4" x1="1361.13" y1="733.22" x2="1359.39" y2="747.79"/><line class="cls-4" x1="1367.55" y1="741.37" x2="1352.98" y2="739.64"/><line class="cls-4" x1="1448.63" y1="678.26" x2="1446.9" y2="692.83"/><line class="cls-4" x1="1455.05" y1="686.41" x2="1440.48" y2="684.68"/><line class="cls-4" x1="939.87" y1="986.32" x2="938.13" y2="1000.89"/><line class="cls-4" x1="946.29" y1="994.48" x2="931.72" y2="992.74"/><line class="cls-4" x1="1106.27" y1="998.91" x2="1104.53" y2="1013.48"/><line class="cls-4" x1="1112.68" y1="1007.06" x2="1098.11" y2="1005.32"/><line class="cls-4" x1="989.08" y1="1005.83" x2="987.35" y2="1020.4"/><line class="cls-4" x1="995.5" y1="1013.99" x2="980.93" y2="1012.25"/><line class="cls-4" x1="709.48" y1="559.14" x2="707.74" y2="573.71"/><line class="cls-4" x1="715.9" y1="567.29" x2="701.33" y2="565.56"/><line class="cls-4" x1="561.04" y1="1016.44" x2="559.3" y2="1031.01"/><line class="cls-4" x1="567.45" y1="1024.6" x2="552.88" y2="1022.86"/></svg>