<svg id="Capa_1" data-name="Capa 1" xmlns="http://www.w3.org/2000/svg" xmlns:xlink="http://www.w3.org/1999/xlink" viewBox="0 0 3623.68 3445.9"><defs><style>.cls-1,.cls-3{fill:none;}.cls-2{clip-path:url(#clip-path);}.cls-3{stroke:#fff;stroke-miterlimit:10;stroke-width:0.75px;}</style><clipPath id="clip-path" transform="translate(1055.36 1431.01)"><rect class="cls-1" x="-0.5" width="1920" height="1246.5"/></clipPath></defs><title>BG-1</title><g class="cls-2"><path class="cls-3" d="M792.1-337.53C848-126.25,989.94,149.85,1276.29,368.18S1832.47,632.88,2136,558.55C1866.13,971,1435.74,1442.67,911.5,1684.88c33.73-283.27-.25-500.23-199.15-719.38S184.21,613.67-116.46,581.86C162.68,401.27,569.91,42.88,792.1-337.53Z" transform="translate(1055.36 1431.01)"/><path class="cls-3" d="M39,472.43C704.51,595,1144.49,1183.58,1088.11,1592.87" transform="translate(1055.36 1431.01)"/><path class="cls-3" d="M187,353.58C640.27,523.31,1180,960.64,1288.28,1463.1" transform="translate(1055.36 1431.01)"/><path class="cls-3" d="M328.69,226.34c301.48,179,940.57,702.51,1148.8,1088.07" transform="translate(1055.36 1431.01)"/><path class="cls-3" d="M459.7,95.22c311.85,329.32,1042.77,942.1,1202,1048.47" transform="translate(1055.36 1431.01)"/><path class="cls-3" d="M574.53-33.38c248.18,336.22,667.62,795.41,1255.78,996" transform="translate(1055.36 1431.01)"/><path class="cls-3" d="M685.56-175.08C862.85,258.05,1487.5,808.59,1994.43,759.86" transform="translate(1055.36 1431.01)"/><path class="cls-3" d="M882.92-101.06C679.36,212.56,391.54,445.41,147.41,634.35" transform="translate(1055.36 1431.01)"/><path class="cls-3" d="M382.08,725C588.16,578.27,831.63,346.66,1015.34,109" transform="translate(1055.36 1431.01)"/><path class="cls-3" d="M598.44,859.76c190.21-146.3,423.36-364.43,587.36-566.61" transform="translate(1055.36 1431.01)"/><path class="cls-3" d="M766.51,1030.41C997.42,869.74,1232.32,636,1386.67,444.35" transform="translate(1055.36 1431.01)"/><path class="cls-3" d="M883.3,1246.77c296-203.73,569.16-495.89,735.19-694.84" transform="translate(1055.36 1431.01)"/><path class="cls-3" d="M922.16,1470.43c416.52-242.87,737.87-601.09,955.47-878.94" transform="translate(1055.36 1431.01)"/><path class="cls-3" d="M-1055.17,2014.56c491.85-278,1447.37-730.39,2115.64-1413S2159.79-776.76,2568-1430.82" transform="translate(1055.36 1431.01)"/><path class="cls-3" d="M685.56-175.08C781,24.55,925.44,339,1008.23,674.81s106.65,695.66,79.88,918.06" transform="translate(1055.36 1431.01)"/><path class="cls-3" d="M39,472.43c328.43,79.17,704.37,155,969.21,202.38s837.94,118.51,986.2,85.05" transform="translate(1055.36 1431.01)"/></g></svg>