<svg id="Capa_1" data-name="Capa 1" xmlns="http://www.w3.org/2000/svg" xmlns:xlink="http://www.w3.org/1999/xlink" viewBox="0 0 1920 1080"><defs><style>.cls-1,.cls-3,.cls-5,.cls-7{fill:none;}.cls-2{clip-path:url(#clip-path);}.cls-3,.cls-5{stroke:#fff;}.cls-3,.cls-5,.cls-7{stroke-miterlimit:10;}.cls-3{stroke-width:0.75px;}.cls-4{clip-path:url(#clip-path-2);}.cls-6{clip-path:url(#clip-path-3);}.cls-7{stroke:#3a3a3a;}</style><clipPath id="clip-path"><rect class="cls-1" x="-2321.5" y="-1473" width="1920" height="1246.5"/></clipPath><clipPath id="clip-path-2"><rect class="cls-1" x="-0.5" y="-1473.5" width="1920" height="1240"/></clipPath><clipPath id="clip-path-3"><rect class="cls-1" x="-0.5" y="-0.5" width="1920" height="1240"/></clipPath></defs><title>BG-4</title><g class="cls-2"><path class="cls-3" d="M-3376.17,541.56c491.85-278,1447.37-730.39,2115.64-1413S-161.21-2249.76,247-2903.82"/></g><g class="cls-4"><path class="cls-5" d="M-146.67-1668.57H151.64l175.48,48.25,147,17.55,83.83-8.24,122.83,8.24,204.15-21.52L1255-1660.8l141.09-16.6,102.9-39.84,134.45-96.26,59.75-41.5,48.14,212.46,44.81,129.46V-1460L2270.84-342.91,1784.51-138.75S1671.64-44.15,1505.66-4.31s-265.57,26.56-373.45,39.84S679.08,82,679.08,82,552.93,70.38,453.34,73.7,196.07,7.31,111.42,9s-258.09,1.66-258.09,1.66Z"/><polyline class="cls-5" points="821.63 68.07 1132.99 -616.7 1311.8 -1029.82 1441.29 -1458.36 1499.02 -1717.24"/><polyline class="cls-5" points="287.07 44.72 257.56 -1008.25 243.67 -1643.27"/><polyline class="cls-5" points="662.42 -1611.45 685.26 -1370.46 722.52 -968.86 759.03 -566.85 821.63 68.07"/><line class="cls-5" x1="884.89" y1="-1624.29" x2="1062.08" y2="44.72"/></g><g class="cls-6"><path class="cls-7" d="M792.1-336.27c55.9,210.17,197.84,484.84,484.19,702S1832.47,629.08,2136,555.13c-269.9,410.28-700.29,879.52-1224.53,1120.46C945.23,1393.8,911.25,1178,712.35,960S184.21,610-116.46,578.33C162.68,398.68,569.91,42.15,792.1-336.27Z"/><path class="cls-7" d="M39,469.46c665.49,121.93,1105.47,707.45,1049.09,1114.6"/><path class="cls-7" d="M187,351.24C640.27,520.08,1180,955.13,1288.28,1455"/><path class="cls-7" d="M328.69,224.66c301.48,178,940.57,698.85,1148.8,1082.4"/><path class="cls-7" d="M459.7,94.22c311.85,327.61,1042.77,937.19,1202,1043"/><path class="cls-7" d="M574.53-33.71C822.71,300.76,1242.15,757.56,1830.31,957.1"/><path class="cls-7" d="M685.56-174.66C862.85,256.21,1487.5,803.87,1994.43,755.4"/><path class="cls-7" d="M882.92-101C679.36,211,391.54,442.59,147.41,630.54"/><path class="cls-7" d="M382.08,720.67c206.08-145.92,449.55-376.31,633.26-612.73"/><path class="cls-7" d="M598.44,854.77C788.65,709.24,1021.8,492.25,1185.8,291.12"/><path class="cls-7" d="M766.51,1024.54c230.91-159.83,465.81-392.39,620.16-583"/><path class="cls-7" d="M883.3,1239.77c296-202.67,569.16-493.3,735.19-691.21"/><path class="cls-7" d="M922.16,1462.26c416.52-241.6,737.87-597.95,955.47-874.35"/><path class="cls-7" d="M-1055.17,2003.55C-563.32,1727,392.2,1277,1060.47,597.88S2159.79-773.21,2568-1423.85"/><path class="cls-7" d="M685.56-174.66C781,23.92,925.44,336.78,1008.23,670.79s106.65,692,79.88,913.27"/><path class="cls-7" d="M39,469.46c328.43,78.76,704.37,154.15,969.21,201.33s837.94,117.89,986.2,84.61"/></g></svg>