<svg id="Capa_1" data-name="Capa 1" xmlns="http://www.w3.org/2000/svg" xmlns:xlink="http://www.w3.org/1999/xlink" viewBox="0 0 1920 1080"><defs><style>.cls-1,.cls-3,.cls-5,.cls-7,.cls-9{fill:none;}.cls-2{clip-path:url(#clip-path);}.cls-3{stroke:#3a3a3a;}.cls-3,.cls-5,.cls-7,.cls-9{stroke-miterlimit:10;}.cls-4{clip-path:url(#clip-path-2);}.cls-5{stroke:#f1f1f1;stroke-width:0.75px;}.cls-6{clip-path:url(#clip-path-3);}.cls-7,.cls-9{stroke:#fff;}.cls-8{clip-path:url(#clip-path-4);}.cls-9{stroke-width:0.5px;}</style><clipPath id="clip-path"><rect class="cls-1" x="-2405.5" y="1472.5" width="1920" height="1240"/></clipPath><clipPath id="clip-path-2"><rect class="cls-1" x="-0.5" y="-0.5" width="1920" height="1240"/></clipPath><clipPath id="clip-path-3"><rect class="cls-1" x="-0.5" y="1472.5" width="1920" height="1240"/></clipPath><clipPath id="clip-path-4"><rect class="cls-1" x="2197.5" y="-0.5" width="1920" height="1240"/></clipPath></defs><title>BG-5</title><g class="cls-2"><path class="cls-3" d="M-3460.17,3476.55C-2968.32,3200-2012.8,2750-1344.53,2070.88S-245.21,699.79,163,49.15"/></g><g class="cls-4"><polygon class="cls-5" points="2407.12 -1353.71 2394.9 -1231.23 2412.61 -903.28 2324.56 -584.64 2179.66 -119.77 2148.58 -54.89 2021.62 297.82 1835 724.34 1687.99 1106.68 1579.37 1450.64 -1260.87 659.54 -1110.49 248.49 -965.85 -143.04 -820.21 -489.33 -691.78 -829.44 -563.8 -1186.32 -440.34 -1658.96 -460.5 -1932.26 -458.08 -2103.54 2407.12 -1353.71"/><polyline class="cls-5" points="1999.38 -1457.21 1985.36 -1294.75 2019.65 -1020.98 1905.17 -649.31 1771.9 -208.7 1741.87 -154.13 1595.98 201.3 1433.86 627.17 1297.6 991.54 1188.31 1343.39"/><polyline class="cls-5" points="772.33 1218.85 895.78 859.92 1043.89 485.14 1191.06 86.75 1326.32 -247.75 1363.72 -320.34 1506.58 -756.42 1602.15 -1128.36 1585.84 -1402 1600.29 -1568.24"/><polyline class="cls-5" points="1178.67 -1674.05 1165.27 -1523.22 1195.79 -1225.02 1090.16 -820 953.02 -443.92 920.85 -374.53 802.73 -37.4 642.13 357.72 494.02 763.64 369.18 1107.89"/><polyline class="cls-5" points="-33.48 995.78 94.82 629.5 241.62 232.01 397.36 -139.4 510.13 -470.06 535.59 -522.6 666.05 -922.03 787.68 -1326.94 767.98 -1635.5 784.98 -1784.1"/><polyline class="cls-5" points="371.33 -1890.4 346.97 -1732.35 367.7 -1426.47 253.98 -1021.38 136.81 -632.6 105.32 -574.6 -23.24 -259.33 -176.64 112.78 -310.5 505.84 -440.06 888.17"/><polyline class="cls-5" points="1687.99 1106.68 1297.6 991.54 895.78 859.92 499.82 747.73 94.82 629.5 -310.5 505.84 -719.23 369.34 -1110.49 248.49"/><polyline class="cls-5" points="1835 724.34 1440.74 609.11 1042.03 492.38 639.4 365.21 238.96 239.2 -176.64 112.78 -576.8 -13.78 -965.85 -143.04"/><polyline class="cls-5" points="2011.24 321.56 1595.98 201.3 1191.06 86.75 798.3 -26.5 397.36 -139.4 -23.24 -259.33 -413.91 -377.02 -820.21 -489.33"/><polyline class="cls-5" points="3777.79 -1738.45 2407.12 -1353.71 2239.34 -1229.26 2019.65 -1020.98 1893.86 -966.83 1499.65 -741.95 945.9 -424.66 397.36 -139.4 -176.64 112.78 -719.23 369.34 -1260.87 659.54 -2390.26 1287.57"/><polyline class="cls-5" points="1779.72 1742.52 1579.37 1450.64 1297.6 991.54 1042.03 492.38 798.3 -26.5 535.59 -522.6 247.69 -1000.5 -24.06 -1527.14 -165.46 -1712.22 -351.19 -1934.36 -458.08 -2103.54 -635.76 -2411.32"/><polyline class="cls-5" points="-1284.36 -786.73 671.71 -279.37 2598.33 214.02"/></g><g class="cls-6"><path class="cls-7" d="M-318,554H44.79l213.4,58.69L436.92,634l101.94-10,149.37,10,248.28-26.17,450.14-44.41,171.58-20.19,125.15-48.44,163.5-117.08,72.67-50.46,58.53,258.37,54.5,157.45v64.59L2622,2166.14l-591.43,248.28s-137.27,115.06-339.12,163.51-323,32.29-454.17,48.44-551.07,56.52-551.07,56.52-153.4-14.13-274.52-10.09S98.82,2592.06-4.13,2594.08s-313.87,2-313.87,2Z"/><polyline class="cls-7" points="859.58 2665.95 1238.23 1833.18 1455.69 1330.77 1613.16 809.61 1683.38 494.79"/><polyline class="cls-7" points="156.7 584.75 268.9 694.81 411.75 810.57 557.07 886.68 697.45 982.98 1455.69 1330.77 1729.42 1433.69 2027.44 1433.69 2054.53 1413.99 2309.73 1446.42"/><polyline class="cls-7" points="1978.08 585.62 1771.29 965.73 1633.37 1152.92 1455.69 1330.77 1379.68 1207.1 936.51 607.83"/><path class="cls-7" d="M1386.65,563.42l69,767.35s132.38-5.45,227.69-49.78,351.44-216.74,351.44-216.74l6.93-28.84,76.5-30.31"/><polyline class="cls-7" points="-318 839.59 34.01 839.59 316.08 902.53 693.74 916.52 968.82 886.68 1412.31 848.65 1613.16 809.61 1752.45 751 1978.08 585.62"/><polyline class="cls-7" points="1846.88 377.71 1954.45 806.71 2034.83 1064.25 2515.63 2210.8"/><polyline class="cls-7" points="209.48 2637.55 173.59 1357 156.7 584.75"/><polyline class="cls-7" points="665.96 623.43 693.74 916.52 739.05 1404.91 783.45 1893.81 859.58 2665.95"/><line class="cls-7" x1="936.51" y1="607.83" x2="1152" y2="2637.55"/><polyline class="cls-7" points="2256.24 2319.69 2010.06 1781.4 1846.88 1308.31 1717.97 690.75 1683.38 494.79"/></g><g class="cls-8"><path class="cls-9" d="M2281.7-445.57c263,251.48,705.19,520.07,1303.52,580.68S4609.16,26.42,4978.28-343.81c-27.87,821.28-233.6,1866.66-772.36,2667.77-197.46-431.89-434.11-710.54-908.24-848.56s-1059.44-39.54-1516.48,177.35C2023.3,1152.84,2294.2,288.62,2281.7-445.57Z"/><path class="cls-9" d="M1682.73,4506.7c461.45-823.79,1434-2299.43,1796.56-3851.92s375.05-2916.62,391-4201.78"/><path class="cls-9" d="M1908.37,1361.73c537.77-173.79,1140.45-393.81,1559.85-557.27s1299.62-562,1482.37-738.8"/></g></svg>