<svg id="Capa_1" data-name="Capa 1" xmlns="http://www.w3.org/2000/svg" xmlns:xlink="http://www.w3.org/1999/xlink" viewBox="0 0 1920 1080"><defs><style>.cls-1,.cls-11,.cls-3,.cls-5,.cls-7,.cls-9{fill:none;}.cls-2{clip-path:url(#clip-path);}.cls-11,.cls-3{stroke:#3a3a3a;}.cls-11,.cls-3,.cls-5,.cls-7,.cls-9{stroke-miterlimit:10;}.cls-4{clip-path:url(#clip-path-2);}.cls-5{stroke:#f1f1f1;stroke-width:0.75px;}.cls-6{clip-path:url(#clip-path-3);}.cls-7,.cls-9{stroke:#fff;}.cls-8{clip-path:url(#clip-path-4);}.cls-11,.cls-9{stroke-width:0.5px;}.cls-10{clip-path:url(#clip-path-5);}</style><clipPath id="clip-path"><rect class="cls-1" x="-2405.5" y="-0.5" width="1920" height="1240"/></clipPath><clipPath id="clip-path-2"><rect class="cls-1" x="-0.5" y="-1473.5" width="1920" height="1240"/></clipPath><clipPath id="clip-path-3"><rect class="cls-1" x="-0.5" y="-0.5" width="1920" height="1240"/></clipPath><clipPath id="clip-path-4"><rect class="cls-1" x="2197.5" y="-1473.5" width="1920" height="1240"/></clipPath><clipPath id="clip-path-5"><rect class="cls-1" x="2193.08" width="1950.95" height="1274"/></clipPath></defs><title>BG-6</title><g class="cls-2"><path class="cls-3" d="M-3460.17,2003.55C-2968.32,1727-2012.8,1277-1344.53,597.88S-245.21-773.21,163-1423.85"/></g><g class="cls-4"><polyline class="cls-5" points="1779.72 269.52 1579.37 -22.36 1297.6 -481.46 1042.03 -980.62 798.3 -1499.5 535.59 -1995.6 247.69 -2473.5 -24.06 -3000.14 -165.46 -3185.22 -351.19 -3407.36 -458.08 -3576.54 -635.76 -3884.32"/></g><g class="cls-6"><path class="cls-7" d="M-318-919H44.79l213.4,58.69L436.92-839l101.94-10,149.37,10,248.28-26.17,450.14-44.41,171.58-20.19,125.15-48.44,163.5-117.08,72.67-50.46,58.53,258.37,54.5,157.45v64.59L2622,693.14,2030.57,941.42s-137.27,115.06-339.12,163.51-323,32.29-454.17,48.44-551.07,56.52-551.07,56.52-153.4-14.13-274.52-10.09S98.82,1119.06-4.13,1121.08s-313.87,2-313.87,2Z"/><polyline class="cls-7" points="859.58 1192.95 1238.23 360.19 1455.69 -142.23 1613.16 -663.39 1683.38 -978.21"/><polyline class="cls-7" points="2515.63 737.79 2039.75 386.78 1741.74 211.91 1455.69 -142.23 1512.68 339.98 1630.9 901.53 1691.45 1104.93"/><path class="cls-7" d="M-318,905.52,49.92,701.16S307.59,641.92,429,567.88s622-414.65,622-414.65l404.69-295.46L689.66-63,660.54-75.64,395.6-73.36,37-142.23H-318"/><polyline class="cls-7" points="1846.88 -1095.29 1954.45 -666.29 2034.83 -408.75 2515.63 737.79"/><path class="cls-7" d="M2537.4,498.15s-243.73,103.15-393.57,165.5S1842.22,856.46,1630.9,901.53s-363.23,34.66-502.67,49.23-333,41.62-420.39,41.62-181.06-10.4-270.55,0S210.45,948.68,93.9,927.87-318,905.52-318,905.52"/><polyline class="cls-7" points="209.48 1164.55 173.59 -116 156.7 -888.25"/><path class="cls-7" d="M-318,346.5H47.64s263.87,70.91,362.28,72.84,183.31-7.71,299.09,0,200.67-16.62,389.77-36.29,443.68-20.83,584.6-71.76S2052,60.85,2309.73-26.58"/><polyline class="cls-7" points="665.96 -849.57 693.74 -556.48 739.05 -68.09 783.45 420.81 859.58 1192.95"/><line class="cls-7" x1="936.51" y1="-865.17" x2="1152" y2="1164.55"/><polyline class="cls-7" points="2256.24 846.69 2010.06 308.4 1846.88 -164.69 1717.97 -782.25 1683.38 -978.21"/></g><g class="cls-8"><path class="cls-9" d="M2281.7-1918.57c263,251.48,705.19,520.07,1303.52,580.68s1023.94-108.69,1393.06-478.92C4950.41-995.53,4744.68,49.85,4205.92,851,4008.46,419.07,3771.81,140.42,3297.68,2.4S2238.24-37.14,1781.2,179.75C2023.3-320.16,2294.2-1184.38,2281.7-1918.57Z"/><path class="cls-9" d="M1908.37-111.27C2965.19-517.21,4104-64.41,4378.4,566.28"/><path class="cls-9" d="M1682.73,3033.7c461.45-823.79,1434-2299.43,1796.56-3851.92s375.05-2916.62,391-4201.78"/></g><g class="cls-10"><path class="cls-11" d="M4175.77,37.39,3851.32,3.59,3655,36.19l-161.83,2.43-90.24-18.46-134.53-5L3048.78-31.34,2650.34-113l-151.57-34-107.41-55L2256-322l-60.29-51.9-76.43,225.62L2055.91-12.52l-6,57.77-653.73,1160L1902,1482.45s112,115.69,288.05,177.82,285.84,59,401.67,85.65,487.58,101.9,487.58,101.9,138.52,1.66,246.46,16.55,287.34-43.06,379.22-31.66,280.53,31,280.53,31Z"/><polyline class="cls-11" points="3748.36 20.68 3637.75 108.66 3499.21 198.88 3362.16 253.41 3227.63 326.45 2517.09 566.85 2262.69 633.39 1996.16 605.62 1973.77 585.47 1742.51 590.7"/><polyline class="cls-11" points="1487.13 1255.13 1945.44 985.54 2228.27 856.92 2517.09 566.85 2421.19 992.8 2263.13 1484.01 2190.03 1660.28"/><polyline class="cls-11" points="2256.04 -321.97 2119.86 51.68 2023.98 274.52 1487.13 1255.13"/><path class="cls-11" d="M1490,1038.78s208.36,115,336.56,184.68S2078.34,1424,2263.13,1484s321.63,64.85,445,90.87,293.92,68.25,372.1,76.39,162.9,7.57,242,25.21,206.95-17.94,313.13-25.7,370.46,18.4,370.46,18.4"/><path class="cls-11" d="M4057.85,1169.22l-327-34.08s-242.6,38.84-330.79,31.4-163.23-24-267.49-27.87-177.93-33.57-345.21-68.78-394.87-60-516.15-118.65S1964.86,692.9,1742.51,590.7"/><polyline class="cls-11" points="1708.98 1376.69 1979.3 918.21 2169.32 510.31 2342.16 -29.99 2391.36 -202.03"/></g></svg>