<svg id="Capa_1" data-name="Capa 1" xmlns="http://www.w3.org/2000/svg" xmlns:xlink="http://www.w3.org/1999/xlink" viewBox="0 0 1920 1080"><defs><style>.cls-1,.cls-3,.cls-5,.cls-7{fill:none;}.cls-2{clip-path:url(#clip-path);}.cls-3{stroke:#f1f1f1;stroke-width:0.75px;}.cls-3,.cls-5,.cls-7{stroke-miterlimit:10;}.cls-4{clip-path:url(#clip-path-2);}.cls-5,.cls-7{stroke:#fff;}.cls-6{clip-path:url(#clip-path-3);}.cls-7{stroke-width:0.5px;}</style><clipPath id="clip-path"><rect class="cls-1" x="-2198.5" y="-0.5" width="1920" height="1240"/></clipPath><clipPath id="clip-path-2"><rect class="cls-1" x="-2198.5" y="1472.5" width="1920" height="1240"/></clipPath><clipPath id="clip-path-3"><rect class="cls-1" x="-0.5" y="-0.5" width="1920" height="1240"/></clipPath></defs><title>BG-7</title><g class="cls-2"><polygon class="cls-3" points="209.12 -1353.71 196.9 -1231.23 214.61 -903.28 126.56 -584.64 -18.34 -119.77 -49.42 -54.89 -176.38 297.82 -363 724.34 -510 1106.68 -618.63 1450.64 -3458.87 659.54 -3308.49 248.49 -3163.85 -143.04 -3018.21 -489.33 -2889.78 -829.44 -2761.8 -1186.32 -2638.34 -1658.96 -2658.5 -1932.26 -2656.08 -2103.54 209.12 -1353.71"/><polyline class="cls-3" points="1579.79 -1738.45 209.12 -1353.71 41.34 -1229.26 -178.35 -1020.98 -304.14 -966.83 -698.35 -741.95 -1252.1 -424.66 -1800.64 -139.4 -2374.64 112.78 -2917.23 369.34 -3458.87 659.54 -4588.26 1287.57"/><polyline class="cls-3" points="-3482.36 -786.73 -1526.29 -279.37 400.33 214.02"/></g><g class="cls-4"><path class="cls-5" d="M-2516,554h362.79l213.4,58.69L-1761.08,634l101.94-10,149.37,10,248.28-26.17,450.14-44.41,171.58-20.19,125.15-48.44,163.5-117.08,72.67-50.46,58.53,258.37,54.5,157.45v64.59L424,2166.14l-591.43,248.28s-137.27,115.06-339.12,163.51-323,32.29-454.17,48.44-551.07,56.52-551.07,56.52-153.4-14.13-274.52-10.09-312.87-80.74-415.82-78.72-313.87,2-313.87,2Z"/><polyline class="cls-5" points="-2041.3 584.75 -1929.1 694.81 -1786.25 810.57 -1640.93 886.68 -1500.55 982.98 -742.31 1330.77 -468.58 1433.69 -170.56 1433.69 -143.47 1413.99 111.73 1446.42"/><polyline class="cls-5" points="-351.12 377.71 -243.55 806.71 -163.18 1064.25 317.63 2210.8"/><polyline class="cls-5" points="58.23 2319.69 -187.94 1781.4 -351.12 1308.31 -480.03 690.75 -514.62 494.79"/></g><g class="cls-6"><path class="cls-7" d="M83.7-445.57c263,251.48,705.19,520.07,1303.52,580.68S2411.16,26.42,2780.28-343.81c-27.87,821.28-233.6,1866.66-772.36,2667.77-197.46-431.89-434.11-710.54-908.24-848.56S40.24,1435.86-416.8,1652.75C-174.7,1152.84,96.2,288.62,83.7-445.57Z"/><path class="cls-7" d="M-181.37,1063.91c794.66-154,1944.77-3,2535.14,616.5"/><path class="cls-7" d="M-89.26,759.57c585.8-8.48,1952.61,178.32,2584.36,544.65"/><path class="cls-7" d="M-15.84,459.07c731,196.09,2306.35,429.66,2626,442"/><path class="cls-7" d="M36.66,176.24C682.69,437.65,1680,724.49,2694,496.83"/><path class="cls-7" d="M72.38-121.87C701.2,339,2070.78,576.78,2752.59,65.66"/><path class="cls-7" d="M418.47-188.73c-18.82,623.05-228,1204.8-412.86,1686.05"/><path class="cls-7" d="M419.36,1421.5c167.15-388,314.08-929.36,370.4-1427.19"/><path class="cls-7" d="M845.27,1424.45C990.11,1050.78,1134,537.61,1192.9,107.38"/><path class="cls-7" d="M1233.32,1520.43c190.5-429.57,323.3-966.49,377.61-1373.31"/><path class="cls-7" d="M1587.75,1726c246-547.44,383-1200.72,447.58-1628.12"/><path class="cls-7" d="M1837.2,2010C2221.51,1301.8,2369.89,512.71,2439.77-71.76"/><path class="cls-7" d="M-515.27,4506.7c461.45-823.79,1434-2299.43,1796.56-3851.92s375-2916.62,391-4201.78"/><path class="cls-7" d="M72.38-121.87C381.79,78.58,860.82,399.54,1270.22,804.46S2025.78,1700,2180.4,2039.28"/><path class="cls-7" d="M-289.63,1361.73C248.14,1187.94,850.82,967.92,1270.22,804.46s1299.62-562,1482.37-738.8"/></g></svg>