<svg id="Capa_1" data-name="Capa 1" xmlns="http://www.w3.org/2000/svg" xmlns:xlink="http://www.w3.org/1999/xlink" viewBox="0 0 1920 1080"><defs><style>.cls-1,.cls-3,.cls-4{fill:none;}.cls-2{clip-path:url(#clip-path);}.cls-3{stroke:#f1f1f1;}.cls-3,.cls-4{stroke-miterlimit:10;stroke-width:0.75px;}.cls-4{stroke:#ffb592;}</style><clipPath id="clip-path"><rect class="cls-1" x="-0.5" y="-2110.5" width="1920" height="1240"/></clipPath></defs><title>BG-9</title><g class="cls-2"><polyline class="cls-3" points="2242.17 -2895.59 1595.38 -2325.82 1536.52 -2213.88 1471.35 -2042.56 1416.93 -1980 1260.91 -1753.81 1042.11 -1435.32 817.73 -1135.68 570.78 -847.39 342.12 -564.97 122.81 -264.44 -328.46 374.71"/></g><polyline class="cls-4" points="938.2 541.7 1089.12 310.82 1246.32 541.7 938.2 541.7 1080.94 811.88 805.84 767.67 938.2 541.7 640.46 547.92 813.36 268.84 938.2 541.7"/><polygon class="cls-4" points="1080.94 811.88 1246.32 541.7 1318.37 770.94 1080.94 811.88"/><polygon class="cls-4" points="870.36 976.18 1080.94 811.88 1172.12 976.18 870.36 976.18"/><polygon class="cls-4" points="958.14 1054.09 870.36 976.18 690.4 976.18 958.14 1054.09"/><polygon class="cls-4" points="596.03 811.88 870.36 976.18 805.84 767.67 596.03 811.88"/><polygon class="cls-4" points="596.03 811.88 640.46 547.92 464.35 540.36 596.03 811.88"/><polygon class="cls-4" points="464.35 540.36 580.67 309.01 522.51 268.84 464.35 540.36"/><polygon class="cls-4" points="580.67 309.01 813.36 268.84 733.19 101.62 580.67 309.01"/><polygon class="cls-4" points="733.19 101.62 1032.76 101.62 958.14 25.91 733.19 101.62"/><polygon class="cls-4" points="1032.76 101.62 1089.12 310.82 813.36 268.84 1032.76 101.62"/><polyline class="cls-4" points="1089.12 310.82 1304.89 268.84 1246.32 541.7 1444.25 540.36 1318.37 770.94 1395.64 811.88 1172.12 976.18 958.14 1054.09"/><line class="cls-4" x1="1172.12" y1="976.18" x2="1318.37" y2="770.94"/><polyline class="cls-4" points="1395.64 811.88 1444.25 540.36 1304.89 268.84 1419.02 310.82 1444.25 540.36"/><polygon class="cls-4" points="1032.76 101.62 1304.89 268.84 1228.08 101.62 1032.76 101.62"/><polyline class="cls-4" points="958.14 25.91 1228.08 101.62 1419.02 310.82"/><line class="cls-4" x1="522.51" y1="268.84" x2="733.19" y2="101.62"/><polyline class="cls-4" points="464.35 540.36 500.56 775.37 596.03 811.88 690.4 976.18 500.56 775.37"/><polyline class="cls-4" points="580.67 309.01 640.46 547.92 805.84 767.67"/><line class="cls-4" x1="1092.4" y1="619.76" x2="1092.26" y2="642.55"/><line class="cls-4" x1="1103.72" y1="631.23" x2="1080.94" y2="631.08"/><line class="cls-4" x1="943.46" y1="694.38" x2="943.32" y2="717.17"/><line class="cls-4" x1="954.78" y1="705.85" x2="932" y2="705.7"/><line class="cls-4" x1="799.38" y1="608.37" x2="799.23" y2="631.16"/><line class="cls-4" x1="810.7" y1="619.84" x2="787.91" y2="619.69"/><line class="cls-4" x1="799.45" y1="439.38" x2="799.3" y2="462.16"/><line class="cls-4" x1="810.77" y1="450.84" x2="787.98" y2="450.7"/><line class="cls-4" x1="949.66" y1="362.59" x2="949.52" y2="385.37"/><line class="cls-4" x1="960.98" y1="374.05" x2="938.2" y2="373.91"/><line class="cls-4" x1="1092.48" y1="453.9" x2="1092.33" y2="476.68"/><line class="cls-4" x1="1103.8" y1="465.36" x2="1081.01" y2="465.22"/><line class="cls-4" x1="1212.67" y1="362.66" x2="1212.52" y2="385.45"/><line class="cls-4" x1="1223.99" y1="374.13" x2="1201.2" y2="373.98"/><line class="cls-4" x1="1334.15" y1="438.65" x2="1334" y2="461.44"/><line class="cls-4" x1="1345.47" y1="450.12" x2="1322.68" y2="449.97"/><line class="cls-4" x1="1393.55" y1="362.73" x2="1393.41" y2="385.52"/><line class="cls-4" x1="1404.87" y1="374.2" x2="1382.09" y2="374.05"/><line class="cls-4" x1="1444.33" y1="453.82" x2="1444.18" y2="476.61"/><line class="cls-4" x1="1455.65" y1="465.29" x2="1432.86" y2="465.14"/><line class="cls-4" x1="1318.44" y1="215.52" x2="1318.29" y2="238.31"/><line class="cls-4" x1="1329.76" y1="226.99" x2="1306.97" y2="226.84"/><line class="cls-4" x1="1142.89" y1="219.87" x2="1142.75" y2="242.66"/><line class="cls-4" x1="1154.21" y1="231.34" x2="1131.43" y2="231.19"/><line class="cls-4" x1="1189.88" y1="145.58" x2="1189.73" y2="168.36"/><line class="cls-4" x1="1201.2" y1="157.04" x2="1178.41" y2="156.9"/><line class="cls-4" x1="1074.8" y1="63.77" x2="1074.65" y2="86.55"/><line class="cls-4" x1="1086.12" y1="75.23" x2="1063.33" y2="75.09"/><line class="cls-4" x1="978.44" y1="219.8" x2="978.3" y2="242.58"/><line class="cls-4" x1="989.76" y1="231.26" x2="966.98" y2="231.12"/><line class="cls-4" x1="861.08" y1="149.6" x2="860.94" y2="172.38"/><line class="cls-4" x1="872.4" y1="161.07" x2="849.62" y2="160.92"/><line class="cls-4" x1="708.48" y1="215.6" x2="708.33" y2="238.38"/><line class="cls-4" x1="719.8" y1="227.06" x2="697.01" y2="226.92"/><line class="cls-4" x1="612.6" y1="215.67" x2="612.45" y2="238.46"/><line class="cls-4" x1="623.92" y1="227.14" x2="601.13" y2="226.99"/><line class="cls-4" x1="522.58" y1="362.73" x2="522.44" y2="385.52"/><line class="cls-4" x1="533.9" y1="374.2" x2="511.12" y2="374.05"/><line class="cls-4" x1="563.87" y1="453.9" x2="563.73" y2="476.68"/><line class="cls-4" x1="575.19" y1="465.36" x2="552.41" y2="465.22"/><line class="cls-4" x1="675.63" y1="362.59" x2="675.48" y2="385.37"/><line class="cls-4" x1="686.95" y1="374.05" x2="664.16" y2="373.91"/><line class="cls-4" x1="569.35" y1="619.84" x2="569.2" y2="642.62"/><line class="cls-4" x1="580.67" y1="631.3" x2="557.88" y2="631.16"/><line class="cls-4" x1="519.87" y1="694.46" x2="519.72" y2="717.24"/><line class="cls-4" x1="531.19" y1="705.92" x2="508.4" y2="705.78"/><line class="cls-4" x1="681.94" y1="694.53" x2="681.79" y2="717.32"/><line class="cls-4" x1="693.26" y1="706" x2="670.47" y2="705.85"/><line class="cls-4" x1="596.1" y1="842.89" x2="595.96" y2="865.68"/><line class="cls-4" x1="607.42" y1="854.36" x2="584.64" y2="854.21"/><line class="cls-4" x1="718.37" y1="910.27" x2="718.22" y2="933.05"/><line class="cls-4" x1="729.69" y1="921.73" x2="706.9" y2="921.59"/><line class="cls-4" x1="756.04" y1="842.82" x2="755.89" y2="865.61"/><line class="cls-4" x1="767.36" y1="854.29" x2="744.57" y2="854.14"/><line class="cls-4" x1="914.32" y1="842.75" x2="914.18" y2="865.53"/><line class="cls-4" x1="925.64" y1="854.21" x2="902.86" y2="854.07"/><line class="cls-4" x1="839.35" y1="992.35" x2="839.2" y2="1015.14"/><line class="cls-4" x1="850.67" y1="1003.82" x2="827.88" y2="1003.67"/><line class="cls-4" x1="1000.18" y1="992.28" x2="1000.03" y2="1015.06"/><line class="cls-4" x1="1011.5" y1="1003.74" x2="988.71" y2="1003.6"/><line class="cls-4" x1="1040.02" y1="910.27" x2="1039.88" y2="933.05"/><line class="cls-4" x1="1051.34" y1="921.73" x2="1028.56" y2="921.59"/><line class="cls-4" x1="1193.62" y1="842.67" x2="1193.47" y2="865.46"/><line class="cls-4" x1="1204.94" y1="854.14" x2="1182.15" y2="853.99"/><line class="cls-4" x1="1249.4" y1="910.19" x2="1249.26" y2="932.98"/><line class="cls-4" x1="1260.72" y1="921.66" x2="1237.94" y2="921.51"/><line class="cls-4" x1="1297.23" y1="842.6" x2="1297.08" y2="865.39"/><line class="cls-4" x1="1308.55" y1="854.07" x2="1285.76" y2="853.92"/><line class="cls-4" x1="1216.41" y1="694.46" x2="1216.26" y2="717.24"/><line class="cls-4" x1="1227.73" y1="705.92" x2="1204.94" y2="705.78"/><line class="cls-4" x1="1338.83" y1="608.37" x2="1338.69" y2="631.16"/><line class="cls-4" x1="1350.15" y1="619.84" x2="1327.37" y2="619.69"/><line class="cls-4" x1="1388.82" y1="694.53" x2="1388.67" y2="717.32"/><line class="cls-4" x1="1400.14" y1="706" x2="1377.35" y2="705.85"/><line class="cls-4" x1="1432.93" y1="619.69" x2="1432.79" y2="642.48"/><line class="cls-4" x1="1444.25" y1="631.16" x2="1421.47" y2="631.01"/><line class="cls-4" x1="1103.8" y1="992.2" x2="1103.65" y2="1014.99"/><line class="cls-4" x1="1115.12" y1="1003.67" x2="1092.33" y2="1003.52"/><line class="cls-4" x1="667.66" y1="145.5" x2="667.51" y2="168.29"/><line class="cls-4" x1="678.98" y1="156.97" x2="656.19" y2="156.82"/><line class="cls-4" x1="910.35" y1="63.69" x2="910.2" y2="86.48"/><line class="cls-4" x1="921.67" y1="75.16" x2="898.88" y2="75.01"/><line class="cls-4" x1="813.43" y1="58.32" x2="813.28" y2="81.1"/><line class="cls-4" x1="824.75" y1="69.78" x2="801.96" y2="69.64"/></svg>