<svg id="Capa_1" data-name="Capa 1" xmlns="http://www.w3.org/2000/svg" viewBox="0 0 400 50"><defs><style>.cls-1{fill:#1a171b;}</style></defs><title>Cultura-Fonca-nuevo</title><path class="cls-1" d="M218,8.7a9.5,9.5,0,0,0,0,19Z"/><polygon class="cls-1" points="228.77 13.66 223.59 13.66 223.59 15.57 226.92 15.57 226.92 20.87 223.59 20.87 223.59 27.72 237.23 27.72 227.75 8.66 227.75 8.66 228.77 13.66"/><path class="cls-1" d="M265.47,28.07c-5.86,0-8.25-4.68-8.25-9.27,0-5.24,3.31-9.33,8.25-9.33,5.86,0,8.29,4.73,8.29,9.33,0,5.26-3.4,9.27-8.29,9.27m-.18-14.5c-2.81,0-3,3-3,4.75,0,2.05.12,5.85,3.34,5.85,2.83,0,3-3.14,3-5,0-2-.06-5.63-3.33-5.63"/><polygon class="cls-1" points="286.51 27.65 280.11 18.25 280.25 27.65 275.49 27.65 275.49 10.04 280.25 10.04 286.45 19.06 286.23 10.04 290.98 10.04 290.98 27.65 286.51 27.65"/><path class="cls-1" d="M320.69,27.76l-1.12-3.64h-5.21l-1.22,3.64-4.9-.11L314.88,10h4.72l6,17.61ZM317,15.45l-1.48,5h3Z"/><path class="cls-1" d="M301.91,28.07c-5.32,0-8.83-2.75-8.83-9.38,0-5.8,3.63-9.13,9.48-9.13a10,10,0,0,1,4.31.94l-1.46,3.62a8.65,8.65,0,0,0-2.85-.62c-1.91,0-4.44,1.09-4.44,5.11,0,4.61,2.05,5.44,3.89,5.44a10.4,10.4,0,0,0,3.58-.74L307,27.12a12.23,12.23,0,0,1-5,.95"/><polygon class="cls-1" points="255.92 14.12 255.92 10.04 244.07 10.04 244.01 27.65 249.02 27.65 249.02 21.03 255.25 21.03 255.25 17.07 249.02 17.07 249.02 14.12 255.92 14.12"/><path class="cls-1" d="M67.07,25.34c.19-.78.48-1.84.8-3.33a18.89,18.89,0,0,1,2.37.11c.07,1,.07,2.79.07,3.77l-.34.72a12.13,12.13,0,0,1-6.59,1.84c-5.69,0-9.28-3.59-9.28-9.5A9.49,9.49,0,0,1,63.85,9a13.39,13.39,0,0,1,6.2,1.54l.37.72c-.21,1.38-.56,3.27-.8,4.6a12.77,12.77,0,0,1-2.2-.11c-.24-1.59-.54-3-.67-3.77a6.26,6.26,0,0,0-3.06-.7,6.59,6.59,0,0,0-3.82,1.07,9.71,9.71,0,0,0-2.08,6.35c0,4.44,2.18,7.31,6,7.31a6,6,0,0,0,3.32-.71"/><path class="cls-1" d="M83,28.47c-5.26,0-7.76-3-7.76-9.14V16.4c0-1.59,0-4.38-.27-4.73a6,6,0,0,0-2.28-.9L73,9.44h8.11l.29,1.33-2.42.69c-.08.45-.19,3.64-.19,4.94v3c0,4.33,1.31,6.67,5,6.67a5,5,0,0,0,4-1.65,25,25,0,0,0,.61-7.15,39.09,39.09,0,0,0-.19-5.69,12.51,12.51,0,0,0-2.55-.82l.29-1.33h7.29l.29,1.33-2.5.71c-.08,1.81-.13,4.31-.13,8.78,0,5.5-3.09,8.21-7.82,8.21"/><path class="cls-1" d="M98.06,26c.08-.46.16-3.65.16-5V16.27A24.11,24.11,0,0,0,98,11.64a6.82,6.82,0,0,0-2.34-.87L96,9.44h8l.3,1.33-2.4.69c-.08.45-.16,3.64-.16,5v4.78c0,1.81,0,4.31.27,4.68a9,9,0,0,0,3.16.32c1.07,0,2.18-.05,3-.13l.82-3.54a13.12,13.12,0,0,1,2.26.11c.06,1.7,0,3.54,0,5.4H96l-.3-1.33Z"/><path class="cls-1" d="M117.55,26c0-.46.13-2.87.13-5V11.22h-.48a27.78,27.78,0,0,0-3.22.16l-.77,3.45a16.22,16.22,0,0,1-2.31-.08c-.05-1.7-.05-3.53,0-5.31h9c3.14,0,5.69,0,7.68-.16.16.21.51.66.64.87-.08,1.41-.26,3.09-.45,4.63a13.34,13.34,0,0,1-2.1,0L125,11.38a27.14,27.14,0,0,0-3.11-.14h-.69v10a25.18,25.18,0,0,0,.21,4.63,6.47,6.47,0,0,0,2.34.88l-.29,1.33h-8l-.29-1.33Z"/><path class="cls-1" d="M140.38,28.47c-5.26,0-7.76-3-7.76-9.14V16.4c0-1.59,0-4.38-.27-4.73a6.1,6.1,0,0,0-2.29-.9l.3-1.33h8.11l.29,1.33-2.42.69c-.08.45-.19,3.64-.19,4.94v3c0,4.33,1.31,6.67,4.95,6.67a5,5,0,0,0,4-1.65,25,25,0,0,0,.61-7.15,39.09,39.09,0,0,0-.19-5.69,12.51,12.51,0,0,0-2.55-.82l.29-1.33h7.29l.29,1.33-2.5.71c-.08,1.81-.13,4.31-.13,8.78,0,5.5-3.09,8.21-7.82,8.21"/><path class="cls-1" d="M155.47,26c.08-.46.16-3.65.16-5V16.27a24.11,24.11,0,0,0-.22-4.63,6.82,6.82,0,0,0-2.34-.87l.3-1.33h3.85c.93,0,3.88-.16,5.16-.16,4.47,0,7.12,1.73,7.12,5.18a5.53,5.53,0,0,1-3.42,4.79c1.11,2.2,3.13,5.9,3.74,6.78l2.05.69-.29,1.33c-1.46,0-2.79.05-4.71.1-.58-1.35-2.52-5.23-3.88-7.81h-3.91v.87a25.18,25.18,0,0,0,.21,4.63,6.88,6.88,0,0,0,2.34.88l-.29,1.33h-8l-.3-1.33Zm3.61-7.82,4.79.16a4.33,4.33,0,0,0,2-3.75,3.76,3.76,0,0,0-.95-2.71,5.77,5.77,0,0,0-3.17-.72,14.66,14.66,0,0,0-2.55.27c-.08.53-.16,3.64-.16,5Z"/><path class="cls-1" d="M180.77,28.05h-7.31l-.27-1.33,2.16-.69c1.8-4.36,3.61-9.31,5.34-14l.77-2.6c1.28-.16,3.3-.3,4.5-.32a26.29,26.29,0,0,0,1,3c1.75,4.83,3.85,10.44,5.23,13.93l2.18.69-.29,1.33H186l-.27-1.33,2.63-.69c-.45-1.2-1-2.61-1.48-4.18l-7.16.14c-.48,1.38-.93,2.76-1.35,4l2.68.69ZM186.22,20c-.93-2.6-2-5.48-3.06-8.35-.95,2.69-1.88,5.51-2.79,8.27Z"/><path class="cls-1" d="M55.07,39.63a2.21,2.21,0,0,1-.69-.32l.31-.68a1.91,1.91,0,0,0,.59.29A2.09,2.09,0,0,0,56,39a1,1,0,0,0,.56-.12.32.32,0,0,0,.19-.3.3.3,0,0,0-.11-.23.82.82,0,0,0-.28-.15l-.46-.12a6.64,6.64,0,0,1-.72-.21,1.18,1.18,0,0,1-.49-.34.92.92,0,0,1-.2-.62,1.09,1.09,0,0,1,.18-.61,1.26,1.26,0,0,1,.56-.44,2.16,2.16,0,0,1,.9-.16,2.9,2.9,0,0,1,.72.09,1.84,1.84,0,0,1,.62.26l-.27.68a2.12,2.12,0,0,0-1.08-.31,1,1,0,0,0-.56.12.39.39,0,0,0-.18.33.31.31,0,0,0,.21.29,2.78,2.78,0,0,0,.64.19,6.64,6.64,0,0,1,.72.21,1.39,1.39,0,0,1,.49.34.9.9,0,0,1,.2.61,1.07,1.07,0,0,1-.18.61,1.33,1.33,0,0,1-.56.44,2.43,2.43,0,0,1-.91.16,3.36,3.36,0,0,1-.89-.13"/><polygon class="cls-1" points="62.03 38.97 62.03 39.69 59.02 39.69 59.02 35.81 61.96 35.81 61.96 36.53 59.91 36.53 59.91 37.37 61.72 37.37 61.72 38.07 59.91 38.07 59.91 38.97 62.03 38.97"/><path class="cls-1" d="M64.24,39.5a2,2,0,0,1-.76-.72,2,2,0,0,1-.27-1,1.9,1.9,0,0,1,1-1.75,2.27,2.27,0,0,1,1.08-.26,2.24,2.24,0,0,1,.91.18,1.82,1.82,0,0,1,.68.51l-.57.53a1.25,1.25,0,0,0-1-.45,1.34,1.34,0,0,0-.64.15,1.12,1.12,0,0,0-.44.45,1.22,1.22,0,0,0-.16.64,1.24,1.24,0,0,0,.16.64,1,1,0,0,0,.44.44,1.24,1.24,0,0,0,.64.16,1.23,1.23,0,0,0,1-.46l.57.53a1.75,1.75,0,0,1-.68.52,2.29,2.29,0,0,1-.92.18,2.26,2.26,0,0,1-1.07-.26"/><path class="cls-1" d="M70.72,39.69,70,38.61h-.83v1.08h-.9V35.81h1.68a2.22,2.22,0,0,1,.9.17,1.28,1.28,0,0,1,.58.49,1.32,1.32,0,0,1,.21.75,1.27,1.27,0,0,1-.8,1.22l.87,1.25Zm-.23-3a1,1,0,0,0-.62-.17h-.73v1.35h.73a1,1,0,0,0,.62-.17.63.63,0,0,0,.21-.5.64.64,0,0,0-.21-.51"/><polygon class="cls-1" points="76.09 38.97 76.09 39.69 73.08 39.69 73.08 35.81 76.01 35.81 76.01 36.53 73.97 36.53 73.97 37.37 75.78 37.37 75.78 38.07 73.97 38.07 73.97 38.97 76.09 38.97"/><polygon class="cls-1" points="78.42 36.54 77.17 36.54 77.17 35.81 80.56 35.81 80.56 36.54 79.31 36.54 79.31 39.69 78.42 39.69 78.42 36.54"/><path class="cls-1" d="M84,38.86h-1.8l-.35.83H80.9l1.73-3.88h.89l1.74,3.88h-1Zm-.28-.68-.62-1.49-.62,1.49Z"/><path class="cls-1" d="M88.91,39.69l-.75-1.08h-.82v1.08h-.9V35.81h1.68A2.21,2.21,0,0,1,89,36a1.3,1.3,0,0,1,.59.49,1.32,1.32,0,0,1,.21.75,1.29,1.29,0,0,1-.21.74,1.34,1.34,0,0,1-.59.48l.87,1.25Zm-.23-3a1,1,0,0,0-.61-.17h-.73v1.35h.73a1,1,0,0,0,.61-.17.61.61,0,0,0,.22-.5.61.61,0,0,0-.22-.51"/><path class="cls-1" d="M92,34.69h.93l-1,.8h-.68Zm-.69,1.12h.9v3.88h-.9Z"/><path class="cls-1" d="M96.43,38.86h-1.8l-.35.83h-.92l1.73-3.88H96l1.74,3.88h-1Zm-.28-.68-.62-1.49-.61,1.49Z"/><path class="cls-1" d="M101.24,35.81H103a2.52,2.52,0,0,1,1.12.24,1.83,1.83,0,0,1,.75.68,2.06,2.06,0,0,1,0,2,1.83,1.83,0,0,1-.75.68,2.52,2.52,0,0,1-1.12.24h-1.77ZM103,39a1.33,1.33,0,0,0,.93-.32,1.28,1.28,0,0,0,0-1.76,1.28,1.28,0,0,0-.93-.32h-.82V39Z"/><polygon class="cls-1" points="109.59 38.97 109.59 39.69 106.58 39.69 106.58 35.81 109.52 35.81 109.52 36.53 107.47 36.53 107.47 37.37 109.28 37.37 109.28 38.07 107.47 38.07 107.47 38.97 109.59 38.97"/><path class="cls-1" d="M114.21,39.5a1.86,1.86,0,0,1-.75-.72,1.9,1.9,0,0,1-.28-1,1.93,1.93,0,0,1,.28-1,1.9,1.9,0,0,1,.75-.71,2.27,2.27,0,0,1,1.08-.26,2.21,2.21,0,0,1,.91.18,1.94,1.94,0,0,1,.69.51l-.58.53a1.25,1.25,0,0,0-1-.45,1.34,1.34,0,0,0-.64.15,1.12,1.12,0,0,0-.44.45,1.22,1.22,0,0,0-.16.64,1.24,1.24,0,0,0,.16.64,1,1,0,0,0,.44.44,1.24,1.24,0,0,0,.64.16,1.23,1.23,0,0,0,1-.46l.58.53a1.86,1.86,0,0,1-.69.52,2.29,2.29,0,0,1-.92.18,2.26,2.26,0,0,1-1.07-.26"/><path class="cls-1" d="M118.61,39.3a1.82,1.82,0,0,1-.46-1.32V35.81h.9V38c0,.69.29,1,.86,1a.81.81,0,0,0,.65-.25,1.17,1.17,0,0,0,.22-.79V35.81h.89V38a1.79,1.79,0,0,1-.47,1.32,1.77,1.77,0,0,1-1.29.46,1.81,1.81,0,0,1-1.3-.46"/><polygon class="cls-1" points="123.31 35.81 124.21 35.81 124.21 38.96 126.16 38.96 126.16 39.69 123.31 39.69 123.31 35.81"/><polygon class="cls-1" points="127.79 36.54 126.55 36.54 126.55 35.81 129.93 35.81 129.93 36.54 128.69 36.54 128.69 39.69 127.79 39.69 127.79 36.54"/><path class="cls-1" d="M131.6,39.3a1.79,1.79,0,0,1-.47-1.32V35.81h.9V38c0,.69.29,1,.87,1a.8.8,0,0,0,.64-.25,1.17,1.17,0,0,0,.22-.79V35.81h.89V38a1.83,1.83,0,0,1-3.05,1.32"/><path class="cls-1" d="M138.77,39.69,138,38.61h-.83v1.08h-.9V35.81H138a2.22,2.22,0,0,1,.9.17,1.28,1.28,0,0,1,.58.49,1.32,1.32,0,0,1,.21.75,1.27,1.27,0,0,1-.8,1.22l.87,1.25Zm-.23-3a1,1,0,0,0-.62-.17h-.73v1.35h.73a1,1,0,0,0,.62-.17.63.63,0,0,0,.21-.5.64.64,0,0,0-.21-.51"/><path class="cls-1" d="M143.84,38.86H142l-.34.83h-.92l1.73-3.88h.89l1.73,3.88h-.94Zm-.28-.68L143,36.69l-.62,1.49Z"/><path class="cls-1" d="M40.8,22.8A9.74,9.74,0,0,0,40,19.63a.31.31,0,0,0-.28-.12.16.16,0,0,0-.15.06v.12a11.25,11.25,0,0,1,.69,2.93,4.82,4.82,0,0,1-.29,2,6.8,6.8,0,0,0,0,1.56c0,.21-.1.31-.19.31s-.19-.08-.21-.32c0-.6-.06-1.11-.07-1.56v0a9.85,9.85,0,0,0-.21-2.15,4.36,4.36,0,0,0-1-1.56,4.6,4.6,0,0,1-.56-1.2c0-.09,0-.18-.07-.29a2.92,2.92,0,0,0-.1-.35l-.2-.66a.16.16,0,0,0-.14-.07.38.38,0,0,0-.28.15.25.25,0,0,0,0,.2l.57,1.92a3.42,3.42,0,0,0,.69,1h0a6.57,6.57,0,0,1,.43.52,1.62,1.62,0,0,1,.32.91c.1.65.17,1.59.24,2.94l.39,1.94A6.4,6.4,0,0,1,39.45,30c0,.29,0,.38,0,.42h0s.13,0,.34-.22c.54-.66.51-2.88.48-4.67a8,8,0,0,1,.26-1.45,4.39,4.39,0,0,0,.18-1.31"/><path class="cls-1" d="M38.87,19.87l0-.34a.57.57,0,0,0-.44-.47.3.3,0,0,0-.12,0h-.05s0,0,0,.08A3,3,0,0,0,39.13,21l.07,0h0a.38.38,0,0,0,0-.2L39,20.2a1,1,0,0,1-.09-.33"/><path class="cls-1" d="M36.49,25.05h0c-.09,0-.18-.09-.22-.22a5.52,5.52,0,0,1-.47-1.7c-.05-.24-.1-.47-.17-.71A1.86,1.86,0,0,0,35,21.36a5.3,5.3,0,0,1-1.6-2.12c-.09-.19-.2-.31-.28-.31S33,19,33,19a.43.43,0,0,0,0,.4,5,5,0,0,0,.69,1.26,1.41,1.41,0,0,0,.3.3L34,21A5.48,5.48,0,0,1,35,22,2.41,2.41,0,0,1,35.31,23c0,.08,0,.16,0,.24v.05a9.6,9.6,0,0,0,1,2.73,3.64,3.64,0,0,1,.27.89l.17,1.15c0,.3.15.38.2.37l.05,0a.42.42,0,0,0,.08-.32A22,22,0,0,0,37,24.67,7,7,0,0,0,36.22,22a.35.35,0,0,0-.27-.19h0A.41.41,0,0,0,36,22a8.19,8.19,0,0,1,.65,2.75.31.31,0,0,1-.07.27Z"/><path class="cls-1" d="M34.38,19.16a.24.24,0,0,0-.24-.18c-.08,0-.14,0-.15.07v.06a2.92,2.92,0,0,0,.84,1.41l.1.06,0,0s0-.06,0-.14a3.3,3.3,0,0,1-.54-1.26"/><path class="cls-1" d="M38.09,25.15h0c-.05,0-.13,0-.21-.19a.71.71,0,0,1-.07-.26l-.32-2a3.52,3.52,0,0,0-.74-1.53,6.94,6.94,0,0,1-1.44-2.44c-.07-.28-.17-.35-.21-.35s-.11.08-.13.24A.66.66,0,0,0,35,19a5,5,0,0,0,1.27,2.28,1.91,1.91,0,0,1,.67,1.2v0c.05.24.1.47.14.71h0a15.94,15.94,0,0,0,.83,3.09,2.89,2.89,0,0,1,.23.92c0,.74.08,1.19.12,1.57s.13.43.2.43.13-.11.17-.38a17.74,17.74,0,0,0,0-3.75,12.35,12.35,0,0,0-.26-2A2.09,2.09,0,0,0,38,22.2c-.12-.14-.18-.17-.21-.18a.44.44,0,0,0,0,.2,15.92,15.92,0,0,1,.44,2.58.4.4,0,0,1-.07.31Z"/><path class="cls-1" d="M36.82,20.35a3.55,3.55,0,0,1-.37-.88l-.1-.5a.41.41,0,0,0-.11-.25.44.44,0,0,0-.3-.15.14.14,0,0,0-.11,0,.16.16,0,0,0,0,.14,3.45,3.45,0,0,0,1,1.86h0s.06.06.1.06h0a.34.34,0,0,0,0-.11.58.58,0,0,0-.1-.21"/><path class="cls-1" d="M34.68,25l0,0,.12.37a.8.8,0,0,0,.15.29c.05.06.1.09.14.08s.1-.07.11-.11a.66.66,0,0,0,0-.29c-.11-2-.38-3.12-.88-3.67-.11-.11-.16-.11-.16-.11s0,0,0,.09a.37.37,0,0,0,.07.2,3.16,3.16,0,0,1,.31.91.31.31,0,0,1,0,.26l-.05,0h0c-.08,0-.16-.08-.22-.22a2.43,2.43,0,0,0-1-1.26,6.38,6.38,0,0,1-1.51-1.16,3.82,3.82,0,0,1-.41-.63.15.15,0,0,0-.09-.1c-.08,0-.19.13-.22.27a.18.18,0,0,0,0,.17,3,3,0,0,0,1.28,1.34A3.46,3.46,0,0,1,34,23.24c.33.78.52,1.39.65,1.79"/><path class="cls-1" d="M32,19.5a.23.23,0,0,0-.19.08v0a2.63,2.63,0,0,0,1,1l.1,0h0s0-.05-.06-.11a3.14,3.14,0,0,1-.69-.95.23.23,0,0,0-.2-.1"/><path class="cls-1" d="M30.19,21.52l.06,0a4.88,4.88,0,0,1,.58.24,1.56,1.56,0,0,1,.52.34,8.1,8.1,0,0,1,1,1.22l.06.07a10,10,0,0,0,.83,1.07.18.18,0,0,0,.15.08s.08,0,.1,0a.18.18,0,0,0,0-.18,12.57,12.57,0,0,0-.89-2.13.47.47,0,0,0-.4-.2h0v0l.21.39,0,.09v0a.14.14,0,0,1-.1.07h0l-.08,0h0l0,0a3.32,3.32,0,0,0-.55-.66,1,1,0,0,0-.32-.22c-.2-.09-.45-.18-.74-.29a4.14,4.14,0,0,1-.54-.33c-.18-.15-.37-.32-.58-.52a.19.19,0,0,0-.11,0,.09.09,0,0,0-.09.05.32.32,0,0,0,0,.27,1.73,1.73,0,0,0,.58.56,1.84,1.84,0,0,0,.34.14"/><path class="cls-1" d="M37.52,29.46c-.53-.33-.9-.57-1.2-.78-2.06-1.56-4.15-3.07-6.37-4.61a.28.28,0,0,0-.12-.05s0,0,0,0a.43.43,0,0,0,.21.39l6.66,4.88.07.05a.6.6,0,0,1,.25.21c0,.05.07.18-.12.32a1.4,1.4,0,0,1-.65.17,1.87,1.87,0,0,1-1.14-.44c-1.77-1.39-3.54-2.81-5.18-4.14a.24.24,0,0,0-.12-.05l0,0a.25.25,0,0,0,0,.25.41.41,0,0,0,.17.24c1.73,1.39,3.45,2.8,5.13,4.19a2.2,2.2,0,0,0,1.13.3,2.23,2.23,0,0,0,1.4-.57.29.29,0,0,0-.06-.42"/><path class="cls-1" d="M35,29.12a4.53,4.53,0,0,0,.76.47.31.31,0,0,0,.15,0s.07,0,.08,0,0-.09-.1-.17L30,24.83l-.08,0,0,0c0,.05,0,.19.17.34Z"/><path class="cls-1" d="M33.59,29.38l-3.87-3.24a.24.24,0,0,0-.12,0h0s0,.13.11.23c1.12,1,2.34,2.1,3.62,3.18a3.5,3.5,0,0,0,.52.39A.42.42,0,0,0,34,30c.07,0,.13,0,.14-.07s0,0,0-.07Z"/><path class="cls-1" d="M30.6,20.94h.13v-.07a1.06,1.06,0,0,0-.17-.26.61.61,0,0,0-.3-.2,1,1,0,0,0-.21,0,.1.1,0,0,0-.08,0l0,.07a1.85,1.85,0,0,0,.61.47"/><path class="cls-1" d="M34.31,30.8a1.12,1.12,0,0,0,.58-.16q.07-.08.06-.12s0-.08-.1-.11h-.09a.32.32,0,0,0-.12,0h-.06l-.26,0a1.35,1.35,0,0,1-.88-.33c-.95-.8-1.69-1.48-2.35-2.09L31,28c-.5-.45-1-.88-1.47-1.32a.16.16,0,0,0-.1,0h0s0,.07,0,.12,0,.07.11.15l.23.23c1.16,1.09,2.21,2.08,3.3,3.05a2.54,2.54,0,0,0,.77.55,1.7,1.7,0,0,0,.48.06"/><path class="cls-1" d="M29.07,27.05c.85.93,1.75,1.85,2.75,2.8a1.37,1.37,0,0,0,.69.41l.05,0-.07-.08c-.89-.75-1.83-1.69-2.63-2.5l-.16-.17-.06-.05a3,3,0,0,0-.51-.49h-.08a.12.12,0,0,0,0,.11"/><path class="cls-1" d="M32.92,31a1.3,1.3,0,0,0,.22,0s.06,0,0-.08a.17.17,0,0,0-.17-.13,1.91,1.91,0,0,1-1.11-.42c-1-.95-2-1.94-3-2.95a.14.14,0,0,0-.1-.05h0a.5.5,0,0,0,.06.28,1,1,0,0,0,.15.19l0,0c.56.59,1.31,1.34,2.26,2.27a3.48,3.48,0,0,0,.93.71,1.65,1.65,0,0,0,.72.19"/><path class="cls-1" d="M31.45,30.65c.05,0,.07,0,.07,0a.23.23,0,0,0-.19-.2c-.47-.08-1.08-.77-1.74-1.51l-.34-.39-.07,0-.05.06a.11.11,0,0,0,0,.12l1.37,1.58a1.27,1.27,0,0,0,.94.42Z"/><path class="cls-1" d="M14.21,13.76h0a.72.72,0,0,1,.19,0,.5.5,0,0,1,.21,0l.12,0a.2.2,0,0,0,.15-.06,1.49,1.49,0,0,1,.52-.4,1.09,1.09,0,0,1,.25,0,.87.87,0,0,1,.55.2c.07.08.1.16.07.22s-.09.1-.21.12h-.21a2.28,2.28,0,0,0-.55.08.91.91,0,0,0-.71,1h0c0,.09,0,.32-.19.32s-.14,0-.24-.12a1,1,0,0,1-.34-.71.92.92,0,0,1,.38-.65m-.61.43a.76.76,0,0,0-.08.69,1.47,1.47,0,0,0,1.47,1h0c.17,0,.3,0,.33-.12s0-.15-.09-.19a.85.85,0,0,1-.35-.94.94.94,0,0,1,.92-.56.78.78,0,0,1,.27,0,1.08,1.08,0,0,0,.55-.16,1.28,1.28,0,0,1,.77-.35.87.87,0,0,1,.36.08h0a.25.25,0,0,1,0,.38.58.58,0,0,1-.32.16,1.75,1.75,0,0,0-.62.27s0,.08,0,.1,0,0,.16.05l.21,0a.57.57,0,0,0,.22,0,4.49,4.49,0,0,0,1.16-.73c.12-.11.12-.19,0-.31a1.47,1.47,0,0,0-1-.44,2.07,2.07,0,0,0-.41.07,3.16,3.16,0,0,1-.56.07,1,1,0,0,1-.39-.05l-.82-.24a.82.82,0,0,0-.36-.07.45.45,0,0,0-.32.12l0,0a.31.31,0,0,0,.09.06.19.19,0,0,1,.08.2c0,.1-.15.12-.24.13h-.19a.32.32,0,0,0-.25.09,2.73,2.73,0,0,0-.54.68"/><path class="cls-1" d="M15,12.41a2.51,2.51,0,0,0,.57.22h.06a.19.19,0,0,0,.16-.1A1,1,0,0,0,16,12a1.55,1.55,0,0,1,.35-.67l.08-.1a.82.82,0,0,0,.23-.41.59.59,0,0,0-.2-.71v.14a1.67,1.67,0,0,1-.75,1.18l-.17.11a3.41,3.41,0,0,0-.45.37.43.43,0,0,0-.18.31.18.18,0,0,0,.09.15"/><path class="cls-1" d="M16.47,11.66c-.07,0-.11,0-.08.07.27.48.15.66-.26.85-.15,0-.06.19.07.17a.21.21,0,0,0,.13,0,.62.62,0,0,0,.35-.92c-.07-.13-.16-.16-.21-.15"/><path class="cls-1" d="M17.08,10.73c.07,0,.11-.12.13-.22s0-.39.17-.42.08.18.14.21.09,0,.11-.09a.83.83,0,0,0-.28-.66l0,0s0,0,0,.08a3.84,3.84,0,0,0-.21,1c0,.07,0,.09,0,.1"/><path class="cls-1" d="M17,11.42h0c1.1-.51,1.33-1.17,1.37-1.52A1,1,0,0,0,18.16,9h0a1.59,1.59,0,0,1-.29,1.44c-.24.2-.53.42-.82.63l-.12.09a.09.09,0,0,0-.05.11.19.19,0,0,0,.17.11"/><path class="cls-1" d="M18.39,11.48a3.63,3.63,0,0,1-.84.5,1,1,0,0,0-.44.29.17.17,0,0,0,0,.07h.05a4.82,4.82,0,0,0,1.56-.85c.33-.27.42-.53.28-.79,0-.05-.06-.06-.08-.06a.34.34,0,0,0-.11,0c-.27.26-1.37.83-1.56,1s-.09.09-.09.11a.06.06,0,0,0,.09,0,11.37,11.37,0,0,0,1.07-.59c.25-.11.28-.07.3,0s-.08.17-.2.26"/><path class="cls-1" d="M16.88,13a1.17,1.17,0,0,0,.36-.08,8.67,8.67,0,0,1,1.52-.65c.06,0,.14,0,.17,0a.22.22,0,0,1-.06.37l-.65.29a.17.17,0,0,0,0,0,.34.34,0,0,0,.22.05h0c.66-.15.9-.41.83-.78a.36.36,0,0,0-.33-.21,1.05,1.05,0,0,0-.57.09c-.32.13-.82.41-1.12.52a1.84,1.84,0,0,0-.37.19c-.07,0-.27.22,0,.17"/><path class="cls-1" d="M18.94,10.05c.19-.16.37-.6.49-.37a.81.81,0,0,1-.13.67c-.08.12,0,.19.09.24l0,0s0,0,.07,0a1.41,1.41,0,0,0,.18-1A.75.75,0,0,0,19.4,9l-.09,0s-.06,0-.09.09l-.1.37a.78.78,0,0,1-.21.37.41.41,0,0,0-.15.28c0,.1,0,.05.18-.06"/><path class="cls-1" d="M20,10.54a3.74,3.74,0,0,1,.94.4,1,1,0,0,0,.21.11c.23.13.51.27.8.4l.1,0s.07,0,.11-.08h0a1.45,1.45,0,0,0,.4-.8l0,0h0a.81.81,0,0,1-.31.06,1.13,1.13,0,0,1-.36-.06A4.11,4.11,0,0,0,20.13,10l-.07,0,0,0h0v.08l0,0a5.33,5.33,0,0,1,1.77.7h0c.05,0,.15.09.16.15l0,0a.17.17,0,0,1-.14.06l-.09,0-.08,0A11.15,11.15,0,0,0,20,10.37h0c-.06,0-.08,0-.08.05s0,.11.06.12"/><path class="cls-1" d="M19.26,13.59c-.07,0-.2-.21-.26-.35l-.05,0-.06,0a.14.14,0,0,0,0,.11.83.83,0,0,0,.29.51.41.41,0,0,0,.17.05.3.3,0,0,0,.28-.25A.77.77,0,0,0,19.3,13l0,0a1,1,0,0,1,.11.47.11.11,0,0,1-.13.08"/><path class="cls-1" d="M20.15,13.12c-.14,0-.35-.36-.41-.48l-.07,0h0a.2.2,0,0,0,0,.13,1.29,1.29,0,0,0,.34.68.31.31,0,0,0,.21.07.85.85,0,0,0,.56-.36.37.37,0,0,0,0-.4A3,3,0,0,0,19.54,12h0a3.47,3.47,0,0,0,.38.29h0a2.22,2.22,0,0,1,.49.41.26.26,0,0,1,0,.25.4.4,0,0,1-.27.2"/><path class="cls-1" d="M19.44,11.5v0a8.29,8.29,0,0,0,1.67,1,.65.65,0,0,0,.23.06.28.28,0,0,0,.2-.1.47.47,0,0,0,.11-.59,3.58,3.58,0,0,0-1.93-1.08h0v0s0,0,.1.06a4.77,4.77,0,0,1,1.37.74l0,0c.09.07.18.15.15.28a.54.54,0,0,1-.14.19l-.08,0A1.44,1.44,0,0,1,20.6,12l-.09-.05h0a4.65,4.65,0,0,0-1-.45Z"/><path class="cls-1" d="M33.5,10.4s0,.1.1.18A18,18,0,0,1,39.31,18a.36.36,0,0,1,0,.29.2.2,0,0,1-.15.06.91.91,0,0,1-.44-.17,5.13,5.13,0,0,1-1.37-1.35A20.92,20.92,0,0,0,32,11.16s-.08-.06-.11-.06l-.05,0a.42.42,0,0,0,.14.35,22.5,22.5,0,0,1,5.43,6.2,3.22,3.22,0,0,0,2.79,1.4l.35,0c.19-.05.21-.1.21-.1s0-.07-.1-.13a2.94,2.94,0,0,1-1.07-1.5,17.59,17.59,0,0,0-5.79-6.91.49.49,0,0,0-.18-.05c-.05,0-.08,0-.09,0"/><path class="cls-1" d="M38.32,17.61a.5.5,0,0,0,.26.12.09.09,0,0,0,.08,0c0-.07,0-.21-.08-.39a19.64,19.64,0,0,0-5.67-6.44.62.62,0,0,0-.26-.06c-.09,0-.14,0-.15,0s0,.07.19.17a23.78,23.78,0,0,1,5.63,6.59"/><path class="cls-1" d="M36,17.59a.53.53,0,0,1-.38-.26,22.41,22.41,0,0,0-3.85-4.11l-.05,0,0,0a.57.57,0,0,0,0,.49,22.69,22.69,0,0,1,2.61,2.72l0,0A15.11,15.11,0,0,0,35.77,18a1,1,0,0,0,.53.15.53.53,0,0,0,.41-.18.43.43,0,0,0,.06-.39A15.62,15.62,0,0,0,32,12.22c0-.05-.08-.07-.1-.07h0a.54.54,0,0,0,.17.49,23.78,23.78,0,0,1,4.08,4.52c.08.15.09.26,0,.34a.16.16,0,0,1-.14.08"/><path class="cls-1" d="M31.43,14.18l0,0a.31.31,0,0,0,0,.28,19.89,19.89,0,0,1,2.74,2.93.4.4,0,0,1,.06.44.44.44,0,0,1-.39.23A.41.41,0,0,1,33.5,18c-.63-.54-1.22-1.16-1.8-1.76L31,15.41l-.06,0-.07.07a.34.34,0,0,0,0,.31l1.85,2a2.58,2.58,0,0,0,.92.68,1.57,1.57,0,0,0,.42,0,.69.69,0,0,0,.57-.22.76.76,0,0,0,0-.67,11.64,11.64,0,0,0-3.17-3.38Z"/><path class="cls-1" d="M30.94,14.67a.25.25,0,0,0,0,.2,28.62,28.62,0,0,0,2.61,2.56l.07,0,0,0a.11.11,0,0,0,0-.11A16.11,16.11,0,0,0,31,14.63Z"/><path class="cls-1" d="M30.66,16.14a.21.21,0,0,0-.12,0,.14.14,0,0,0-.12.07.21.21,0,0,0,.06.21,7.45,7.45,0,0,1,1.58,1.7.39.39,0,0,1,0,.4.39.39,0,0,1-.37.19.73.73,0,0,1-.36-.1,9,9,0,0,1-1.5-1.3l-.11-.1a.19.19,0,0,0-.07.08.25.25,0,0,0,0,.24A6.44,6.44,0,0,0,31.34,19a2.51,2.51,0,0,0,.62.08.61.61,0,0,0,.51-.19.89.89,0,0,0,0-.75,8.05,8.05,0,0,0-1.83-2"/><path class="cls-1" d="M30,16.83l1.52,1.43.1,0,.08,0v-.05a6.15,6.15,0,0,0-1.77-1.69.39.39,0,0,0,.06.31"/><path class="cls-1" d="M29.84,20a.92.92,0,0,0,.75-.36.54.54,0,0,0,.05-.51,7.56,7.56,0,0,0-1.24-1.39l-.06,0a.12.12,0,0,0-.09.08.12.12,0,0,0,0,.13A5.73,5.73,0,0,1,30.18,19a.45.45,0,0,1,0,.41.55.55,0,0,1-.42.22.5.5,0,0,1-.27-.08,5.94,5.94,0,0,1-.93-.87l-.06,0a.09.09,0,0,0-.08.06.19.19,0,0,0,0,.18,3.17,3.17,0,0,0,1.16,1,.61.61,0,0,0,.3.05"/><path class="cls-1" d="M29.42,19.06a.25.25,0,0,0,.16.05.19.19,0,0,0,.15-.08.2.2,0,0,0-.06-.21,3.6,3.6,0,0,0-.78-.73.3.3,0,0,0-.11,0,.14.14,0,0,0-.14.14c0,.07.05.12.13.21.25.27.43.44.65.66"/><path class="cls-1" d="M28.8,19.94l-.73-.82-.07,0a.1.1,0,0,0-.09.06.17.17,0,0,0,0,.17l.45.52a.33.33,0,0,1,.11.24c0,.17-.16.3-.31.43v0a1.08,1.08,0,0,0-.24.24.19.19,0,0,0,0,.18A.1.1,0,0,0,28,21l.08,0,.59-.5a.41.41,0,0,0,.1-.55"/><path class="cls-1" d="M27.85,20.22l.07,0,.08-.05a.11.11,0,0,0,0-.11l-.36-.63-.07,0a.14.14,0,0,0-.12.07v.09Z"/><path class="cls-1" d="M28,9.63a1.11,1.11,0,0,0,.33.3A10.26,10.26,0,0,1,31,11.33a.29.29,0,0,1,.08.31.27.27,0,0,1-.24.16.63.63,0,0,1-.26-.07,8,8,0,0,0-2.19-1.18l0,0a.23.23,0,0,0,.15.22,11.78,11.78,0,0,1,2.34,1.38.64.64,0,0,0,.32.12.31.31,0,0,0,.26-.17q.25-.68-.63-1.29A13.64,13.64,0,0,0,28,9.64Z"/><path class="cls-1" d="M28.54,11.25l0,0a.24.24,0,0,0,.1.25c.18.12.45.28.76.46a4.22,4.22,0,0,1,1.35.95.59.59,0,0,1,0,.55.33.33,0,0,1-.29.18.52.52,0,0,1-.22-.06l-1.35-.78,0,0h0a.63.63,0,0,0,.2.44,7.33,7.33,0,0,0,1,.66l.09.05a1.29,1.29,0,0,0,.54.21.31.31,0,0,0,.21-.07,1.16,1.16,0,0,0,.22-1.19,9.39,9.39,0,0,0-2.53-1.68"/><path class="cls-1" d="M30.11,13.18l.09,0c.09,0,.19,0,.17-.07a9,9,0,0,0-1.65-1,.44.44,0,0,0,.06.16,7.43,7.43,0,0,0,1.33.91"/><path class="cls-1" d="M28.82,15.27l.82.6a.48.48,0,0,0,.26.09.39.39,0,0,0,.2-.08,1.26,1.26,0,0,0,.38-.52.64.64,0,0,0-.27-.78l-1.11-.81-.05,0,0,0a.27.27,0,0,0,0,.26,6.15,6.15,0,0,1,.85.75.44.44,0,0,1,.07.47.28.28,0,0,1-.24.18.32.32,0,0,1-.21-.09l-.67-.41a.15.15,0,0,0-.08.08.25.25,0,0,0,0,.26"/><path class="cls-1" d="M29.48,15a.13.13,0,0,0,.13-.09.13.13,0,0,0,0-.15L29,14.43l-.07.05v.11l.47.39Z"/><path class="cls-1" d="M27.8,16.77a.19.19,0,0,0,0,.21l.82.6a.27.27,0,0,0,.16.05.55.55,0,0,0,.34-.17l.1-.18c.22-.34.38-.59.13-1a2.28,2.28,0,0,0-.81-.68s0,0-.07.07a.22.22,0,0,0,0,.25l.42.45a.46.46,0,0,1,0,.44.41.41,0,0,1-.34.24.33.33,0,0,1-.19-.06L28,16.7l-.07,0s-.08,0-.1.11"/><path class="cls-1" d="M28.13,16.27a.12.12,0,0,0,0,.14l.29.21.08,0c.05,0,.07,0,.08-.07a.14.14,0,0,0,0-.16l-.29-.22h-.05a.12.12,0,0,0-.11.08"/><path class="cls-1" d="M26.61,17.87a.1.1,0,0,0-.09.06.29.29,0,0,0,0,.24l.63.72a.32.32,0,0,0,.24.09,1,1,0,0,0,.72-.56.64.64,0,0,0,.06-.62,3.94,3.94,0,0,0-.64-.78l-.05,0s-.06,0-.09.07a.29.29,0,0,0,0,.27l.29.38a.54.54,0,0,1-.05.49.37.37,0,0,1-.32.21.43.43,0,0,1-.25-.09l-.38-.42Z"/><path class="cls-1" d="M27.34,18.08a.12.12,0,0,0,.1-.07.13.13,0,0,0,0-.12l-.33-.32-.05,0a.11.11,0,0,0-.1.06.2.2,0,0,0,0,.13l.35.33Z"/><path class="cls-1" d="M28.46,26.36c0,.09,0,.22.15.22a.44.44,0,0,0,.27-.15c.68-.89.45-3.68-.42-5.06l-.06,0a.14.14,0,0,0-.1.06.27.27,0,0,0,0,.25A6.29,6.29,0,0,1,29,25.33c0,.11-.08.26-.2.26s-.17-.06-.24-.36a6.71,6.71,0,0,0-1-2.81.86.86,0,0,0,0,.55,9,9,0,0,1,.87,3.39"/><path class="cls-1" d="M27.88,21.67h0a.55.55,0,0,0,0,.38,6,6,0,0,1,.83,2.28l0,0,.05-.05a6.13,6.13,0,0,0-.83-2.64Z"/><path class="cls-1" d="M23.68,8.9l.38.16c.21.1.41.21.61.33a3.13,3.13,0,0,1,1.59,2.49l0,.16c.33,1.47.52,2.35-.95,3.54a.35.35,0,0,0-.06.37.18.18,0,0,0,.17.12h0A2.71,2.71,0,0,0,26.64,15c.87-1.16-.09-3.79-.4-4.65A2.24,2.24,0,0,0,25,9.05l-1.64-.76a.61.61,0,0,1-.25-.52c0-.2.15-.24.36-.36a1.57,1.57,0,0,1,.71-.14,6.08,6.08,0,0,1,.61,0,14.43,14.43,0,0,1,7.39,2.45h0a.27.27,0,0,1,.05.3c-.06.12-.23.18-.55.2a.65.65,0,0,1-.47-.19L31,9.73c0-.06,0-.08-.06-.08s-.07,0-.08.09l-.09.45c0,.07,0,.1.08.11a3.07,3.07,0,0,0,1.05.17,2.73,2.73,0,0,0,1.67-.61c.08-.11.11-.2.09-.25s-.13-.09-.29-.09h-.17a2.55,2.55,0,0,1-1.51-.46,15.18,15.18,0,0,0-7.85-2,1.49,1.49,0,0,0-.69.13.84.84,0,0,0-.45.57.81.81,0,0,0,.2.68,1.88,1.88,0,0,0,.81.5"/><path class="cls-1" d="M11.45,14.41c.12.36.29.55.54.59h1.07a.22.22,0,0,0,.17-.21.19.19,0,0,0-.13-.18l-.84,0c-.32,0-.48-.45-.6-.9a2.34,2.34,0,0,1,.67-2.21c0-.05.06-.08.06-.1h-.07a.18.18,0,0,1-.09-.12.31.31,0,0,1,.1-.2l.14-.13v-.05l-.09,0h0A4.71,4.71,0,0,0,11.12,12a.69.69,0,0,0-.09.68Z"/><path class="cls-1" d="M13.61,13.57h0a1.94,1.94,0,0,1-.54.1.85.85,0,0,1-.67-.25l-.06,0-.06,0a.17.17,0,0,0,0,.18.85.85,0,0,0,.65.33,1.09,1.09,0,0,0,.65-.27s.06-.08,0-.1"/><path class="cls-1" d="M12.09,12.6a.43.43,0,0,0,0,.33.29.29,0,0,0,.19.14l.2,0A2.73,2.73,0,0,0,14,12.36l0-.08,0,0a3.31,3.31,0,0,1-1.34.46.24.24,0,0,1-.18-.12c0-.1,0-.23.12-.41a3.43,3.43,0,0,0,.5-.54.13.13,0,0,0,0-.17.63.63,0,0,1,0-.19c0-.05,0-.1,0-.14a.55.55,0,0,1,.11-.29,1.09,1.09,0,0,1,.26-.21.18.18,0,0,0,.07-.21.27.27,0,0,0-.26-.19c-.31.11-.42.27-.38.54a.81.81,0,0,1-.16.72,4.06,4.06,0,0,0-.65,1"/><path class="cls-1" d="M13.35,11.14a.19.19,0,0,0,0,.18.6.6,0,0,1,.11.64l0,0a.53.53,0,0,0,.1-.81c0-.05-.09-.11-.15-.1a.17.17,0,0,0-.09.11"/><path class="cls-1" d="M21.52,37.21a3.11,3.11,0,0,1,.86,1.54c.28.79.57,1.62,1.18,1.77a.85.85,0,0,0,.24,0h0a.23.23,0,0,0-.07-.06c-.37-.13-.58-.75-.82-1.46s-.59-1.78-1.21-2l-.21,0a.27.27,0,0,0-.13,0s0,.06.13.14"/><path class="cls-1" d="M22.63,37.05a.65.65,0,0,0-.16,0s0,0,.07.08c.42.23.67.91.95,1.63s.66,1.77,1.28,1.76h0l.13,0,0,0c-.37-.17-.6-.81-.85-1.49-.32-.87-.68-1.85-1.41-2"/><path class="cls-1" d="M24.68,39v0c.25.69.56,1.55,1.24,1.57H26a2.7,2.7,0,0,1-.82-1.38c-.17-.52-.32-1-.87-1.13h-.07a.09.09,0,0,0-.06,0l0,.07c.19.1.31.43.47.85"/><path class="cls-1" d="M22.66,36.6h.22c.2,0,.21-.16.21-.2A.18.18,0,0,0,23,36.2h-.46a2.89,2.89,0,0,1-.92-.1L21.45,36a.4.4,0,0,0-.18,0c-.06,0-.14,0-.17.06a.31.31,0,0,0,0,.26c.17.21.54.31,1.12.29h.42"/><path class="cls-1" d="M28.53,36.53a.72.72,0,0,0-.73-.46.79.79,0,0,0-.84.77A.15.15,0,0,0,27,37a.2.2,0,0,0,.16.07.19.19,0,0,0,.18-.13c.06-.37.28-.41.37-.41a.38.38,0,0,1,.37.25.31.31,0,0,1-.14.36.42.42,0,0,0-.18.6,1.39,1.39,0,0,1,0,1.45.47.47,0,0,0,.28.66h0a.26.26,0,0,1,0,.29.4.4,0,0,1-.34.21.4.4,0,0,1-.36-.3.23.23,0,0,0-.22-.21.22.22,0,0,0-.17.09.18.18,0,0,0,0,.17c.24.47.52.7.88.69a1.25,1.25,0,0,0,.5-.12.74.74,0,0,0,.26-.48.67.67,0,0,0-.16-.48c-.18-.1-.22-.33-.11-.67a1.26,1.26,0,0,0,0-1.18.59.59,0,0,1,.09-.66.63.63,0,0,0,.11-.66"/><path class="cls-1" d="M21,39.78a.28.28,0,0,0-.24-.16s-.07,0-.08,0l-.19.34a.33.33,0,0,1-.54,0,.3.3,0,0,1,0-.28.61.61,0,0,1,.25-.36.53.53,0,0,0,0-.49A1.65,1.65,0,0,1,20,37.8l.13-.51a.38.38,0,0,0-.16-.44.35.35,0,0,1-.17-.42.31.31,0,0,1,.29-.24.28.28,0,0,1,.13,0,.38.38,0,0,1,.22.25.61.61,0,0,1,0,.12.34.34,0,0,0,.24.13.14.14,0,0,0,.12-.06.33.33,0,0,0,0-.28.83.83,0,0,0-.85-.62.65.65,0,0,0-.5.2.63.63,0,0,0-.17.49.55.55,0,0,0,.18.46h0a.65.65,0,0,1,0,.73,1.2,1.2,0,0,0,0,1,1.05,1.05,0,0,1,0,.82l-.06.12a.52.52,0,0,0-.09.48.67.67,0,0,0,.7.53,1,1,0,0,0,.51-.15,1,1,0,0,0,.36-.67"/><path class="cls-1" d="M26.85,40.77a.43.43,0,0,0-.25.09,1,1,0,0,1-.45.13H26c-1.49,0-3,0-4.52-.09a1,1,0,0,1-.44-.13.88.88,0,0,0-.31-.07.18.18,0,0,0-.15.06.31.31,0,0,0,0,.25c.3.44,2.81.39,3.75.38l1,0h.81a1.58,1.58,0,0,0,.85-.25.17.17,0,0,0,.1-.2.26.26,0,0,0-.25-.16"/><path class="cls-1" d="M21.47,9.54c1.44.32,2.46.79,2.73,2,0,.48.11.8.29.92l0,0v-.11A2.32,2.32,0,0,0,23.39,10a5.4,5.4,0,0,0-1.75-.71.59.59,0,0,1-.52-.65.78.78,0,0,1,.71-.76h.09c.13,0,.19-.07.19-.1s0,0-.08-.06h-.18c-.48,0-.94.12-1,.88-.07.56.12.86.61.95"/><path class="cls-1" d="M21.67,8.29h0c.26,0,.36.1.36.19s-.09.22-.36.24l0,0a.21.21,0,0,0,.08.05l.28,0a.56.56,0,0,0,.47-.18.21.21,0,0,0,0-.2A.48.48,0,0,0,22,8.25a1,1,0,0,0-.29,0"/><path class="cls-1" d="M23.66,9.7a.32.32,0,0,0,.23.07c.13,0,.2,0,.2-.06l0,0a1.63,1.63,0,0,0-1.56-.43c-.15.07,1,.05,1.16.45"/><path class="cls-1" d="M23.9,12a2.45,2.45,0,0,0-1-1c-.11,0-.13,0-.11.07a3.64,3.64,0,0,1,1.31,2.05.51.51,0,0,1-.1.44l-.06.05a1.71,1.71,0,0,0-.18.2.15.15,0,0,0,0,.18.21.21,0,0,0,.21.12h0l.69-.53a.26.26,0,0,0,.08-.2.22.22,0,0,0,0-.15A2.74,2.74,0,0,1,23.9,12"/><path class="cls-1" d="M21.94,12.5h0a.28.28,0,0,0,0,.1,8.29,8.29,0,0,1,.17,2,.18.18,0,0,0,0,.13.39.39,0,0,0,.28.07,2.41,2.41,0,0,0,.71-.32.59.59,0,0,0,.29-.51,4.12,4.12,0,0,0-.88-2.19.15.15,0,0,0-.08,0h0a.17.17,0,0,0,0,.15c.59,1.07.74,1.75.48,2.18a.61.61,0,0,1-.38.2c-.09,0-.2,0-.24-.28A4.66,4.66,0,0,0,22,12.54Z"/><path class="cls-1" d="M22.74,13.66a1.28,1.28,0,0,0,0-.19,4.8,4.8,0,0,0-.59-1.5l0,0,0,.08a8.67,8.67,0,0,1,.43,1.71s.13.14.17-.07"/><path class="cls-1" d="M23.61,13.23c.09.17.19-.06.17-.13-.2-.68-.84-1.7-1-1.63a8.69,8.69,0,0,1,.82,1.76"/><path class="cls-1" d="M20.59,14.56l.11-.82c0-.07,0-.1-.05-.13s0,0-.09.1c-.12.27-.43,1.14-.25,1.46a.18.18,0,0,0,.16.1,1,1,0,0,0,.24,0,.91.91,0,0,0,.7-.26,2.72,2.72,0,0,0,.25-1.85V13c0-.13-.08-.19-.12-.19l-.06,0a.24.24,0,0,0-.06.2,3.48,3.48,0,0,1-.17,1.48.54.54,0,0,1-.41.31c-.11,0-.23-.08-.24-.31"/><path class="cls-1" d="M21.09,14.21a4.19,4.19,0,0,0,0-.87c0-.06,0-.05,0-.05a.09.09,0,0,0-.08.08,6,6,0,0,1-.1.84.13.13,0,0,0,0,.12l.06,0a.14.14,0,0,0,.15-.14"/><path class="cls-1" d="M20.69,11.79a.1.1,0,0,0,.1,0l0,0a.13.13,0,0,0-.07-.16,8.39,8.39,0,0,0-1-.42c-.05,0-.05,0-.06,0a.1.1,0,0,0,0,.1,7.28,7.28,0,0,1,1,.48"/><path class="cls-1" d="M18.78,15.26a.69.69,0,0,0,.45.14.7.7,0,0,0,.69-.48l.22-.95a.12.12,0,0,0,0-.11l-.07,0a.3.3,0,0,0-.25.27,2.33,2.33,0,0,1-.3.86.22.22,0,0,1-.18.11.14.14,0,0,1-.15-.07.17.17,0,0,1,0-.17,1.14,1.14,0,0,0,.21-.46.11.11,0,0,0,0-.1l0,0a.24.24,0,0,0-.11.06,3.24,3.24,0,0,1-.44.65c-.08.13-.09.22,0,.3"/><path class="cls-1" d="M16.24,14.3a.46.46,0,0,0-.22-.06c-.07,0-.13,0-.15.07a.12.12,0,0,0,0,.1A1.9,1.9,0,0,1,16.66,17c0,.07,0,.11,0,.13h0a.39.39,0,0,0,.16-.08,1.91,1.91,0,0,0-.61-2.76"/><path class="cls-1" d="M7.66,18.66c0,.08,0,.13.1.16h.06a.19.19,0,0,0,.17-.1.21.21,0,0,0,0-.2.46.46,0,0,1,.12-.66h0a1.43,1.43,0,0,0,.15-.18.22.22,0,0,0,.06-.18.14.14,0,0,0-.16-.13.25.25,0,0,0-.16.06,3.55,3.55,0,0,1-.35.27l-.05,0-.07,0-.08,0s-.12.08,0,.27a4.36,4.36,0,0,1,.24.56"/><path class="cls-1" d="M8.39,19a.28.28,0,0,0,.21.14.12.12,0,0,0,.09-.05.39.39,0,0,0,0-.31c-.2-.45,0-.6.25-.83l0,0a.21.21,0,0,0,0-.19.17.17,0,0,0-.15-.07l-.13,0c-.51.32-.59.63-.36,1.31"/><path class="cls-1" d="M9,18.58l.1.6a.21.21,0,0,0,.19.15.16.16,0,0,0,.13-.06.29.29,0,0,0,0-.21.61.61,0,0,1,0-.7l.22-.21a.21.21,0,0,0,0-.2.18.18,0,0,0-.17-.1l-.09,0-.29.25a.41.41,0,0,0-.2.46"/><path class="cls-1" d="M15.44,14.68a.22.22,0,0,0-.13,0,.21.21,0,0,0-.2.14.36.36,0,0,0,.09.37,1.79,1.79,0,0,1,.76,1,1.19,1.19,0,0,1-.26,1l-1.91,1.75c-1.26,1.21-1.44,2.31-.54,3.35l.07,0a.4.4,0,0,0-.05-.15c-.68-1.41.24-2.2,1.4-3.21h0a12.52,12.52,0,0,0,1.69-1.66c.44-.88.13-1.72-.93-2.54"/><path class="cls-1" d="M16.18,21.85c-.32,0-.61,0-.87.07l-.08,0c-.21,0-.39,0-.55,0-.52,0-.88-.18-1.09-1.12,0-.13,0-.18-.08-.21s-.1.09-.11.22c0,1.24.84,1.26,2,1.29.35,0,.73,0,1.13.06a1.55,1.55,0,0,1,1.18,1.09,1.38,1.38,0,0,1-.58,1.37c-.12.1-.16.2-.13.27a.31.31,0,0,0,.28.14.27.27,0,0,0,.18-.05,1.71,1.71,0,0,0,.67-1.77,1.87,1.87,0,0,0-1.61-1.42h-.36"/><path class="cls-1" d="M14,17.22a3.78,3.78,0,0,0-2.18,4,2.61,2.61,0,0,0,2.38,2.21h2.1a.38.38,0,0,1,.32.18.44.44,0,0,1-.07.46.19.19,0,0,0-.05.17h.05a.29.29,0,0,0,.18-.08.72.72,0,0,0,.25-.81.66.66,0,0,0-.64-.4l-1,0a3.47,3.47,0,0,1-1.73-.22,2.39,2.39,0,0,1-1.39-2.08,3.75,3.75,0,0,1,2-3.19c.6-.38,1.3-.86,1.42-1.21a.37.37,0,0,0,0-.27l-.05,0a.16.16,0,0,0-.12.06A4.68,4.68,0,0,1,14,17.22"/><path class="cls-1" d="M10.4,21.42a1,1,0,0,0,.23,1.08,7.81,7.81,0,0,0,1.14.81,1.67,1.67,0,0,1,.64,1.28v0c0,.12,0,.24.07.37a1,1,0,0,0,.85.78h.06a.18.18,0,0,0,.17-.11c0-.07-.06-.11-.1-.12-.44-.17-.64-.36-.68-.65a3.38,3.38,0,0,0-.67-1.68A10.29,10.29,0,0,1,11,22.38a.46.46,0,0,1-.24-.29,2.66,2.66,0,0,1,.46-1.77,1.83,1.83,0,0,0-1.07-2,.23.23,0,0,0-.11,0c-.06,0-.07,0-.08,0a.19.19,0,0,0,.08.17c.78.61,1.27,1.17.37,3"/><path class="cls-1" d="M10.73,23.76a1.51,1.51,0,0,1,.77,1.37c.11,1.38.8,2.07,2.05,2.05h0a1.39,1.39,0,0,0,.56-.16.11.11,0,0,0,.06-.06c0-.05,0-.14-.13-.25a.39.39,0,0,0-.3-.14l-.17,0h0a1.09,1.09,0,0,1-.34.07,1,1,0,0,1-.28,0,1.45,1.45,0,0,1-1.1-1.39,1.67,1.67,0,0,0-.62-1.58A3.63,3.63,0,0,1,10,22.55,1.56,1.56,0,0,1,10,20.91c.05-.09.1-.2.15-.31a1.45,1.45,0,0,0,.13-.68c0-.7-.18-1.08-.54-1.17H9.69s-.11,0-.13.05,0,.13.13.26c.46.37.45,1,0,2.05a1.61,1.61,0,0,0-.09,1.54,4,4,0,0,0,1.16,1.12"/><path class="cls-1" d="M14.8,27h.11s0,0,0-.08a.86.86,0,0,0-.36-.1s-.05,0-.05,0a.31.31,0,0,0,.28.16"/><path class="cls-1" d="M15.57,26.85a.14.14,0,0,0-.05-.09.69.69,0,0,0-.45-.14H15s-.06,0-.06.05a.18.18,0,0,0,0,.08.68.68,0,0,0,.45.15h.06Z"/><path class="cls-1" d="M15.65,26.34l-.11,0,0,.06a.47.47,0,0,0,.46.25l.18,0,0,0a.13.13,0,0,0,0-.07.7.7,0,0,0-.56-.23"/><path class="cls-1" d="M15.93,25.12a.53.53,0,0,0,.25-.11l.21-.17a.11.11,0,0,0,0-.16.47.47,0,0,1-.12-.58.13.13,0,0,0,0-.15s0,0-.05,0h0a.62.62,0,0,0-.2.12h0a.78.78,0,0,0-.34.83.25.25,0,0,0,.26.24Z"/><path class="cls-1" d="M14.4,26.54l.08,0v0a.76.76,0,0,1-.25-.65,1.35,1.35,0,0,0-.28-.81s0,0-.06.1a.36.36,0,0,0,0,.29.58.58,0,0,1,.11.48c0,.37.09.57.42.63"/><path class="cls-1" d="M14.9,26.36H15c.11-.06.12-.09.12-.09A.23.23,0,0,0,15,26.2a.64.64,0,0,1-.32-.73.53.53,0,0,0-.08-.55.51.51,0,0,1-.11-.51l0,0-.13,0a.42.42,0,0,0-.18.22.88.88,0,0,0,.15.56.48.48,0,0,1,.12.45.81.81,0,0,0,.19.6.35.35,0,0,0,.24.12"/><path class="cls-1" d="M15.64,24c.06-.07.06-.09.06-.09l0,0-.2,0a.68.68,0,0,0-.58.27.58.58,0,0,0,0,.55.48.48,0,0,1,.05.51.72.72,0,0,0,0,.46.68.68,0,0,0,.5.38c.11,0,.14,0,.14,0l0-.05a.28.28,0,0,1,0-.41s.06-.07.06-.1,0-.1-.09-.16A.85.85,0,0,1,15.64,24"/><path class="cls-1" d="M17.75,26.37a1.22,1.22,0,0,1,.54-.37,2,2,0,0,0,.61-.45,1,1,0,0,0-.27-1.32.19.19,0,0,0-.12,0,.16.16,0,0,0-.13.08.29.29,0,0,0,0,.24l.2.34a.44.44,0,0,1-.21.62,3.39,3.39,0,0,0-1,.67.36.36,0,0,1-.26.16.31.31,0,0,1-.21-.08l-.36-.31a.23.23,0,0,1-.05-.23.17.17,0,0,1,.16-.09l.11,0,.25.11.08,0s0,0,.06-.07a.53.53,0,0,0-.34-.53.71.71,0,0,0-.2,0,.87.87,0,0,0-.7.47c-.19.28.2.56.6.85l.37.27a.43.43,0,0,0,.23.07.41.41,0,0,0,.18-.05,1.3,1.3,0,0,0,.46-.37"/><path class="cls-1" d="M18.81,26.84h.08a2.81,2.81,0,0,1,.93.34c.07,0,.15,0,.16,0A.17.17,0,0,0,19.9,27a2.71,2.71,0,0,0-1.4-.45,1.23,1.23,0,0,0-.39.06c-.15.07-.25.18-.25.29a.18.18,0,0,0,.11.15l.89.24.61.27h.06c.06,0,.12,0,.13-.07l-.05-.09a2.5,2.5,0,0,0-.77-.36c-.19-.05-.18-.12-.18-.14s0-.09.15-.09"/><path class="cls-1" d="M19.33,25.63a.91.91,0,0,0-.31.31.37.37,0,0,0,0,.34c.16.32.79.48,1.1.56h0c.09,0,.15,0,.16-.07l0-.09h0a2.16,2.16,0,0,1-.8-.51.32.32,0,0,1,0-.31.33.33,0,0,1,.29-.12,1.31,1.31,0,0,1,.41.07h0l.07,0a.1.1,0,0,0,0-.12.64.64,0,0,0-.31-.17.7.7,0,0,0-.55.14"/><path class="cls-1" d="M19.88,26h0a.1.1,0,0,0-.11.06.11.11,0,0,0,0,.13,3.16,3.16,0,0,0,.83.37h0a.08.08,0,0,0,.08-.06.13.13,0,0,0-.07-.14,3.44,3.44,0,0,0-.79-.36"/><path class="cls-1" d="M20,28.26h0a1.34,1.34,0,0,0,.35,0A3.47,3.47,0,0,1,21.64,28c.09,0,.15-.06.15-.11s0-.12-.15-.14l-.17,0a4.75,4.75,0,0,0-1.13.24h-.07a.12.12,0,0,1-.12-.06c0-.07,0-.18.07-.25a2.6,2.6,0,0,1,1.21-.74c.09,0,.12-.1.1-.15s0-.11-.15-.11a2.42,2.42,0,0,0-1.57,1,.47.47,0,0,0-.08.45.35.35,0,0,0,.31.17"/><path class="cls-1" d="M20.87,27.34c0,.06-.06.1-.05.12s.11.06.23.06a1,1,0,0,0,.56-.16l0-.07v0s-.08-.06-.27-.06a.91.91,0,0,0-.5.13"/><path class="cls-1" d="M19.61,24.79c-.06-.08-.08-.15-.05-.21a.2.2,0,0,1,.19-.09h.05l0,0a.89.89,0,0,0-.62-.34c-.07,0-.08,0-.09.06,0,.47.24.81.82,1H20v0Z"/><path class="cls-1" d="M18.89,22.54l0,0a1.59,1.59,0,0,0,.37,1.18.69.69,0,0,0,.46.24.12.12,0,0,0,.1,0,.34.34,0,0,0,0-.27.42.42,0,0,0-.24-.23.14.14,0,0,1-.12.07c-.14,0-.28-.22-.28-.46a.45.45,0,0,0-.28-.53"/><path class="cls-1" d="M20.3,24.21a.36.36,0,0,0-.2-.15h0v.08a3.11,3.11,0,0,0,1,2.18.46.46,0,0,0,.19,0c.19,0,.26-.19.28-.26a1.34,1.34,0,0,0-.13-.8.21.21,0,0,0-.15-.08c-.05,0-.07,0-.07.06v.42a.17.17,0,0,1,0,.15l-.06,0h0a.21.21,0,0,1-.15-.07,2,2,0,0,1-.56-1.36c0-.06,0-.15-.1-.24"/><path class="cls-1" d="M22.48,28.26a.69.69,0,0,0,.26.06.28.28,0,0,0,.23-.11,1.25,1.25,0,0,0,.09-.93h0a1,1,0,0,0-.17-.25h0a.25.25,0,0,0,0,.1l0,.54c0,.15,0,.23-.13.23a.35.35,0,0,1-.17-.07,3.63,3.63,0,0,1-.4-1.75c0-.22-.13-.35-.2-.35s-.07.06-.07.16a3.15,3.15,0,0,0,.65,2.37Z"/><path class="cls-1" d="M22.52,27.27l0,0a.28.28,0,0,0,0-.2l-.06-.45a.19.19,0,0,0-.13-.1c-.06,0-.07.05-.08.08a.75.75,0,0,0,.11.62.21.21,0,0,0,.09.07"/><path class="cls-1" d="M21,25.33c.05,0,.07-.11.07-.13a.52.52,0,0,0-.11-.32c0-.05-.07-.06-.08-.06l-.07.06a.5.5,0,0,0,.06.36.21.21,0,0,0,.13.09"/><path class="cls-1" d="M24.29,10h-.06c-.06,0-.08.06-.08.07s0,.09.2.09a.7.7,0,0,1,.78.46.23.23,0,0,1,0,.24c-.05.07-.09.1-.23.1h0v.08a.38.38,0,0,0,.21.07.3.3,0,0,0,.24-.11.39.39,0,0,0,0-.34A1,1,0,0,0,24.29,10"/><path class="cls-1" d="M24.78,10.76s.07-.06.07-.09-.07-.21-.25-.23a.1.1,0,0,0-.06,0s0,.06.1.19.09.09.14.09"/><path class="cls-1" d="M25,11.5a.1.1,0,0,0-.1.09s0,.11.07.11c.43,0,.59.26.58.8-.05.26-.16.25-.25.25a.5.5,0,0,1-.25-.07.11.11,0,0,0-.13.05.07.07,0,0,0,0,.08.86.86,0,0,0,.59.23.26.26,0,0,0,.17,0c.16-.13.21-.36.12-.74a.77.77,0,0,0-.8-.75"/><path class="cls-1" d="M25.21,12.39a.11.11,0,0,0,.09-.05.3.3,0,0,0-.06-.27.31.31,0,0,0-.17,0,.24.24,0,0,0-.14.1s0,.09.05.14.21.11.23.11"/><path class="cls-1" d="M25.3,15.06h.07a1.59,1.59,0,0,0,.72-1,.68.68,0,0,0-.11-.51.85.85,0,0,0-.62-.23h-.08a.25.25,0,0,0-.24.14.14.14,0,0,0,.05.13l.39.08a.32.32,0,0,1,.22.18.78.78,0,0,1-.11.54c-.28.35-.42.36-.36.59s.05.1.07.1"/><path class="cls-1" d="M25.13,14.22h.15c.15,0,.17-.06.17-.1,0-.23-.13-.23-.17-.23l-.18,0a.16.16,0,0,0-.1.13c0,.06.05.11.13.15"/><path class="cls-1" d="M26.24,9.23h0l-.06,0a1.55,1.55,0,0,0,.83.31c.13,0,.18,0,.19-.06a.11.11,0,0,0,0-.11A3,3,0,0,0,24.4,7.9l-.44,0c-.05,0-.09,0-.09,0s.19.2.39.21a3.59,3.59,0,0,1,.47,0,2.06,2.06,0,0,1,1.74.68c.09.12.12.21.08.28s-.14.13-.31.13"/><path class="cls-1" d="M25.56,8.62a2.36,2.36,0,0,0-.29,0s-.05,0-.05,0,0,.06.11.1a.93.93,0,0,0,.38.07.66.66,0,0,0,.21,0c.06,0,.06-.06.06-.06s0,0-.1-.09a.89.89,0,0,0-.32-.05"/><path class="cls-1" d="M28,8.9a.46.46,0,0,1-.26-.12,1.94,1.94,0,0,0-.93-.62h-.11l0,0a3.43,3.43,0,0,0,1.75,1.2l.17,0a.23.23,0,0,0,.11,0,.14.14,0,0,0,0-.09.82.82,0,0,0-.64-.78.39.39,0,0,1,0,.33A.19.19,0,0,1,28,8.9"/><path class="cls-1" d="M29.29,35.8a.29.29,0,0,0,.16,0l.06,0a.26.26,0,0,1-.17-.2.58.58,0,0,1,.21-.49c1-.53,1.3-1,1.17-1.78a.1.1,0,0,0,0-.1.27.27,0,0,0-.19-.07.3.3,0,0,0-.28.18,1.74,1.74,0,0,1-.55,1.1,5.87,5.87,0,0,1-2.81.85.94.94,0,0,0-.93.55l-.35.88a.38.38,0,0,1-.4.35l-.86-.08a.31.31,0,0,1-.23-.1A.29.29,0,0,1,24,36.6a7.08,7.08,0,0,1,.3-2.11.78.78,0,0,0-.07-.65c0-.05-.07-.08-.09-.08s-.05,0-.11.14a6.71,6.71,0,0,0-.49,2.94c0,.27.07.43.31.48l1.79.14c.25,0,.37-.11.38-.33.09-.91.4-1.38.89-1.39l1.43-.23h.1c.21,0,.3.06.34.13a1,1,0,0,0,.48.17"/><path class="cls-1" d="M28.32,32.73h-.08c-.25.06-.32.22-.31.34s.1.22.21.22a.24.24,0,0,0,.14,0,1.5,1.5,0,0,1,.58-.39,1.23,1.23,0,0,0-.54-.12"/><path class="cls-1" d="M27.92,34.43h.13a1.36,1.36,0,0,0,.51-.32,2.74,2.74,0,0,1-.71-.13h-.07a.19.19,0,0,0-.19.2.23.23,0,0,0,.08.18.31.31,0,0,0,.25.09"/><path class="cls-1" d="M27.21,33.09a1.59,1.59,0,0,1,.42-.56h-.16a1.22,1.22,0,0,0-.49.09c-.17.11-.24.24-.2.37a.25.25,0,0,0,.25.2.21.21,0,0,0,.18-.1"/><path class="cls-1" d="M25,36a.18.18,0,0,0,.17-.15,1.44,1.44,0,0,1,.23-.66,1.23,1.23,0,0,0-.55.26c-.16.18-.13.32-.09.39A.25.25,0,0,0,25,36"/><path class="cls-1" d="M32.66,35.27a1.49,1.49,0,0,1,.82-.26,1.49,1.49,0,0,0-.79-.38c-.7,0-.51.85,0,.64"/><path class="cls-1" d="M33.62,34.13a1.76,1.76,0,0,1,.17-.68,1.09,1.09,0,0,0-.53.28.35.35,0,0,0-.08.39.3.3,0,0,0,.26.17.19.19,0,0,0,.18-.16"/><path class="cls-1" d="M34.93,33.77h-.16a1.17,1.17,0,0,0-.48.11.32.32,0,0,0-.19.38.26.26,0,0,0,.24.2.24.24,0,0,0,.18-.1,1.51,1.51,0,0,1,.41-.58"/><path class="cls-1" d="M34.11,35.28h.13a1.32,1.32,0,0,0,.53-.33,2.36,2.36,0,0,1-.74-.13H34a.19.19,0,0,0-.2.2.28.28,0,0,0,.09.19.37.37,0,0,0,.26.09"/><path class="cls-1" d="M26.21,34.28a.26.26,0,0,0,.25.18.35.35,0,0,0,.29-.18,1.37,1.37,0,0,0,.16-.59,2.33,2.33,0,0,1-.6.36.19.19,0,0,0-.1.23"/><path class="cls-1" d="M22.94,32.61a1.32,1.32,0,0,0-.73.41,1.48,1.48,0,0,1,.83.23c.49.19.59-.66-.1-.64"/><path class="cls-1" d="M21.19,32a.23.23,0,0,0,.21-.18.38.38,0,0,0-.22-.39,1.33,1.33,0,0,0-.45-.07h-.17a1.46,1.46,0,0,1,.45.53.22.22,0,0,0,.18.1"/><path class="cls-1" d="M20.17,32c0-.14-.08-.3-.36-.34a1.15,1.15,0,0,0-.57.18,1.38,1.38,0,0,1,.61.32.25.25,0,0,0,.14,0c.11,0,.17-.11.18-.2"/><path class="cls-1" d="M20.44,32.85a1.34,1.34,0,0,1-.79.23,1.45,1.45,0,0,0,.75.38c.68,0,.51-.8,0-.61"/><path class="cls-1" d="M21.37,32.88a.63.63,0,0,0,.21,0,.26.26,0,0,0,.26-.25.2.2,0,0,0-.23-.2l-.27,0a1.53,1.53,0,0,1-.41,0,1.28,1.28,0,0,0,.44.43"/><path class="cls-1" d="M16.7,31.84a.53.53,0,0,0,.25.07.23.23,0,0,0,.23-.23c0-.06,0-.21-.24-.22a1.56,1.56,0,0,1-.61-.12,1.33,1.33,0,0,0,.37.5"/><path class="cls-1" d="M15,32a.49.49,0,0,0,.22.06.24.24,0,0,0,.24-.24.2.2,0,0,0-.2-.22h-.14a1.4,1.4,0,0,1-.51-.09A1.27,1.27,0,0,0,15,32"/><path class="cls-1" d="M14.28,30.47h-.13a1.29,1.29,0,0,0-.48.12,1.33,1.33,0,0,1,.38.27h0a.53.53,0,0,0,.14.1l.12,0a.26.26,0,0,0,.25-.21c0-.13-.1-.24-.29-.31"/><path class="cls-1" d="M11.24,28.54v0a.26.26,0,0,0,.26.22.19.19,0,0,0,.16-.08.37.37,0,0,0,0-.34,1.16,1.16,0,0,0-.42-.45,1.37,1.37,0,0,1,0,.46c0,.13,0,.16,0,.17"/><path class="cls-1" d="M10.69,27.93a1.3,1.3,0,0,0-.41-.45,1.71,1.71,0,0,1,0,.47.5.5,0,0,0,0,.17h0a.24.24,0,0,0,.25.22.19.19,0,0,0,.16-.07.4.4,0,0,0,0-.35"/><path class="cls-1" d="M10.55,28.79h-.09a1.78,1.78,0,0,1-.55-.2,1.1,1.1,0,0,0,.36.6.41.41,0,0,0,.2.06.24.24,0,0,0,.24-.19.23.23,0,0,0-.16-.26"/><path class="cls-1" d="M11.47,30a.4.4,0,0,0,.23.09.24.24,0,0,0,.23-.18.24.24,0,0,0-.15-.27l-.08,0a1.46,1.46,0,0,1-.53-.24,1.2,1.2,0,0,0,.3.63"/><path class="cls-1" d="M24,31.79a.31.31,0,0,0,0-.18A3.53,3.53,0,0,1,24,31c0-.05,0-.13-.22-.17h-.12a.84.84,0,0,0-.82.61.87.87,0,0,0,.34,1,.3.3,0,0,0,.13,0h0a.54.54,0,0,0,0-.21.35.35,0,0,1,0-.29c.09-.12.26-.17.57-.18Z"/><path class="cls-1" d="M25,34.06h0a.25.25,0,0,0,.15,0v0c-.19-.16-.27-.28-.27-.4s.11-.26.27-.38a.23.23,0,0,0,0-.31,1.69,1.69,0,0,1-.38-.44.17.17,0,0,0-.15-.1.35.35,0,0,0-.22.1.83.83,0,0,0-.3,1,.87.87,0,0,0,.84.63"/><path class="cls-1" d="M31.05,33.9h0a.52.52,0,0,0,.27.05.76.76,0,0,0,.7-.58.94.94,0,0,0-.42-1.08.25.25,0,0,0-.17-.07.23.23,0,0,0-.14.07,3.78,3.78,0,0,1-.38.47.19.19,0,0,0,0,.17.21.21,0,0,0,.13.13.51.51,0,0,1,.28.37c0,.14-.07.29-.27.46"/><path class="cls-1" d="M29.56,32.72a.64.64,0,0,0,.38.14.59.59,0,0,0,.25-.07,1.63,1.63,0,0,0,.91-.8.57.57,0,0,0-.12-.53.77.77,0,0,0-.6-.3h-.11a1.23,1.23,0,0,1-.92-.49.88.88,0,0,0-.4-.3.3.3,0,0,0-.13,0c-.05,0-.05,0-.05,0v.06a1.2,1.2,0,0,0,.4.58,3.93,3.93,0,0,0,.75.42c.15.1.22.2.22.3s-.1.2-.29.29a.37.37,0,0,1-.14,0c-.14,0-.25-.1-.37-.29a4.85,4.85,0,0,0-.85-1l-.08,0-.1,0A.75.75,0,0,0,28,31c-.06.09-.12.13-.18.13a.32.32,0,0,1-.17-.07l-.1,0a5,5,0,0,0-1.21,1,.48.48,0,0,1-.23.11h0l-.08,0,0,0v0c0-.08,0-.19.12-.29a4.08,4.08,0,0,0,1-.86.27.27,0,0,0,0-.12.23.23,0,0,0-.11-.15.84.84,0,0,0-.4-.09,1.65,1.65,0,0,0-.45.08,1.86,1.86,0,0,1-.42,0,2.82,2.82,0,0,1-.72-.1.4.4,0,0,0-.19,0,.37.37,0,0,0-.34.18c0,.08-.06.17-.08.24a2.14,2.14,0,0,0,0,.63,1,1,0,0,0,.09.21.14.14,0,0,0,.14.07.51.51,0,0,0,.25-.08.68.68,0,0,0,.34-.62.32.32,0,0,1,.21-.2,2.3,2.3,0,0,1,.78-.16.9.9,0,0,1,.24,0c.1,0,.17.06.18.13s-.06.15-.13.19a4.16,4.16,0,0,1-1.06.53c-.25.11-.33.31-.29.65,0,.16.17.35.49.59a.58.58,0,0,0,.28.07.57.57,0,0,0,.5-.35c0-.11.12-.21.32-.32a3.7,3.7,0,0,0,.72-.62.21.21,0,0,1,.14-.07c.11,0,.14.11.17.23l0,.1c.06.12.13.17.2.17s.2-.07.32-.22a.24.24,0,0,1,.17-.09h.08c.05.05.05.12,0,.25s0,.1,0,.12a.17.17,0,0,1,.13-.05.45.45,0,0,1,.26.09Z"/><path class="cls-1" d="M24.92,28.75a.16.16,0,0,0-.12.06.15.15,0,0,0,0,.13l.84,1.13a.56.56,0,0,0,.4.22.23.23,0,0,0,.19-.09.39.39,0,0,0,0-.35c0-.08-.06-.12-.08-.12l-.05.06a.26.26,0,0,1-.19.1.22.22,0,0,1-.18-.1l-.72-1a.19.19,0,0,0-.13-.05"/><path class="cls-1" d="M27.51,30.65l.16,0c.08,0,.19,0,.23-.27a1.69,1.69,0,0,0-.12-1l-.67-1.49a.57.57,0,0,0-.07-.12s0,0-.08.14a.94.94,0,0,0,.17.74c.11.17.2.36.31.56l.13.25a.53.53,0,0,1,0,.48.23.23,0,0,1-.19.11.33.33,0,0,1-.25-.12l-.66-1a1.13,1.13,0,0,0-.59-.58.31.31,0,0,0-.18,0h0a.29.29,0,0,0,0,.11,7.91,7.91,0,0,1,.5.73v0a3.44,3.44,0,0,0,1.28,1.4"/><path class="cls-1" d="M26.6,28.56v.1l.5.89h0a.13.13,0,0,0,.11-.06.16.16,0,0,0,0-.15l-.5-.77-.05,0Z"/><path class="cls-1" d="M25.86,29.55h0a.14.14,0,0,0,.1-.07s0-.1,0-.14l-.42-.64,0,0-.05,0,0,.1Z"/><path class="cls-1" d="M28.66,29.94a.54.54,0,0,0,.19,0,.13.13,0,0,0,.1,0s0-.07,0-.14a6.6,6.6,0,0,0-.41-1.71,1.49,1.49,0,0,1-.14-.51c0-.06,0-.1-.05-.14l-.08.06a.67.67,0,0,0,0,.62l.33.87c0,.15,0,.24,0,.31l-.05,0h0a.25.25,0,0,1-.19-.12,2.12,2.12,0,0,1-.28-.81c-.09-.36-.19-.4-.28-.43h-.1v0a3,3,0,0,0,1,1.92"/><path class="cls-1" d="M27.31,23.31a.2.2,0,0,0-.13.12.29.29,0,0,0,0,.26,5.43,5.43,0,0,1,.63,2.77c0,.31-.19.33-.23.33a.34.34,0,0,1-.26-.16,9.4,9.4,0,0,1-.61-1.27v0c-.15-.33-.31-.71-.48-1a.16.16,0,0,0-.05-.06s0,0-.07.16a.88.88,0,0,0,.1.58c.15.29.3.62.42.89h0a4.74,4.74,0,0,0,.86,1.49.34.34,0,0,0,.24.09c.11,0,.19-.07.27-.22.36-.63-.05-2.93-.57-3.89,0-.06-.05-.06-.07-.06"/><path class="cls-1" d="M27.33,26s.08,0,.09-.13a2.7,2.7,0,0,0-.83-2,.13.13,0,0,0-.1,0s-.07,0-.08,0a.15.15,0,0,0,0,.17,7,7,0,0,1,.84,1.86s0,.07.06.07"/><path class="cls-1" d="M26.12,28.08a.35.35,0,0,0,.2.05c.08,0,.28,0,.34-.33a5.31,5.31,0,0,0-.92-3,.17.17,0,0,0-.13-.06.19.19,0,0,0-.18.09.13.13,0,0,0,0,.13,8.54,8.54,0,0,0,.4,1l0,.05a7.22,7.22,0,0,1,.48,1.19.4.4,0,0,1,0,.35.17.17,0,0,1-.14.07.33.33,0,0,1-.23-.11,7.7,7.7,0,0,1-1-1.38l0-.07a6.26,6.26,0,0,0-.5-.76.28.28,0,0,0-.2-.13l-.07,0a.34.34,0,0,0,0,.28,8.79,8.79,0,0,0,2,2.62"/><path class="cls-1" d="M24.36,24.63l-.07,0,0,.07a9,9,0,0,1,1.29,2.05l.07.06,0,0a.22.22,0,0,0,0-.17,3.41,3.41,0,0,0-1.33-2Z"/><path class="cls-1" d="M24.74,28.34c.19,0,.31-.17.31-.44a4.28,4.28,0,0,0-1.4-2.36.27.27,0,0,0-.16-.07l0,0,0,0a11.08,11.08,0,0,1,1.27,1.78.44.44,0,0,1,0,.43.24.24,0,0,1-.2.11.33.33,0,0,1-.25-.12,20.3,20.3,0,0,0-2-2.38.17.17,0,0,0-.12-.06l-.07.05s0,.09.05.13a29.63,29.63,0,0,1,2.14,2.62.64.64,0,0,0,.44.22"/><path class="cls-1" d="M22.63,25.05h0a.35.35,0,0,0,0,.24l1.65,2,.09,0,0,0a.24.24,0,0,0-.05-.14l-1.65-2.09Z"/><path class="cls-1" d="M29.23,9.52a2.31,2.31,0,0,0,1,.51.15.15,0,0,0,.1,0,.39.39,0,0,0,.11-.35.55.55,0,0,0-.36-.37h0a.34.34,0,0,1-.08.24.28.28,0,0,1-.2.08.3.3,0,0,1-.31-.26.77.77,0,0,0-.34-.48h0a.68.68,0,0,1,.07.45.21.21,0,0,0,0,.22"/><path class="cls-1" d="M27.13,10.73a.78.78,0,0,1-.22,0h0a.27.27,0,0,0,0,.08,1.12,1.12,0,0,0,.68.28.34.34,0,0,0,.3-.15c.08-.14,0-.41-.16-.72l0-.06v0s0-.11-.3-.36h0c0,.07-.09.12-.21.14a2.06,2.06,0,0,1-.26,0l-.34,0,0,0a.21.21,0,0,0,.17.16c.61,0,.83.2.83.39s-.17.27-.39.27"/><path class="cls-1" d="M27.38,11.75c.46.15.59.45.56.67a.34.34,0,0,1-.31.31.59.59,0,0,1-.35-.16.61.61,0,0,0,0,.21,1.1,1.1,0,0,0,.85.59.28.28,0,0,0,.25-.12.52.52,0,0,0,0-.47,2.52,2.52,0,0,1-.28-1.25c0-.09,0-.12-.05-.14l-.14.07a.67.67,0,0,1-.28.06,1.06,1.06,0,0,1-.51-.15l-.06.05a.08.08,0,0,0,0,.1Z"/><path class="cls-1" d="M25.78,18.85a.32.32,0,0,0,0,.29,13.69,13.69,0,0,1,.85,1.34l.05.07c.22.38.4.69.54.89s.12.11.17.11.12-.11.12-.25a6.6,6.6,0,0,0-1.4-3.25l0,.05a.21.21,0,0,0,0,.23A7.2,7.2,0,0,1,27,20.14a.25.25,0,0,1,0,.24l-.05,0h0q-.11,0-.18-.15a7.62,7.62,0,0,0-.86-1.41l-.07-.05Z"/><path class="cls-1" d="M24.91,20.58a.11.11,0,0,0-.09.05.39.39,0,0,0,0,.3c.32.66.69,1.44,1.13,2.17a.69.69,0,0,0,.54.33.59.59,0,0,0,.45-.28,1.46,1.46,0,0,0,0-1.33,13.46,13.46,0,0,0-1.4-2.35.16.16,0,0,0-.1,0,.11.11,0,0,0-.09,0,.32.32,0,0,0,0,.27,12.18,12.18,0,0,1,1.33,2.37.66.66,0,0,1,0,.64.32.32,0,0,1-.27.16.37.37,0,0,1-.32-.19A13.55,13.55,0,0,1,25,20.66a.19.19,0,0,0-.12-.08"/><path class="cls-1" d="M26.22,22.15a.18.18,0,0,0,.15-.09.23.23,0,0,0,0-.21l-1-1.77c0-.07-.05-.08-.06-.08s0,0,0,0a.47.47,0,0,0,0,.4l.94,1.68a.1.1,0,0,0,.08,0"/><path class="cls-1" d="M25.1,24.53a.71.71,0,0,0,.59-.35,1,1,0,0,0-.07-1,13.53,13.53,0,0,1-1-2.09c0-.12-.11-.18-.18-.18a.22.22,0,0,0-.16.11.16.16,0,0,0,0,.15,18.29,18.29,0,0,0,1.06,2.2.53.53,0,0,1,0,.56.33.33,0,0,1-.29.17.51.51,0,0,1-.39-.21,8.77,8.77,0,0,1-.84-1.25l-.07-.12c-.17-.28-.34-.56-.51-.8a.17.17,0,0,0-.15-.08.2.2,0,0,0-.17.11.16.16,0,0,0,.05.18l1.43,2.21a.8.8,0,0,0,.65.38"/><path class="cls-1" d="M23.65,21.46l1,1.89a.29.29,0,0,0,.19.12l.06,0s0-.1-.05-.31L23.76,21a.08.08,0,0,0-.07-.05h-.05v.1a.19.19,0,0,1,0,.15.21.21,0,0,0,0,.23"/><path class="cls-1" d="M23.87,25a.77.77,0,0,0,.05-.65,8.94,8.94,0,0,0-1.24-2.24L22.59,22a.29.29,0,0,0-.25-.11.19.19,0,0,0-.12,0s0,0,.05.09a15.26,15.26,0,0,1,1.31,2.19.35.35,0,0,1,0,.37.25.25,0,0,1-.23.15.32.32,0,0,1-.24-.12,20.55,20.55,0,0,1-1.86-2.34.17.17,0,0,0-.15-.06.16.16,0,0,0-.14.07.19.19,0,0,0,0,.19A15.88,15.88,0,0,0,23,25a.77.77,0,0,0,.56.22.46.46,0,0,0,.36-.15"/><path class="cls-1" d="M21.47,21.89A5.93,5.93,0,0,0,23,24,.18.18,0,0,0,23,24l0,0a.21.21,0,0,0,0-.16,23.4,23.4,0,0,0-1.48-2.08h-.08a.27.27,0,0,0,0,.13"/><path class="cls-1" d="M22,25c.08,0,.13,0,.15-.05s0-.09,0-.24a12,12,0,0,0-1.74-2.36.24.24,0,0,0-.17-.08l-.05,0a.15.15,0,0,0,0,.09c.38.49.81,1.05,1.15,1.56a.22.22,0,0,1,.05.22h0l0,.05H21.3a.29.29,0,0,1-.17-.07,28.76,28.76,0,0,1-1.8-2.31.14.14,0,0,0-.13-.07.18.18,0,0,0-.16.27l.11.16c.73,1.08,1.64,2.43,2.78,2.78Z"/><path class="cls-1" d="M24.42,16.51a.82.82,0,0,0-.12.2c-.05.26,0,.32,0,.34h0l.09,0a1.28,1.28,0,0,0,.51-1l-.1-1.73c0-.1-.07-.16-.12-.16l-.09,0a.36.36,0,0,0-.06.22l0,.38c0,.2,0,.39,0,.58s0,.38,0,.56a.69.69,0,0,1-.16.61Z"/><path class="cls-1" d="M23.1,14.92A.17.17,0,0,0,23,15a5.34,5.34,0,0,0-.28,2.16.48.48,0,0,0,.49.42,1,1,0,0,0,.87-.75,8.52,8.52,0,0,0,.12-2.3c0-.14-.06-.23-.12-.23l-.09,0a.26.26,0,0,0-.06.18,5.56,5.56,0,0,1-.16,2.13c-.18.29-.35.46-.5.46s-.22,0-.25-.33a7.57,7.57,0,0,1,.17-1.76.13.13,0,0,0-.08-.13"/><path class="cls-1" d="M23.52,16.51a4.66,4.66,0,0,0,.08-1.84c0-.08-.05-.12-.06-.12s-.08,0-.09.13l-.08,1.85c0,.07,0,.07.06.07s.07,0,.09-.09"/><path class="cls-1" d="M21.15,17.57a.32.32,0,0,1-.25-.12c-.06-.09,0-.23,0-.43l.38-1.37a.12.12,0,0,0,0-.12l-.07,0c-.05,0-.11.05-.15.13a7.27,7.27,0,0,1-.33,1c-.09.23-.17.44-.27.73a.62.62,0,0,0,0,.35.79.79,0,0,0,.7.25h.05c.69-.09,1-.34,1.09-.77l.26-1.8a.26.26,0,0,0-.06-.18l-.08,0c-.06,0-.13.06-.17.21L22,16.71c-.1.57-.37.85-.83.86"/><path class="cls-1" d="M21.81,15.25a.17.17,0,0,0-.14.13,12.9,12.9,0,0,1-.27,1.5.2.2,0,0,0,0,.11l.06,0c.06,0,.14-.08.18-.19a11.12,11.12,0,0,0,.21-1.49c0-.09,0-.09-.05-.09"/><path class="cls-1" d="M19.18,17.62a1,1,0,0,0,.41.09.68.68,0,0,0,.59-.4l.51-1.45c0-.12,0-.16-.05-.19a.18.18,0,0,0-.05.08,9.38,9.38,0,0,1-.67,1.44.47.47,0,0,1-.34.2.3.3,0,0,1-.25-.13.36.36,0,0,1,0-.36,8,8,0,0,0,.56-1.29.13.13,0,0,0,0-.15.15.15,0,0,0-.1.09,8.77,8.77,0,0,1-.71,1.4.56.56,0,0,0-.1.44.41.41,0,0,0,.22.23"/><path class="cls-1" d="M20.12,15.69a5.53,5.53,0,0,1-.5,1.17.17.17,0,0,0,0,.14l0,0a.15.15,0,0,0,.11-.07,3.31,3.31,0,0,0,.51-1.19.15.15,0,0,0-.08-.16s-.07,0-.08.09"/><path class="cls-1" d="M19.3,15.63s0,0-.06.06a7.47,7.47,0,0,1-.56.94.18.18,0,0,0,0,.12l.05,0h.06a2.66,2.66,0,0,0,.58-1,.11.11,0,0,0-.05-.11"/><path class="cls-1" d="M18,17a.66.66,0,0,0,.47.31.21.21,0,0,0,.16-.1v-.08L18.39,17a.31.31,0,0,1-.1-.13.43.43,0,0,1,.09-.26,3.41,3.41,0,0,0,.52-.71.21.21,0,0,0,0-.21l0,0a.12.12,0,0,0-.09.08,9.43,9.43,0,0,1-.73.93c-.12.15-.14.25-.08.36"/><path class="cls-1" d="M17.88,17.61a2.2,2.2,0,0,0-.47,1.81,3.76,3.76,0,0,0,.32.83c.06.15.15.33.22.53a2.2,2.2,0,0,1,.13.8s0,.13.21.12a1.18,1.18,0,0,0,.29-.05.69.69,0,0,0,.44-.33.57.57,0,0,0,0-.41c-.6-1.34-.63-2.19-.11-2.9a.19.19,0,0,0,0-.18.16.16,0,0,0-.13-.07.19.19,0,0,0-.15.08A1.46,1.46,0,0,0,18.2,19a3.15,3.15,0,0,0,.19.91c.07.22.14.46.2.72a.25.25,0,0,1,0,.24.15.15,0,0,1-.13.07c-.05,0-.15,0-.23-.22s-.15-.46-.21-.63v0a3.23,3.23,0,0,1-.25-.93,2.08,2.08,0,0,1,.42-1.37h0a.21.21,0,0,0,0-.18c0-.05-.08-.07-.15-.07a.2.2,0,0,0-.17.09"/><path class="cls-1" d="M19.07,20.15a3.9,3.9,0,0,0,.79,1.66.85.85,0,0,0,.57.2.68.68,0,0,0,.7-.54.84.84,0,0,0-.08-.47L21,20.82a4.27,4.27,0,0,1,0-2.3.14.14,0,0,0,0-.14.2.2,0,0,0-.14-.05.21.21,0,0,0-.2.1,4.08,4.08,0,0,0,0,2.5.47.47,0,0,1-.07.42.32.32,0,0,1-.26.13A.41.41,0,0,1,20,21.3a3,3,0,0,1-.38-3,.23.23,0,0,0,0-.24.16.16,0,0,0-.13-.06.21.21,0,0,0-.18.12,2.6,2.6,0,0,0-.2,2.07"/><path class="cls-1" d="M20.27,18.07a.14.14,0,0,0-.11-.06.2.2,0,0,0-.17.13,3.12,3.12,0,0,0,.11,2.63.14.14,0,0,0,.1.05l0,0s0-.06,0-.2a3.17,3.17,0,0,1,0-2.38.12.12,0,0,0,0-.15"/><path class="cls-1" d="M21.65,18.31a.18.18,0,0,0-.1,0,.2.2,0,0,0-.18.15,4.59,4.59,0,0,0,0,2.39,1,1,0,0,0,.94.73.82.82,0,0,0,.81-.77A9.1,9.1,0,0,1,23,18.16.2.2,0,0,0,23,18a.23.23,0,0,0-.16-.06.12.12,0,0,0-.13.11,6.4,6.4,0,0,0-.11,2.07,1.28,1.28,0,0,0,0,.17.7.7,0,0,1-.06.55.35.35,0,0,1-.26.13.53.53,0,0,1-.42-.28,4,4,0,0,1-.13-2.26.17.17,0,0,0-.05-.13"/><path class="cls-1" d="M22.24,18.11l-.06,0a.15.15,0,0,0-.12.12A7.22,7.22,0,0,0,22,20.28a.17.17,0,0,0,.16.13c.07,0,.15-.05.16-.18a8.79,8.79,0,0,1,0-2.06Z"/><path class="cls-1" d="M24.2,17.47a.65.65,0,0,0,0,.41,4.42,4.42,0,0,1,.28,1.83.43.43,0,0,1-.38.36.36.36,0,0,1-.33-.25,6.59,6.59,0,0,1-.18-1.74.17.17,0,0,0-.17-.16.22.22,0,0,0-.12,0,.21.21,0,0,0,0,.14,4.87,4.87,0,0,0,.39,2.36.48.48,0,0,0,.41.2c.29,0,.59-.27.8-.73a3.4,3.4,0,0,0-.51-2.43l-.08-.05Z"/><path class="cls-1" d="M24.08,19.43s.06-.08.06-.14c-.09-.49-.16-.95-.2-1.43,0-.11-.07-.15-.1-.14s-.06,0-.06.1A6,6,0,0,0,24,19.39Z"/><path class="cls-1" d="M25.24,16.65a.6.6,0,0,0,0,.11,1.53,1.53,0,0,0,.13.54l0,0a1.24,1.24,0,0,1,.13.58.2.2,0,0,1-.18.19.19.19,0,0,1-.1,0c-.17,0-.28-.34-.31-.48s.09-.15.12-.11.09.12.11.1-.07-.44-.07-.44a.19.19,0,0,0-.16-.05.35.35,0,0,0-.19.09c-.09,0-.14.09-.09.25a2.72,2.72,0,0,0,.58,1.24.21.21,0,0,0,.12.05.33.33,0,0,0,.22-.14,1.66,1.66,0,0,0-.23-1.87.21.21,0,0,0-.07-.05"/><path class="cls-1" d="M26,16.35h-.09s-.07,0-.08,0,0,0,0,.08a.88.88,0,0,0,.18.24c.17.2.38.43.13.68-.07,0-.07.06,0,.15a.2.2,0,0,0,.18.12.41.41,0,0,0,.2-.06l.32-.41,0-.09s0,0-.06,0-.34-.2-.47-.37a1.15,1.15,0,0,0-.36-.34"/><path class="cls-1" d="M27,16.3a.26.26,0,0,1-.15,0L26.41,16h-.08a.14.14,0,0,0-.11.07.15.15,0,0,0,0,.13,3.3,3.3,0,0,0,.58.6.43.43,0,0,0,.21.08.28.28,0,0,0,.16-.07l.32-.35a1.27,1.27,0,0,0,.42-.55c0-.1,0-.14,0-.15s0,0-.12,0a1.35,1.35,0,0,1-.81-.43l-.07,0a.14.14,0,0,0-.13.09.12.12,0,0,0,0,.12l.39.42a.28.28,0,0,1,0,.29.28.28,0,0,1-.24.16"/><path class="cls-1" d="M27.79,14.75a.36.36,0,0,1-.27-.14s-.05,0-.07,0,0,0-.09,0-.15.29-.09.37a1,1,0,0,0,.63.38.48.48,0,0,0,.36-.26,2.91,2.91,0,0,0,.25-.95.19.19,0,0,0,0-.16.39.39,0,0,0-.13-.06h0l-.07,0a4.41,4.41,0,0,1-.75-.47v0c0,.15,0,.25.06.31l.37.3a.49.49,0,0,1,.1.51.25.25,0,0,1-.23.17"/><path class="cls-1" d="M35.19,32.87a.38.38,0,0,0,0-.37c0-.09-.07-.11-.25-.13s-.53-.07-.54-.51V31.7l-.08,0a.75.75,0,0,0-.47.45,1.51,1.51,0,0,1-.13.24.62.62,0,0,1-.39.18c-.16,0-.29-.09-.41-.3a.3.3,0,0,0,0-.11.56.56,0,0,0-.09.12.61.61,0,0,0-.09.46,1.27,1.27,0,0,1-.17.79,1.45,1.45,0,0,1-1.16.89,1.33,1.33,0,0,1-.32,0H31a.17.17,0,0,0-.15.14.17.17,0,0,0,0,.16,1.91,1.91,0,0,0,.6.11,1.5,1.5,0,0,0,1.13-.63c.48-.69,1.08-1.54,1.76-1.55a.84.84,0,0,1,.43.11h0a.4.4,0,0,0,.28.19.15.15,0,0,0,.12-.07"/><path class="cls-1" d="M36.82,34.94a.44.44,0,0,1-.4-.15c-.08-.11-.06-.26,0-.46l0,0h-.16c-.36.06-.43.18-.45.38a.28.28,0,0,1-.2.35,5.82,5.82,0,0,1-2.46.66,6.39,6.39,0,0,1-1.89-.31c-.37-.1-.67-.18-1-.25s-.36.08-.39.17a.16.16,0,0,0,.07.14l.73.25c.1,0,.4.09.43.38s.24.51.46.5h.1v0a.42.42,0,0,1,0-.33.17.17,0,0,1,.15-.13.41.41,0,0,1,.16,0,6.34,6.34,0,0,0,1.3.11,5.49,5.49,0,0,0,.83-.06h.1a.22.22,0,0,1,.2.08,1.15,1.15,0,0,0,.69.28.46.46,0,0,0,.32-.12h0c-.13,0-.23-.13-.31-.32s0-.21.18-.25a2,2,0,0,0,.77-.38.37.37,0,0,1,.29-.11h0c.5,0,.6-.15.64-.25v-.12h-.21"/><path class="cls-1" d="M36.93,33.15a1.07,1.07,0,0,1-.85.45.89.89,0,0,1-.36-.07.37.37,0,0,1-.15-.27c0-.18.14-.39.42-.64a.84.84,0,0,1,.5-.19.48.48,0,0,1,.42.2.52.52,0,0,1,0,.52m-.51-1a.82.82,0,0,0-.52.19c-.71.6-.87,1.06-.51,1.53a1.31,1.31,0,0,0,.67.19,1.87,1.87,0,0,0,1.16-.55.81.81,0,0,0,0-.86.94.94,0,0,0-.83-.5"/><path class="cls-1" d="M38.56,32.9c0-.16-.08-.17-.14-.16h-.08a2.32,2.32,0,0,0-.45.13.14.14,0,0,0-.11.14.16.16,0,0,0,.08.18,2.36,2.36,0,0,0,.56.15h.06a.1.1,0,0,0,.08,0s0-.05,0-.1a.67.67,0,0,1,0-.31"/><path class="cls-1" d="M38.3,32.18a3.29,3.29,0,0,1-.27-.34c-.05-.05-.08-.08-.1-.08s-.06,0-.12.08a1.13,1.13,0,0,0-.32.38.28.28,0,0,0,0,.25.32.32,0,0,0,.21.1,1.15,1.15,0,0,0,.56-.25c.06-.06.06-.09,0-.14"/><path class="cls-1" d="M37.33,31.29a.22.22,0,0,0-.14-.08s-.06,0-.11.09a1.15,1.15,0,0,0-.14.32c0,.13,0,.22,0,.26a.21.21,0,0,0,.18.05h.11a.82.82,0,0,0,.38-.28l0-.07s0-.06-.08-.1a1.45,1.45,0,0,1-.26-.19"/><path class="cls-1" d="M39,31a.26.26,0,0,0-.27.19c0,.2-.1.35-.34.44-.09.05,0,.18,0,.18s.11.21.21.21l.08,0a.5.5,0,0,1,.43-.21l.22,0a.23.23,0,0,0,.2-.16.42.42,0,0,0-.13-.46A.48.48,0,0,0,39,31"/><path class="cls-1" d="M20.4,34.59c0,.12-.08.22-.29.3l.06,0,.2,0a.87.87,0,0,0,.48-.2,1,1,0,0,1,.57-.21,1.17,1.17,0,0,1,.46.09c.18.08.27.16.29.26a.24.24,0,0,1-.09.22h.13c.28,0,.48-.16.61-.5a1,1,0,0,1,.58-.39.7.7,0,0,0,.2-.46.15.15,0,0,0-.06-.16l-.09,0a3.41,3.41,0,0,1-1.67.44,8.88,8.88,0,0,1-3.34-.85.65.65,0,0,1-.38-.77l.43-1.31a1.06,1.06,0,0,1,1-.62,6,6,0,0,1,3,1.3l.06,0,0,0a.34.34,0,0,0-.05-.32L22,31.13a.52.52,0,0,1-.2-.42c0-.43-.22-.55-.4-.62h-.05a.35.35,0,0,0,0,.07l0,.34a.2.2,0,0,1-.19.13H21a1.51,1.51,0,0,1-1.19-.69c-.17-.22-.29-.37-.56-.37h-.13l.14.12a.28.28,0,0,1,.09.27c0,.1-.11.17-.28.22a.76.76,0,0,0-.27.05.51.51,0,0,1-.2.06.64.64,0,0,1-.3-.11h0a.74.74,0,0,0-.38-.12l-.2,0h0a.64.64,0,0,1,.27.81l-.52,1.59a1.11,1.11,0,0,0,.31,1.1c.37.14.55.27.56.43s-.08.21-.26.3h0a.73.73,0,0,0,.31.07.67.67,0,0,0,.45-.2.63.63,0,0,1,.39-.15.58.58,0,0,1,.26,0c.59.15.86.31.88.48"/><path class="cls-1" d="M17.51,31.25a.12.12,0,0,0,.1-.06.14.14,0,0,0,0-.14,1.94,1.94,0,0,0-.77-.76l-.09,0a.1.1,0,0,0-.1.06.15.15,0,0,0,0,.15,3.12,3.12,0,0,1,.75.75Z"/><path class="cls-1" d="M12.4,31.25c0,.37,0,.72-.34.78h0a.88.88,0,0,0,.43.13.91.91,0,0,0,.31-.09A.2.2,0,0,1,13,32a.27.27,0,0,1,.12,0l1,.5c.14.06.21.13.22.22s0,.16-.18.25a.65.65,0,0,0,.3.06.75.75,0,0,0,.46-.17.25.25,0,0,1,.21-.08h.1a4.87,4.87,0,0,0,.54,0,5.26,5.26,0,0,0,1.28-.16.34.34,0,0,0,.14-.35.13.13,0,0,0-.12-.1l-.08,0a4.46,4.46,0,0,1-1.17.19,4.7,4.7,0,0,1-2.68-.88q-.3-.11-.21-.66a4.09,4.09,0,0,1,.65-1.31.32.32,0,0,1,.25-.15h0l.29,0c.33,0,.37-.14.37-.25s0-.05,0-.05h-.14a.93.93,0,0,1-.62-.29.59.59,0,0,0-.37-.21h-.05a.44.44,0,0,1,.11.28.41.41,0,0,1-.16.31,3.06,3.06,0,0,0-.88,2"/><path class="cls-1" d="M15.14,30.37h0a1.18,1.18,0,0,1,0-1.06.47.47,0,0,1,.35-.18.45.45,0,0,1,.36.17.69.69,0,0,1,.06.64c-.11.39-.26.58-.47.58a.5.5,0,0,1-.33-.14m1.25-.31a1.07,1.07,0,0,0-.16-.9.85.85,0,0,0-.69-.31.64.64,0,0,0-.5.2,1.07,1.07,0,0,0-.24.86,1.42,1.42,0,0,0,.42,1,1.39,1.39,0,0,0,.32.05c.37,0,.66-.3.85-.88"/><path class="cls-1" d="M16.71,28.93a.75.75,0,0,0,.42-.22.17.17,0,0,0-.06-.25l-.25-.18-.08,0s-.1,0-.15.12a.56.56,0,0,0-.12.38c0,.12.09.18.19.18Z"/><path class="cls-1" d="M16.27,28,16,27.88h-.14a.2.2,0,0,0,0,.14l0,.42a.17.17,0,0,0,.16.12.34.34,0,0,0,.19-.07,2.54,2.54,0,0,0,.2-.24.28.28,0,0,0,0-.18s-.06-.07-.13-.09"/><path class="cls-1" d="M15.36,27.91A1.29,1.29,0,0,1,15,28s-.08,0-.1,0,0,.07,0,.23.21.4.35.4.11-.05.17-.14a.58.58,0,0,0,0-.19v-.2c0-.13,0-.16-.08-.19Z"/><path class="cls-1" d="M11,30.63a.27.27,0,0,1,.12,0,2.18,2.18,0,0,0,.72.12,1,1,0,0,0,.25,0,.17.17,0,0,0,.1-.15c0-.08-.1-.09-.15-.1a3.93,3.93,0,0,1-2.92-1.93.73.73,0,0,1,0-.8,2.43,2.43,0,0,1,1-.84.86.86,0,0,1,.4-.12A.62.62,0,0,1,11,27a5.06,5.06,0,0,1,1.45,2.3c0,.16.09.23.15.23s.13-.06.16-.19l-.09-.45a.47.47,0,0,1,0-.38c.31-.4.32-.7.06-1h0c-.1.28-.21.4-.34.41s-.2-.09-.3-.25a4,4,0,0,0-1-1.05c-.16-.09-.23-.2-.2-.32-.07-.46-.22-.5-.44-.54h0v0c.11.35,0,.6-.46.73a2.57,2.57,0,0,0-1.46,1.32c-.07.19-.18.24-.27.24a.59.59,0,0,1-.33-.15h0V28a.61.61,0,0,0,.39.6.28.28,0,0,1,.31.22,1.86,1.86,0,0,0,.37.5q.15.14.12.24c0,.09-.14.14-.37.17l0,0a.79.79,0,0,0,.61.21h.1a.32.32,0,0,1,.23.09l.45.27c.12.06.17.13.17.21s-.08.18-.26.28h0a.64.64,0,0,0,.34.12.48.48,0,0,0,.37-.2.25.25,0,0,1,.19-.11"/><path class="cls-1" d="M8.57,25c.1,0,.35,0,.5.44s.16.61.07.75a.29.29,0,0,1-.27.12H8.79a1.07,1.07,0,0,1-.63-.87A.44.44,0,0,1,8.57,25M8,25.14a1,1,0,0,0,.07.78,1.44,1.44,0,0,0,1,.76h.1a.55.55,0,0,0,.48-.3,1.24,1.24,0,0,0-.16-1.19,1,1,0,0,0-.79-.51.8.8,0,0,0-.65.45"/><path class="cls-1" d="M8.72,24.45a.31.31,0,0,0,.2-.13,1.24,1.24,0,0,0,.11-.4.16.16,0,0,0-.11-.19.67.67,0,0,0-.24,0l-.18,0c-.07,0-.09.11-.08.24,0,.3.16.5.3.5"/><path class="cls-1" d="M8.18,24.52a.69.69,0,0,0,0-.56.15.15,0,0,0,0-.1A.23.23,0,0,0,8,23.81a.48.48,0,0,0-.41.22s0,.1,0,.17c.16.28.33.38.43.37a.09.09,0,0,0,.09-.05"/><path class="cls-1" d="M7.39,24.29c-.12,0-.3.2-.34.35a.08.08,0,0,0,0,.11.71.71,0,0,0,.47.21.17.17,0,0,0,.17-.09c0-.12,0-.32-.26-.54Z"/><path class="cls-1" d="M7.27,23.27c.18.05.23.16.22.26s.1.15.18.14a.17.17,0,0,0,.16-.11.24.24,0,0,0,0-.26.26.26,0,0,1,0-.3.43.43,0,0,0-.06-.33.34.34,0,0,0-.25-.09.51.51,0,0,0-.48.29c0,.17.13.31.27.4"/><path class="cls-1" d="M16.79,34.33a.34.34,0,0,1-.24.09.4.4,0,0,1-.34-.2.44.44,0,0,1,.08-.47.31.31,0,0,1,.22-.09.41.41,0,0,1,.36.23.39.39,0,0,1-.08.44m.42,0a.67.67,0,0,0-.16-.75.65.65,0,0,0-.53-.24.69.69,0,0,0-.61.35.79.79,0,0,0,.11.82.7.7,0,0,0,.55.27.73.73,0,0,0,.64-.45"/><path class="cls-1" d="M13.44,36.85a.35.35,0,0,1-.23.09.34.34,0,0,1-.34-.2.42.42,0,0,1,.07-.47.33.33,0,0,1,.23-.09.38.38,0,0,1,.34.23.4.4,0,0,1-.07.44m-.28-1a.63.63,0,0,0-.58.34.81.81,0,0,0,.1.83.71.71,0,0,0,.53.26h0a.7.7,0,0,0,.62-.44.69.69,0,0,0-.15-.75.64.64,0,0,0-.53-.24"/><path class="cls-1" d="M31.74,39.72a.36.36,0,0,1-.24.09.41.41,0,0,1-.3-.7.32.32,0,0,1,.23-.09.44.44,0,0,1,.4.25.41.41,0,0,1-.09.45m-.32-1a.75.75,0,0,0-.65.37.83.83,0,0,0,.14.87.86.86,0,0,0,.61.29.78.78,0,0,0,.69-.47.71.71,0,0,0-.19-.79.77.77,0,0,0-.6-.27"/><path class="cls-1" d="M18.76,36.34A4.57,4.57,0,0,1,17.3,35a.21.21,0,0,0-.16-.12A.12.12,0,0,0,17,35a.24.24,0,0,0,0,.22,2.82,2.82,0,0,0,1.72,1.38c.06,0,.11,0,.12-.06s0-.1-.11-.15"/><path class="cls-1" d="M18.67,39.12a6.57,6.57,0,0,0-1.41-.23.11.11,0,0,0-.11.09.14.14,0,0,0,.12.15,5.91,5.91,0,0,1,1.42.52h.07s0,0,0-.08v-.31c0-.09,0-.1-.13-.15"/><path class="cls-1" d="M16.13,38.4a1.63,1.63,0,0,0-1,.46c0,.06-.06.11,0,.14s.06,0,.13,0a.86.86,0,0,0,.28-.08,1.22,1.22,0,0,1,.7-.3h.09c.21,0,.27.14.27.24a.21.21,0,0,1-.2.2.16.16,0,0,1-.12,0,.14.14,0,0,0-.13,0H16a1.5,1.5,0,0,0-.47.21l0,0-.11.06-.06,0s0,0,.06.06a2.09,2.09,0,0,0,.73.13.67.67,0,0,0,.62-.29.55.55,0,0,0,0-.54.68.68,0,0,0-.61-.32"/><path class="cls-1" d="M10.82,32.87c-.05,0-.13.05-.13.1s.16.2.43.26a1.35,1.35,0,0,1,.92.29c.17.15.14.27.12.31A.22.22,0,0,1,12,34a.2.2,0,0,1-.2-.15c0-.09-.06-.15-.21-.21a2.17,2.17,0,0,0-.57-.15l-.21,0h-.08a.12.12,0,0,0,0,.07c.56.73,1,.83,1.21.83a.46.46,0,0,0,.44-.26.62.62,0,0,0,0-.63,1.63,1.63,0,0,0-1.5-.57"/><path class="cls-1" d="M34.09,37A2.73,2.73,0,0,0,33,36.74a1.08,1.08,0,0,0-.72.24.68.68,0,0,0-.22.49c0,.31.25.63.78.62a2.44,2.44,0,0,0,1.15-.4.34.34,0,0,0,.06-.09.18.18,0,0,0-.1,0l-.23-.05a2.35,2.35,0,0,0-.67-.08c-.16,0-.23,0-.28.13a.18.18,0,0,1-.16.09.27.27,0,0,1-.25-.21s0-.2.22-.29a1.51,1.51,0,0,1,.37-.07,2,2,0,0,1,.68.14,1,1,0,0,0,.24,0c.21,0,.31-.07.32-.1s0-.1-.1-.15"/><path class="cls-1" d="M30.23,37.68a2.71,2.71,0,0,0,1.35-.29c.06,0,.12-.09.1-.16s-.11-.12-.21-.12l-.13,0a5.83,5.83,0,0,1-1.39.2c-.27,0-.56,0-.91,0-.13,0-.2.07-.21.14s.07.16.29.19a9.27,9.27,0,0,0,1.11,0"/><path class="cls-1" d="M30.3,38.75a.16.16,0,0,1-.07-.17c0-.07.1-.13.25-.17L31.72,38a.12.12,0,0,0,.07-.12c0-.05-.05-.16-.26-.16h0c-1.18.2-1.8.45-1.86.76s.13.39.49.61a.32.32,0,0,0,.16,0,.21.21,0,0,0,.19-.09s0-.11-.06-.16Z"/><path class="cls-1" d="M30.17,39.46,29,39.74a.17.17,0,0,0-.06.2.21.21,0,0,0,.2.18h.07l1.07-.26a.17.17,0,0,0,.07-.19c0-.09-.1-.2-.21-.2"/><path class="cls-1" d="M17.54,37.81c-.2-.6-1.43-1.12-3.13-1.34-.11,0-.18.06-.19.12s0,.15.16.2A7,7,0,0,1,17,37.7c.14.12.2.2.2.28s-.06.13-.11.19-.11.09-.11.18.07.2.17.19l.16,0a.69.69,0,0,0,.26-.71"/><path class="cls-1" d="M14.52,35.92c.05-.25-.25-.84-1.71-1.52l-.08,0a.07.07,0,0,0-.08,0,.17.17,0,0,0,.06.16l.27.18.14.11a3.88,3.88,0,0,1,.85.65.26.26,0,0,1,.1.18.19.19,0,0,1-.07.14c-.05.08,0,.1,0,.11a.62.62,0,0,0,.32.11q.18,0,.21-.15"/><path class="cls-1" d="M14.78,35.06c.22.09.43.18.6.27a3,3,0,0,0,.79.3h.09c.22,0,.37-.09.4-.22a.37.37,0,0,0-.29-.37l0,0a.26.26,0,0,1-.24.17.63.63,0,0,1-.2,0,22.16,22.16,0,0,1-2.83-1.4.3.3,0,0,0-.14-.05c-.06,0-.09,0-.1.06l0,.12a13.56,13.56,0,0,0,1.91,1.12"/><path class="cls-1" d="M4.3,20.44l0,0a.93.93,0,0,1,.46.38,1.2,1.2,0,0,1,0,.56,1.32,1.32,0,0,1-.08.42s-.06,0-.13,0L3.45,21.7l0-.37c0-.18.08-.25.11-.27A1,1,0,0,1,4,21H4l0-.17-1.2-.15,0,.17h0a.87.87,0,0,1,.34.14s.06.11,0,.29l0,.38-1-.14a.27.27,0,0,1-.11,0,.12.12,0,0,1,0-.07l.06-.53c0-.26.1-.36.14-.39a.7.7,0,0,1,.4-.08h0l0-.17-.77-.09L1.66,22.3l.17,0v0c0-.16.08-.22.12-.23S2,22,2.1,22h.16l2.14.28c.22,0,.28.07.3.09s0,.09,0,.26v0l.17,0,.28-2.16-.88-.3Z"/><path class="cls-1" d="M4.88,18.18a1,1,0,0,0-.53,0,2.09,2.09,0,0,0-.56.34l-.34.26a1.21,1.21,0,0,1-.33.2.54.54,0,0,1-.31,0,.41.41,0,0,1-.26-.17.36.36,0,0,1,0-.27.61.61,0,0,1,.26-.33,1.06,1.06,0,0,1,.67-.12h0l0-.17-1.11-.19,0,.15,0,0,.09.06a.06.06,0,0,1,0,.06s0,0-.13.18a.93.93,0,0,0-.17.3.68.68,0,0,0,.12.6,1,1,0,0,0,.57.35.87.87,0,0,0,.55,0,1.4,1.4,0,0,0,.3-.18L4.1,19a3.32,3.32,0,0,1,.41-.27.67.67,0,0,1,.4,0,.56.56,0,0,1,.34.21.42.42,0,0,1,.06.32.65.65,0,0,1-.44.44,2,2,0,0,1-.55.09h0l0,.16,1.12.16,0-.16h0l-.09-.05v-.05a1,1,0,0,1,.13-.19.94.94,0,0,0,.18-.36.74.74,0,0,0-.11-.66,1,1,0,0,0-.58-.4"/><path class="cls-1" d="M6.23,16.52c-.08.16-.14.22-.17.23a.57.57,0,0,1-.32-.06l-2.27-.87.06-.16a.65.65,0,0,1,.24-.35,1.3,1.3,0,0,1,.51,0h0l.06-.16-.85-.31L2.71,17l.84.35.06-.17,0,0a.9.9,0,0,1-.39-.32.51.51,0,0,1,.05-.42l.06-.16,2.22.85a.93.93,0,0,1,.32.18s0,.1,0,.29v0l.16.06.44-1.13-.16-.07Z"/><path class="cls-1" d="M6.09,14.16l-.36.68L4.89,14Zm1.52-.41a.36.36,0,0,1-.14.12,2.24,2.24,0,0,1-.35,0l-2.91-.43-.07.12,1.75,1.85a5.34,5.34,0,0,1,.45.52.26.26,0,0,1,0,.23v0l.15.08.4-.76-.15-.08,0,0a.6.6,0,0,1-.11.13s-.09,0-.15,0a.61.61,0,0,1-.12-.09l-.4-.41.44-.85.46.08.18,0,.11,0s.08,0,.08.06a.73.73,0,0,1-.06.2l0,0,.15.08.51-.95-.16-.08Z"/><path class="cls-1" d="M8.44,12.09a1.11,1.11,0,0,1-.25.7c-.07.1-.11.12-.12.12A.19.19,0,0,1,8,12.86L6,11.41c-.07-.05-.08-.09-.08-.1A.36.36,0,0,1,6,11.17a1.12,1.12,0,0,1,.73-.47h.15a1.66,1.66,0,0,1,.94.37,1.35,1.35,0,0,1,.67,1m.12-.93a2.2,2.2,0,0,0-.49-.52,1.56,1.56,0,0,0-1.56-.3,1.86,1.86,0,0,0-.72.61l-.64.88.14.1,0,0c.11-.12.18-.15.22-.15a.53.53,0,0,1,.28.14l1.74,1.27c.18.13.21.2.21.23s0,.1-.08.25v0l.13.1.67-.9a1.77,1.77,0,0,0,.32-.69,1.06,1.06,0,0,0,0-.4,1.32,1.32,0,0,0-.24-.62"/><path class="cls-1" d="M10.27,10.41a.67.67,0,0,1-.63.15,2.06,2.06,0,0,1-1-.61A2.08,2.08,0,0,1,8.06,9a.67.67,0,0,1,.14-.64.61.61,0,0,1,.45-.17h.17a2.11,2.11,0,0,1,1,.62,2,2,0,0,1,.63.95.67.67,0,0,1-.15.63m-.12-2A1.92,1.92,0,0,0,9,7.85a1.16,1.16,0,0,0-1.28,1.3,1.92,1.92,0,0,0,.63,1.18,1.92,1.92,0,0,0,1.14.59h.17a1.12,1.12,0,0,0,.83-.34,1.15,1.15,0,0,0,.32-.95,1.89,1.89,0,0,0-.63-1.19"/><path class="cls-1" d="M12,7.33a2,2,0,0,0-.61-.08h-.49a1.15,1.15,0,0,1-.36,0A.45.45,0,0,1,10.28,7a.35.35,0,0,1-.1-.29.32.32,0,0,1,.13-.24.57.57,0,0,1,.41-.1,1.17,1.17,0,0,1,.61.31l0,0,.13-.1-.76-.83-.12.1v0a.21.21,0,0,1,0,.11l0,0-.2.07a.74.74,0,0,0-.31.14.65.65,0,0,0-.27.54.93.93,0,0,0,.23.63,1,1,0,0,0,.46.31,1.25,1.25,0,0,0,.35,0h.46a2.2,2.2,0,0,1,.45,0,.63.63,0,0,1,.34.22.61.61,0,0,1,.14.37.38.38,0,0,1-.15.29.63.63,0,0,1-.62.08A2,2,0,0,1,11,8.55l0,0-.13.11.79.8.13-.1,0,0,0-.09,0-.05L12,9.09a1,1,0,0,0,.36-.17.79.79,0,0,0,.32-.6,1,1,0,0,0-.22-.67A1,1,0,0,0,12,7.33"/><path class="cls-1" d="M15.59,4a1,1,0,0,1-.15-.44.34.34,0,0,1,.19-.22l0,0-.07-.16-.89.43.07.15h0a.39.39,0,0,1,.28,0c.05,0,.13.11.27.39l.55,1.14a1.87,1.87,0,0,1,.21.64.57.57,0,0,1-.38.59.54.54,0,0,1-.65-.08,1.53,1.53,0,0,1-.32-.49l-.68-1.39C14,4.27,14,4.19,14,4.16s.05-.1.2-.19h0l-.07-.16-1.07.52.07.15h0a.39.39,0,0,1,.26,0s.1.06.19.26L14.32,6a1.91,1.91,0,0,0,.43.61.89.89,0,0,0,.57.21,1.13,1.13,0,0,0,.48-.12.89.89,0,0,0,.57-.88,2.27,2.27,0,0,0-.23-.78Z"/><path class="cls-1" d="M18.5,2.46c0-.07.1-.13.22-.19l0,0,0-.16-1,.3.06.16h0a.36.36,0,0,1,.26,0,.85.85,0,0,1,.23.44l.44,1.4-2-1.68-.69.22.05.16h0a.56.56,0,0,1,.16,0,.55.55,0,0,1,.17.1l.06,0,.64,2a1.07,1.07,0,0,1,.08.46c0,.07-.1.13-.23.2h0l.05.16.95-.3,0-.16h0a.5.5,0,0,1-.26,0,1,1,0,0,1-.23-.45L16.89,3.5l2.34,1.94.12-.05-.77-2.47a1.07,1.07,0,0,1-.08-.46"/><path class="cls-1" d="M20.9,4.85h-.14a.4.4,0,0,1-.16,0s-.07-.08-.11-.3l-.42-2.11c-.05-.21,0-.29,0-.32s.08-.09.26-.14h0l0-.17L19.11,2l0,.17h0a.44.44,0,0,1,.28,0s.09.1.12.3L20,4.62c0,.23,0,.3,0,.32s-.08.08-.26.13l0,0,0,.16L21,5l0-.17Z"/><path class="cls-1" d="M22,4.6h-.09a.15.15,0,0,1,0-.12L21.61,2c0-.1,0-.12,0-.13a.28.28,0,0,1,.14,0h.14a1.05,1.05,0,0,1,.7.25,1.52,1.52,0,0,1,.46,1.05,1.37,1.37,0,0,1-.34,1.18A1.11,1.11,0,0,1,22,4.6Zm.81-2.87a1.74,1.74,0,0,0-.93-.15l-1.08.1v.17h0c.17,0,.23,0,.26.06s.06.09.08.31l.19,2.14c0,.22,0,.29,0,.31s-.08.07-.24.11h0l0,.17,1.11-.1a1.85,1.85,0,0,0,.73-.21,1,1,0,0,0,.31-.25,1.43,1.43,0,0,0,.31-.6,2.09,2.09,0,0,0,.06-.71,1.5,1.5,0,0,0-.8-1.36"/><path class="cls-1" d="M26.07,3.18a2,2,0,0,1-.3,1.1.63.63,0,0,1-.56.31.68.68,0,0,1-.54-.38,2.12,2.12,0,0,1-.18-1.11,2.1,2.1,0,0,1,.3-1.1.65.65,0,0,1,.54-.31h0a.66.66,0,0,1,.53.36,2,2,0,0,1,.18,1.13m-.7-1.75a1.13,1.13,0,0,0-.93.39A1.94,1.94,0,0,0,24,3.07a2,2,0,0,0,.31,1.25,1.14,1.14,0,0,0,.91.53h.07a1.13,1.13,0,0,0,.85-.39,1.89,1.89,0,0,0,.48-1.25,1.89,1.89,0,0,0-.33-1.29,1.1,1.1,0,0,0-.89-.49"/><path class="cls-1" d="M28.8,1.9a.44.44,0,0,1-.06.1h-.06L28.5,1.9a.91.91,0,0,0-.32-.15.67.67,0,0,0-.59.16,1.08,1.08,0,0,0-.31.59.87.87,0,0,0,.07.55,1.52,1.52,0,0,0,.2.29l.28.31a2.24,2.24,0,0,1,.3.39.6.6,0,0,1,.05.4.49.49,0,0,1-.19.35.38.38,0,0,1-.3.08.61.61,0,0,1-.47-.41,1.53,1.53,0,0,1-.13-.54v0l-.16,0L26.84,5,27,5V5l0-.09.06,0s0,0,.19.12a1,1,0,0,0,.37.15.5.5,0,0,0,.17,0A.76.76,0,0,0,28.32,5a.88.88,0,0,0,.36-.61.86.86,0,0,0,0-.53,2.18,2.18,0,0,0-.36-.54L28,3a1.05,1.05,0,0,1-.22-.31.54.54,0,0,1,0-.31.46.46,0,0,1,.16-.27A.35.35,0,0,1,28.16,2a.69.69,0,0,1,.35.24,1.26,1.26,0,0,1,.17.67V3l.17,0L29,1.89l-.15,0Z"/><path class="cls-1" d="M33.49,6.88a.44.44,0,0,1-.2-.18.6.6,0,0,1,.08-.3l.87-2c.08-.19.14-.25.18-.26s.13,0,.26,0h0l.07-.15L34,3.71,32.3,5.5,32.46,3l-.77-.34-.07.16,0,0c.15.08.2.14.21.18a.53.53,0,0,1-.07.31L31,5.15a1.11,1.11,0,0,1-.25.4c-.05,0-.16,0-.3,0h0l-.06.16.9.4.07-.16h0c-.15-.09-.18-.15-.19-.19s0-.19.12-.48l.68-1.54-.16,2.6.1,0,1.87-2L33,6.15c-.11.23-.17.3-.2.31s-.14,0-.27,0h0l-.07.15,1.07.48.07-.16Z"/><path class="cls-1" d="M35.8,7.52h0a1,1,0,0,1-.52.26h0a1,1,0,0,1-.52-.21,1.75,1.75,0,0,1-.35-.25s0-.09,0-.13l.62-1,.32.22c.16.1.19.17.2.21a.94.94,0,0,1-.1.36l0,0,.15.09.64-1L36.07,6l0,0c-.15.17-.23.23-.27.24s-.15,0-.28-.08L35.17,6l.56-.88c0-.06.06-.08.07-.08l.06,0,.45.28c.22.14.29.24.3.29a.69.69,0,0,1-.1.4v0l.15.1.41-.67L35.25,4.34l-.1.14,0,0c.13.1.16.17.16.21s0,.12-.12.29L34.07,6.82c-.11.18-.18.22-.21.23A.46.46,0,0,1,33.61,7h0l-.09.14,1.84,1.17L36,7.62Z"/><path class="cls-1" d="M37.68,10a.45.45,0,0,1-.11-.2.93.93,0,0,1,0-.31L37.88,8l1-.3a1.44,1.44,0,0,1,.49-.09.45.45,0,0,1,.21.1l0,0,.11-.14L38.92,7l-.11.13,0,0a.59.59,0,0,1,.12.12.1.1,0,0,1,0,.12l-.06,0a1.82,1.82,0,0,1-.24.09l-.69.2L38.09,7l0-.11a.32.32,0,0,1,.06-.13.09.09,0,0,1,.1,0,.76.76,0,0,1,.17.11l0,0,.12-.14-1-.8L37.53,6l0,0a.37.37,0,0,1,.13.27,4.24,4.24,0,0,1-.11.72l-.17.84-1,.32c-.28.08-.45.13-.53.14a.35.35,0,0,1-.21-.07l0,0-.11.13.75.63.11-.13,0,0-.11-.14a.1.1,0,0,1,0-.13.38.38,0,0,1,.14-.08l.25-.09.74-.23c-.1.49-.17.8-.2.92a.7.7,0,0,1-.08.23l-.09,0a1,1,0,0,1-.18-.12l0,0-.11.13.93.79L37.7,10Z"/><path class="cls-1" d="M38.65,10.46,40.2,9a.59.59,0,0,1,.27-.18s.11,0,.24.15l0,0,.13-.12L40,8l-.13.12,0,0c.11.14.14.21.13.25s0,.12-.18.26l-1.56,1.49c-.16.16-.23.18-.26.18a.48.48,0,0,1-.25-.14l0,0-.13.12.86.88.12-.11,0,0c-.11-.14-.14-.21-.14-.25s0-.1.2-.26"/><path class="cls-1" d="M40.54,12.77h0l0-.19h0a1.27,1.27,0,0,1-.43-.06.86.86,0,0,1-.46-.31.77.77,0,0,1-.11-.74,1.76,1.76,0,0,1,.63-.83,2.07,2.07,0,0,1,1-.47.75.75,0,0,1,.69.26.67.67,0,0,1,.09.7,1.46,1.46,0,0,1-.28.46l0,0,.11.13.9-.75-.1-.12h0a.15.15,0,0,1-.11,0l-.07,0s0,0-.08-.24a2.15,2.15,0,0,0-.21-.4,1.21,1.21,0,0,0-1-.48h0a2,2,0,0,0-1.18.46,1.93,1.93,0,0,0-.71,1,1.22,1.22,0,0,0,.22,1.13,1.19,1.19,0,0,0,.66.41,2.09,2.09,0,0,0,.35,0h.15"/><path class="cls-1" d="M42.9,13l-.81.91-.39-.67Zm-1.26,2.42a.24.24,0,0,1,0-.18.85.85,0,0,1,.2-.29l1.91-2.24-.07-.12-2.49.5a3.67,3.67,0,0,1-.69.11.23.23,0,0,1-.2-.11l0,0-.15.08.44.74.14-.09,0,0c0-.1,0-.14-.05-.16a.15.15,0,0,1,.09-.12l.14-.06.56-.12.49.82-.3.35-.14.14-.09.07c-.06,0-.08,0-.1,0s-.05,0-.13-.15l0,0-.14.08.54.93.14-.09Z"/><path class="cls-1" d="M45.22,16.7c.07,0,.14.08.21.2l0,0,.15-.06-.37-.93-.15.07v0c.05.15,0,.23,0,.26s-.13.14-.43.26l-1.35.54L44.84,15l-.27-.67-.17.06,0,0a.4.4,0,0,1,0,.17.42.42,0,0,1-.08.16l0,.07-2,.79a1.21,1.21,0,0,1-.45.12c-.08,0-.15-.08-.22-.21l0,0-.15.06.37.93.15-.06v0c0-.15,0-.23,0-.26s.13-.14.42-.26l1.62-.65-1.74,2.46,0,0,0,.13,2.41-1a.94.94,0,0,1,.45-.11"/><path class="cls-1" d="M43.53,19.87a.66.66,0,0,1-.46-.46.67.67,0,0,1,.2-.62,2.1,2.1,0,0,1,1-.49,3.27,3.27,0,0,1,.7-.1,1.38,1.38,0,0,1,.43.07.65.65,0,0,1,.46.46.66.66,0,0,1-.19.61,2.84,2.84,0,0,1-2.17.53m.67.55a2.53,2.53,0,0,0,.59-.08,1.92,1.92,0,0,0,1.14-.68,1.17,1.17,0,0,0,.22-1,1.2,1.2,0,0,0-.65-.78,2.21,2.21,0,0,0-2.44.57,1.13,1.13,0,0,0-.24,1,1.16,1.16,0,0,0,.63.78,1.69,1.69,0,0,0,.75.17"/><path class="cls-1" d="M46.71,22h0l-.11,0s0,0,0-.06a.79.79,0,0,1,.05-.2.94.94,0,0,0,0-.35.64.64,0,0,0-.32-.51,1,1,0,0,0-.66-.13.81.81,0,0,0-.5.24,1,1,0,0,0-.22.27l-.22.36a2.27,2.27,0,0,1-.28.4.53.53,0,0,1-.36.17.49.49,0,0,1-.39-.08.37.37,0,0,1-.17-.26.59.59,0,0,1,.25-.57,1.65,1.65,0,0,1,.48-.29h0l0-.17-1.09.26v.16h.14l0,.05a2,2,0,0,1-.06.22.93.93,0,0,0,0,.4.81.81,0,0,0,.34.58.94.94,0,0,0,.55.17h.14a.87.87,0,0,0,.49-.2,1.62,1.62,0,0,0,.41-.51l.22-.37a1.65,1.65,0,0,1,.23-.3.48.48,0,0,1,.29-.12.41.41,0,0,1,.3.07.37.37,0,0,1,.14.23.64.64,0,0,1-.13.41,1.19,1.19,0,0,1-.59.36h0l0,.17,1.09-.22Z"/><path class="cls-1" d="M23.45,44.84a.27.27,0,0,1-.29-.19,2.57,2.57,0,0,1,0-1.38.3.3,0,0,1,.27-.25.3.3,0,0,1,.32.23,4.5,4.5,0,0,1,0,1.32.37.37,0,0,1-.32.27"/><path class="cls-1" d="M24.79,44.78a.26.26,0,0,1-.32-.22V43.44a.53.53,0,0,1,.1-.39.28.28,0,0,1,.21-.1c.17,0,.35.11.37.39v1.07a.35.35,0,0,1-.07.25.4.4,0,0,1-.27.12"/><path class="cls-1" d="M20.71,45.67h-.17a.25.25,0,0,1,0-.48l.14,0a.33.33,0,0,1,.3.1.25.25,0,0,1-.23.41"/><path class="cls-1" d="M27.32,45.76a.25.25,0,0,1-.22-.09.26.26,0,0,1,0-.23.38.38,0,0,1,.32-.26h.1a.24.24,0,0,1,.21.2.37.37,0,0,1-.21.32.39.39,0,0,1-.17.06"/><path class="cls-1" d="M21.4,45.15a.3.3,0,0,1-.13,0L21,44.93a.1.1,0,0,1,0-.12,2.82,2.82,0,0,1,1.54-.71h0a.19.19,0,0,1,.2.17.33.33,0,0,1-.19.35,2,2,0,0,0-.92.38.32.32,0,0,1-.25.15"/><path class="cls-1" d="M26.69,45.23s-.05,0-.09-.06a2.39,2.39,0,0,0-1-.55s-.1,0-.11-.14,0-.34,0-.36a2.68,2.68,0,0,1,1.61.71l.05.08-.05.06-.32.23Z"/><path class="cls-1" d="M25.69,47.55a.25.25,0,0,1-.2-.07,9.75,9.75,0,0,0-1.21-.6.27.27,0,0,1-.11-.29.44.44,0,0,1,.36-.31h.1a5.16,5.16,0,0,0,.67.32A2.14,2.14,0,0,1,26,47c.05,0,.11.08.11.13s0,.07,0,.12l-.19.25a.26.26,0,0,1-.18.09"/><path class="cls-1" d="M20.86,47.17l-.08,0a.25.25,0,0,1,0-.19c0-.66.66-1.07,1.32-1.5.22-.14.43-.29.64-.44a.32.32,0,0,1,.19-.09c.05,0,.08,0,.1,0l.33.19c.05,0,.08.06.08.09a.2.2,0,0,1-.07.11,4.28,4.28,0,0,1-.68.46,2.72,2.72,0,0,0-1.05.92,1.12,1.12,0,0,1-.74.44Z"/><path class="cls-1" d="M22.67,47.47a.22.22,0,0,1-.13,0l-.26-.23c-.12-.14-.1-.28.08-.47a5.66,5.66,0,0,1,.85-.66,6.51,6.51,0,0,0,.9-.71.48.48,0,0,1,.32-.21h.08l.23,0c.1,0,.22,0,.25,0s-.1.28-.14.36a4.24,4.24,0,0,1-1.1.94,2.59,2.59,0,0,0-.92.85c0,.13-.11.15-.16.15"/><path class="cls-1" d="M27.27,47h-.21a.73.73,0,0,1-.39-.25,2.1,2.1,0,0,0-.52-.36l-.42-.18a5.11,5.11,0,0,1-.55-.24c-.09-.05-.14-.1-.15-.16a.61.61,0,0,1,.19-.4c.05-.07.09-.1.14-.1s.08,0,.14.05a3.82,3.82,0,0,0,.64.33,3,3,0,0,1,1.47,1.09.1.1,0,0,1,0,.1s0,.05-.07.06a1.36,1.36,0,0,1-.29.06"/><path class="cls-1" d="M18.41,44.4c.32,0,.52.07.57.18a.36.36,0,0,1-.06.33c-.07.13-.06.2,0,.25s.06.05.12.05.36-.2.46-.54c0-.14.15-.23.41-.29a.32.32,0,0,0,.18-.37c0-.11-.08-.18-.16-.17a.14.14,0,0,0-.1.06.91.91,0,0,1-.4.22h-.14a.65.65,0,0,1-.68-.31l-.42-.69c-.06-.08-.11-.12-.16-.12h0l0,0a.3.3,0,0,0,0,.24l.21.41a.19.19,0,0,1,0,.17A.3.3,0,0,1,18,44h0a1.74,1.74,0,0,1-1.57-.9.3.3,0,0,0-.19-.13h0l0,.06a.18.18,0,0,0,0,.2l.21.32c.07.09.07.13.06.14s0,.05-.11.06a2.35,2.35,0,0,1-1.56-.6c-.09,0-.14-.06-.18,0s-.08.11-.05.17l.07.19a.13.13,0,0,1,0,.12s-.05,0-.12.05l-.86.09c-.13,0-.21.06-.21.12s.12.12.32.12a5.6,5.6,0,0,1,1.95.09c.05,0,.1,0,.11.06a.19.19,0,0,1,0,.13l-.32.32c-.09.08-.13.15-.1.21s0,.07.11.06a.45.45,0,0,0,.11,0,3,3,0,0,1,1.19-.51.78.78,0,0,1,.31,0,.2.2,0,0,1,.18.12.23.23,0,0,1,0,.21l-.17.38c0,.11-.05.18,0,.22h.08a.35.35,0,0,0,.17-.09c.28-.33.64-.7,1-.72Zm-.17,1.72A.26.26,0,0,1,18,46a.19.19,0,0,1,0-.18l.31-.52c0-.08,0-.14,0-.18a.13.13,0,0,0-.13,0,.55.55,0,0,0-.32.18,2,2,0,0,1-1.3.69,1.45,1.45,0,0,1-.36,0A.36.36,0,0,1,16,45.8a.34.34,0,0,1,.08-.26l.38-.49c0-.11,0-.17,0-.21v0l-.09,0-.12,0-.94.46a.84.84,0,0,1-.29.08.62.62,0,0,1-.52-.2.21.21,0,0,1-.07-.14l.06-.07a1.21,1.21,0,0,0,.42-.42c0-.07.07-.13,0-.17s-.1-.1-.23-.1c-.34,0-.64.09-.92.11a1.85,1.85,0,0,1-1.1-.1c-.1-.08-.14-.16-.13-.23s.1-.2.3-.33l1-.37a.26.26,0,0,0,.17-.15A.21.21,0,0,0,13.9,43a.18.18,0,0,1-.05-.15s.07-.09.13-.14a.85.85,0,0,1,.36-.12,1.53,1.53,0,0,1,1.05.45c.07,0,.12.07.17.06s.08-.12,0-.22l-.12-.38a.25.25,0,0,1,0-.21.22.22,0,0,1,.16-.07c.5,0,.94.23,1.46.87a.32.32,0,0,0,.25.14h0l.06,0c0-.06,0-.16-.06-.29l-.17-.37a.32.32,0,0,1,0-.23.34.34,0,0,1,.25-.13.76.76,0,0,1,.21,0c.34,0,.54.06.61.29l.47.81a.32.32,0,0,0,.26.17c.1,0,.19-.09.29-.24s.11-.16.16-.17.4.14.74.46a.59.59,0,0,0,.46.18.84.84,0,0,0,.29-.08,3.54,3.54,0,0,1,1.18-.32,1.81,1.81,0,0,1,.52,0c.13,0,.2.13.17.24s-.19.3-.52.33h-.15a.44.44,0,0,0-.17,0,3.5,3.5,0,0,0-1.34.69.72.72,0,0,1-.42.17.55.55,0,0,0-.24.07c-.14,0-.3.21-.5.45a2.12,2.12,0,0,1-1.28.92"/><path class="cls-1" d="M10.59,41.11c.22,0,.35,0,.42.14a.44.44,0,0,1,0,.13c0,.11,0,.26.18.25l.74,0c.07,0,.12,0,.14-.06s0-.09,0-.15c-.14-.3-.23-.35-.37-.33h-.09a.36.36,0,0,1-.21,0c-.32-.17-.45-.68-.4-1.56a.31.31,0,0,0,0-.21h-.06c-.06,0-.11.06-.13.21l-.07.43c0,.19-.08.19-.11.19a.2.2,0,0,1-.14,0,1.59,1.59,0,0,1-.73-1.1c0-.18,0-1.09-.28-.53-.12.08-.31-.27-.43-.54,0-.09-.08-.15-.14-.14a.18.18,0,0,0-.09.2.27.27,0,0,1-.1.25c-.08,0-.15.08-.15.14s.06.08.18.1c.29.05.57.39.8,1,0,.08,0,.11,0,.12l-.87,0H8.53c-.11,0-.13.06-.13.09s.11.17.24.18l.88.12a.77.77,0,0,1,.7.46.29.29,0,0,1,.07.24s0,.06-.09.08a8.07,8.07,0,0,1-1,.25c-.13,0-.2.05-.21.11s.06.11.25.17a1,1,0,0,0,.36,0,3.1,3.1,0,0,0,.5-.09l.49-.09m2.94,1.53a.24.24,0,0,1-.17-.06,2.54,2.54,0,0,0-1.95-.6,3.7,3.7,0,0,0-.82.16.16.16,0,0,1-.12-.08.31.31,0,0,1,0-.26c0-.17-.07-.24-.21-.23l-.14,0a1.9,1.9,0,0,1-.37,0A1.56,1.56,0,0,1,8.07,41a.22.22,0,0,1,0-.16.23.23,0,0,1,.15-.06l1.13-.15c.12,0,.16-.06.17-.11s0-.14-.17-.18c-1.14-.18-1.82-.51-2-1a.24.24,0,0,1,0-.18A.23.23,0,0,1,7.47,39l.87.08c.14,0,.2,0,.22-.09s-.05-.11-.17-.19l-.86-.48c-.09-.07-.13-.16-.1-.23s.14-.14.3-.15h.34a.38.38,0,0,0,.27-.11c.1-.1.09-.27.09-.56v-.26c0-.2.05-.31.11-.32s.18.05.45.43c.14.17.23.26.31.25s.16-.19.22-.48c0-.13.1-.14.12-.14a.35.35,0,0,1,.2.08c.35.2.36,1.09.32,1.94a.18.18,0,0,0,0,.16.18.18,0,0,0,.13.06c.05,0,.15,0,.19-.26l.12-.55c0-.15.11-.24.2-.24a.48.48,0,0,1,.32.13c.33.3.42.79.39,1.93a.33.33,0,0,0,.06.21.2.2,0,0,0,.13,0c.08,0,.19-.09.25-.27s.08-.13.12-.13.1,0,.14.19a3,3,0,0,0,1.33,2.23.19.19,0,0,1,.07.23.13.13,0,0,1-.12.1"/><path class="cls-1" d="M13.27,40.61a.25.25,0,0,1-.24-.17.23.23,0,0,1,.06-.24.62.62,0,0,1,.35-.16.34.34,0,0,1,.27.09.28.28,0,0,1,.07.23.57.57,0,0,1-.49.25Z"/><path class="cls-1" d="M11.1,43.38H11a.37.37,0,0,1-.23-.32.41.41,0,0,1,.15-.33l.2-.06c.19,0,.3.12.34.41a.25.25,0,0,1-.06.2.37.37,0,0,1-.26.1"/><path class="cls-1" d="M14,42.25c-.08,0-.24-.11-.41-.38a.82.82,0,0,0-.5-.43.29.29,0,0,1-.18-.32.25.25,0,0,1,.24-.21h.1a1.59,1.59,0,0,0,.49-.12.58.58,0,0,1,.16-.05.25.25,0,0,1,.27.16.27.27,0,0,1-.07.28.42.42,0,0,0-.17.48c.14.33.15.51.11.57Z"/><path class="cls-1" d="M11.92,43.52a.2.2,0,0,1-.23-.17,1.21,1.21,0,0,0-.11-.54.39.39,0,0,1,0-.4.23.23,0,0,1,.2-.12.43.43,0,0,1,.24.06.76.76,0,0,0,.59.22.69.69,0,0,1,.5.11c.08.07.08.12.08.14l-.18,0h0a.77.77,0,0,0-.7.43.4.4,0,0,1-.32.24"/><path class="cls-1" d="M5.32,35.43a.13.13,0,0,0-.12.1.12.12,0,0,0,.13.11c.36,0,.66,0,.8.16a.2.2,0,0,0,.14.07h0l.07-.06a.2.2,0,0,0,0-.18c-.16-.19-.1-.42.16-.75a.22.22,0,0,0,.06-.2v0l-.08,0-.1,0a.65.65,0,0,1-.18,0,.36.36,0,0,1-.33-.13,1,1,0,0,1,0-.82c.13-.39.27-.81.42-1.21,0-.08,0-.17,0-.21h0c-.09,0-.13.07-.16.13-.1.23-.18.44-.25.62s-.2.55-.32.56-.35-.31-.51-.56a1,1,0,0,1,0-1C5,32,5,32,5,31.92H4.9a.14.14,0,0,0-.12.1c-.1.19-.17.27-.23.28s-.22-.13-.38-.32a.13.13,0,0,0-.13,0,.15.15,0,0,0-.14.1.2.2,0,0,0,0,.23l.07.07c.14.14.39.39.37.45H4.31a1.36,1.36,0,0,1-.38,0h-.1c-.07,0-.11.05-.11.09s0,.12.16.14c.77.07,1.34.67,1.3,1,0,.12-.1.19-.26.2a1.39,1.39,0,0,1-.53-.08H4.31a.12.12,0,0,0-.13.12c0,.06,0,.13.18.14.82.06,1.39.52,1.37.81s-.21.25-.37.28ZM8,37.66l-.15,0a4.28,4.28,0,0,1-1.3-1A1.19,1.19,0,0,0,5.63,36a2,2,0,0,1-1.39-.66c-.06-.08,0-.12,0-.14s.06,0,.14-.05h.37c.15,0,.17-.07.17-.1s-.08-.16-.22-.2c-1.05-.18-1.56-.47-1.62-.92,0-.11,0-.18,0-.22s.08-.06.18-.07h.32s.12,0,.13-.07,0-.1-.21-.17a2,2,0,0,1-.88-.59.33.33,0,0,1,0-.32.24.24,0,0,1,.19-.11.45.45,0,0,1,.16,0,.6.6,0,0,0,.23.06.19.19,0,0,0,.13-.08A.44.44,0,0,0,3.09,32a.25.25,0,0,1,0-.23c0-.05.11-.08.23-.09a.85.85,0,0,0,.22,0,.59.59,0,0,0,.38-.2A.24.24,0,0,1,4,31.42c.1,0,.18,0,.26.19s.16.32.3.31.15-.05.21-.25.14-.38.25-.39a.38.38,0,0,1,.18.06c.23.13.23.52,0,1.15,0,.11,0,.19,0,.23v0l.08,0c.11,0,.23-.15.3-.35.06-.49.2-.73.43-.75a.5.5,0,0,1,.17,0,.49.49,0,0,1,.35.24,2.37,2.37,0,0,1-.14,1.63.33.33,0,0,0,0,.3.16.16,0,0,0,.13.06.33.33,0,0,0,.21-.12c.1-.12.19-.2.27-.2a.18.18,0,0,1,.13.06.83.83,0,0,1,0,.69,2,2,0,0,0,.77,3c.09.08.14.19.11.26s-.06.07-.13.08"/><path class="cls-1" d="M7.7,36.93c-.06,0-.11,0-.13-.13-.05-.58-.14-.91-.3-1a.39.39,0,0,1,0-.37.21.21,0,0,1,.18-.11h.11a2.08,2.08,0,0,0,.73.16.24.24,0,0,1,.24.22.2.2,0,0,1-.1.22.59.59,0,0,0-.49.7c0,.23-.11.34-.2.35"/><path class="cls-1" d="M8.13,35.08H8c-.17,0-.28-.11-.29-.25a.32.32,0,0,1,.22-.31l.18,0a.35.35,0,0,1,.28.07.41.41,0,0,1,.08.32c0,.12-.13.19-.3.2"/><path class="cls-1" d="M5.29,37.56a.29.29,0,0,1-.3-.17A.49.49,0,0,1,5,37a.31.31,0,0,1,.25-.15.29.29,0,0,1,.3.25.49.49,0,0,1,0,.35.38.38,0,0,1-.25.16"/><path class="cls-1" d="M5.94,38a.25.25,0,0,1-.24-.09.19.19,0,0,1,0-.18A2.34,2.34,0,0,0,5.78,37a.32.32,0,0,1,.28-.34.28.28,0,0,1,.27.16.78.78,0,0,0,.46.45c.35.18.46.34.44.41s-.06.06-.14.06a.56.56,0,0,1-.13,0,.83.83,0,0,0-.44-.11.33.33,0,0,0-.26.14.42.42,0,0,1-.32.19"/><path class="cls-1" d="M2.29,26.38s0,.08,0,.22c.26.41.53.9.44,1.16a.28.28,0,0,1-.18.15c-.06,0-.17,0-.19.1s0,.14.06.16a.58.58,0,0,0,.25.15c.2.09.32.16.22.41L3,29a.49.49,0,0,0,.37.2.18.18,0,0,0,.16-.13.38.38,0,0,0-.19-.4c-.1,0-.16-.06-.17-.11s0-.13.19-.28c.37-.41.39-.49.37-.53v0H3.63a.51.51,0,0,0-.15.06l-.14,0c-.18,0-.24-.07-.26-.39s.06-.46.24-.59c.41-.25.47-.33.46-.4s-.09-.08-.28-.07l-.12,0s-.06,0-.07,0a.2.2,0,0,1,0-.16,1.33,1.33,0,0,1,.44-.85c.07-.1.13-.19.1-.26S3.72,25,3.64,25a.7.7,0,0,0-.48.23.66.66,0,0,0-.11.46L3,26.4c0,.1-.06.23-.13.24a.19.19,0,0,1-.13-.07c-.24-.21-.31-.23-.35-.23h0Zm1.77,4.79-.11,0a.79.79,0,0,1-.38-.56c-.17-.9-.38-1.14-.66-1.25s-.46-.37-.46-.5c0-.37-.15-.48-.33-.54a.93.93,0,0,1-.75-.65c-.08-.3-.05-.42,0-.47a.17.17,0,0,1,.11-.06,1,1,0,0,1,.43.14l.1,0a.16.16,0,0,0,.11-.07c0-.07,0-.17,0-.3l-.3-.54a.65.65,0,0,1,.09-.75c.17-.21.27-.26.32-.26a.09.09,0,0,1,.09,0c.21.33.31.36.37.36s.14-.23.15-.3c0-.54.15-1.18.49-1.21a.32.32,0,0,1,.19,0,.42.42,0,0,0,.3.1.86.86,0,0,0,.52-.33A.41.41,0,0,1,4.48,24c.06,0,.13,0,.19.2a1.07,1.07,0,0,1-.35,1.08c-.1.16-.13.26-.1.31s0,.05.1,0a1.36,1.36,0,0,0,.46-.2.25.25,0,0,1,.14-.07c.07,0,.11.07.13.23.07.46-.26.84-1.08,1.25a.22.22,0,0,0-.15.23.14.14,0,0,0,.16.13.4.4,0,0,0,.16-.06.93.93,0,0,1,.44-.2.2.2,0,0,1,.25.13c0,.12,0,.37-.3.66s-.27.42-.45.48a.28.28,0,0,0-.17.14.24.24,0,0,0,.06.2c.12.1.12.24,0,.41-.3.26-.28.85.08,1.79.12.16.13.29.09.36a.12.12,0,0,1-.09.08"/><path class="cls-1" d="M5.32,29.09A.54.54,0,0,1,5,29a.24.24,0,0,1-.1-.29.31.31,0,0,1,.28-.22c.22,0,.35,0,.4.14a.38.38,0,0,1,0,.33.61.61,0,0,1-.28.11"/><path class="cls-1" d="M1.72,30.16a.45.45,0,0,1-.24-.05.34.34,0,0,1-.08-.35.38.38,0,0,1,.25-.28l.11,0a.23.23,0,0,1,.22.08A.47.47,0,0,1,2,30a.39.39,0,0,1-.29.21"/><path class="cls-1" d="M3.31,30.94a.11.11,0,0,1-.1,0c-.24-.21-.43-.34-.61-.32a.28.28,0,0,0-.2.1.67.67,0,0,1-.19,0A.24.24,0,0,1,2,30.66a.27.27,0,0,1,0-.25,5.55,5.55,0,0,0,.35-.68.29.29,0,0,1,.24-.16.31.31,0,0,1,.32.28l.08.3.39.5a.3.3,0,0,1,0,.25Z"/><path class="cls-1" d="M4.53,30.69s-.06,0-.13-.15a1.41,1.41,0,0,1,0-.5.65.65,0,0,0,0-.52.32.32,0,0,1,0-.31.24.24,0,0,1,.18-.15l.09,0a6.16,6.16,0,0,0,.63.32.27.27,0,0,1,.23.29c0,.12-.12.2-.3.22s-.42.23-.54.61c-.08.15-.13.16-.14.17"/><path class="cls-1" d="M34.81,41.22a.28.28,0,0,1-.26-.09.27.27,0,0,1,0-.24c.06-.15,0-.3-.2-.44a.54.54,0,0,1-.11-.55.64.64,0,0,1,.51-.31.5.5,0,0,1,.45.18.61.61,0,0,1,0,.61.37.37,0,0,0-.1.44.28.28,0,0,1,0,.27.27.27,0,0,1-.24.13"/><path class="cls-1" d="M40.55,36.13a.22.22,0,0,1-.25-.19c0-.16-.15-.26-.39-.27s-.39-.28-.35-.5a.75.75,0,0,1,.59-.53c.27,0,.44.17.49.54a.34.34,0,0,0,.12.42.26.26,0,0,1,.1.3.38.38,0,0,1-.31.23"/><path class="cls-1" d="M43.6,29.46a.29.29,0,0,1-.25-.14c0-.13-.16-.18-.33-.17l-.11,0c-.41-.07-.45-.32-.44-.47a.67.67,0,0,1,.54-.59c.19,0,.36.12.48.4v.07c0,.12.06.25.22.29a.27.27,0,0,1,.17.31.35.35,0,0,1-.29.28"/><path class="cls-1" d="M36.21,43.43c-.19,0-.36-.1-.51-.34a.3.3,0,0,0-.27-.32.26.26,0,0,1-.21-.28.38.38,0,0,1,.32-.32.22.22,0,0,1,.2.1.28.28,0,0,0,.3.14.83.83,0,0,0,.18,0c.34,0,.54.13.54.39a.71.71,0,0,1-.55.68"/><path class="cls-1" d="M42.69,37.34a.82.82,0,0,1-.42-.11.33.33,0,0,0-.3-.16l-.1,0-.07,0a.28.28,0,0,1-.21-.07.25.25,0,0,1-.08-.17.33.33,0,0,1,.3-.34h.1a.24.24,0,0,0,.15,0,.51.51,0,0,0,.3-.19.72.72,0,0,1,.29-.1.36.36,0,0,1,.35.18.66.66,0,0,1,0,.64.42.42,0,0,1-.34.24"/><path class="cls-1" d="M46,30a.71.71,0,0,1-.28,0,.39.39,0,0,0-.3-.09.35.35,0,0,0-.19.06l-.11,0a.27.27,0,0,1-.31-.27.39.39,0,0,1,.06-.21.25.25,0,0,1,.2-.1h.18a.45.45,0,0,0,.32-.26.56.56,0,0,1,.37-.19.33.33,0,0,1,.33.18.73.73,0,0,1,.06.67A.4.4,0,0,1,46,30"/><path class="cls-1" d="M29.56,45.14a1.17,1.17,0,0,1-.49,0,5.61,5.61,0,0,1-1.49-.74,4.65,4.65,0,0,0-2-.59.22.22,0,0,1-.19-.28.26.26,0,0,1,.22-.26,10,10,0,0,1,2.35.7,1,1,0,0,0,.45.07,1.3,1.3,0,0,0,.54-.19l.31-.13a13.19,13.19,0,0,1,4.22-1.36l.49,0c.14,0,.2,0,.2.06s-.06.1-.39.14h-.14a2.22,2.22,0,0,0-.84.24c-.4.19-.77.38-1.11.56A5.43,5.43,0,0,1,30,44a.65.65,0,0,1-.14,0c-.48.07-.77.2-.78.35s.11.16.29.17h.39A4.69,4.69,0,0,0,31.4,44a7.49,7.49,0,0,1,2.82-1.29h.12a.19.19,0,0,1,.11,0s0,.06-.12.21a8,8,0,0,1-2.93,1.64l-.76.29a4,4,0,0,1-1.08.33"/><path class="cls-1" d="M30.88,46c-1,.08-1.58-.12-1.86-.64a1.86,1.86,0,0,0,.72.05,7.7,7.7,0,0,0,2.48-.85A5.59,5.59,0,0,1,33.75,44c.23,0,.33,0,.34.08s0,.08-.09.12l-2.67,1.09c-.16.06-.24.15-.23.22s.08.1.19.09a7.84,7.84,0,0,0,1.79-.75,3.76,3.76,0,0,1,1.35-.52h.18c.09,0,.13,0,.13.05s0,.06-.15.13A18.38,18.38,0,0,1,31.12,46l-.24,0"/><path class="cls-1" d="M28.57,43.75c-.28,0-.62-.07-.7-.27h0a2.68,2.68,0,0,0,1.45-.83,7.85,7.85,0,0,1,.86-.69,1.17,1.17,0,0,1,.42-.15,1.48,1.48,0,0,0,.59-.19,2.45,2.45,0,0,1,1-.37,1,1,0,0,1,.58.11c.14.11.15.14.15.15h-.37a2.12,2.12,0,0,0-1.13.48l-1,.29c-.27.08-.54.23-.53.36s0,.08.15.07l.09,0,.5-.13a1.51,1.51,0,0,0,.49-.21,1.78,1.78,0,0,1,.69-.27,4,4,0,0,0,.71-.2l.4-.14h0a.15.15,0,0,1,.18.15.19.19,0,0,1-.15.21c-.2.06-.39.1-.58.14a6.7,6.7,0,0,0-1,.26,21,21,0,0,0-2.57,1.16.61.61,0,0,1-.32.1"/><path class="cls-1" d="M34.94,42.09a.27.27,0,0,1-.28-.15.23.23,0,0,1,.08-.24c0-.17.28-.33.6-.55a6.8,6.8,0,0,0,1.77-1.62,9.94,9.94,0,0,1,2-1.86c.35-.29.72-.59,1.1-.92.14-.15.18-.16.19-.16a.42.42,0,0,1,0,.15A3.13,3.13,0,0,1,39,38.32a8,8,0,0,0-2.13,2c-.08.13-.1.2-.07.24v0h.06s.13,0,.41-.24a6.83,6.83,0,0,1,1.77-1.64,4.11,4.11,0,0,0,1.42-1.63c.06-.12.09-.13.09-.13a1,1,0,0,1,0,.36,2.37,2.37,0,0,1-1.05,1.73A9.33,9.33,0,0,1,37,41a2.69,2.69,0,0,0-1.81,1,.35.35,0,0,1-.27.17"/><path class="cls-1" d="M38.06,41.45l-.63,0-.62,0c-.14,0-.18,0-.19-.07s0-.1.15-.15a7.31,7.31,0,0,0,3.83-2.9.44.44,0,0,1,.24-.13l.1,0a.2.2,0,0,1,0,.14,6.27,6.27,0,0,1-2,2.07l-.22.16c-.14.1-.22.21-.19.29s.06.08.12.08l.12,0a8.9,8.9,0,0,0,2.47-2.5c0-.07.09-.08.1-.08s.05,0,.06.12c.07.3-.15.69-.65,1.17a7.8,7.8,0,0,1-1.73,1.56,4.28,4.28,0,0,1-1,.18"/><path class="cls-1" d="M35.91,40.42s-.08,0-.09,0a.23.23,0,0,1,0-.18,5.57,5.57,0,0,0,.21-1.1A1.93,1.93,0,0,1,36.78,38a16.77,16.77,0,0,0,1.79-1.75c0-.06.07-.06.07-.06s0,0,0,.17-.25.51-.64.88a9.88,9.88,0,0,0-.77.79l-.66.75c-.07.13-.08.21-.06.26l0,0h.08a.56.56,0,0,0,.32-.21A8.12,8.12,0,0,1,38.3,37.3c.12-.1.17-.12.19-.12s0,.06,0,.24a1.54,1.54,0,0,1-.68.88,4.94,4.94,0,0,0-1.16,1.39,1.92,1.92,0,0,1-.74.73"/><path class="cls-1" d="M41,36.79a.15.15,0,0,1-.14-.09.27.27,0,0,1,0-.26,4.14,4.14,0,0,0,.94-2.23l.17-.45a12.09,12.09,0,0,1,1.58-3.15c.13-.13.17-.14.19-.14s0,0,0,.22a19,19,0,0,1-.87,2.11,14.72,14.72,0,0,0-.66,1.53c0,.14,0,.22,0,.26l0,0,.05,0a.38.38,0,0,0,.19-.12,8.73,8.73,0,0,0,1.08-2.43,11.35,11.35,0,0,1,.69-1.81c.12-.19.17-.21.18-.21s.05,0,.06.29a8.88,8.88,0,0,1-1.28,3.92,2.66,2.66,0,0,1-.53.53,1.71,1.71,0,0,0-.53.61,5,5,0,0,1-.88,1.25.43.43,0,0,1-.22.13"/><path class="cls-1" d="M41.34,35s-.07,0-.14-.08c-.94-1.44,0-3.12,1-4.26.11-.11.18-.13.21-.13a.11.11,0,0,1,0,.16,1.8,1.8,0,0,0-.45,1,2.37,2.37,0,0,1-.42.94,2,2,0,0,0-.2.35c-.13.28-.17.48-.11.57v0h.06c.07,0,.13-.07.17-.13a9.88,9.88,0,0,0,.66-1.55,4.1,4.1,0,0,1,.57-1.22.3.3,0,0,1,.17-.13l.07,0a.27.27,0,0,1,.05.21,10.86,10.86,0,0,1-1,2.31,2.39,2.39,0,0,0-.4,1.17c-.07.38-.12.7-.21.71"/><path class="cls-1" d="M42.6,35.53h-.07s0-.06.07-.22a5.59,5.59,0,0,0,1.46-2,2.24,2.24,0,0,1,1-1.78.83.83,0,0,1,.26-.11s0,.06-.16.28A4.27,4.27,0,0,0,44.51,33a4.25,4.25,0,0,1-.66,1.31c-.1.15-.13.23-.1.28v0l.06,0a.68.68,0,0,0,.17-.07,3.2,3.2,0,0,0,.65-1.25,5.59,5.59,0,0,1,.88-1.78.47.47,0,0,1,.2-.11s0,0-.07.27-.28.72-.39,1.07a6.92,6.92,0,0,1-.92,2,2.07,2.07,0,0,1-.58.38,3,3,0,0,1-.39.13,3.61,3.61,0,0,0-.42.16,1,1,0,0,1-.35.11"/><path class="cls-1" d="M44,28s-.09,0-.15-.08c-.86-.67-1.08-1.79-.68-3.53,0-.08,0-.13.06-.17l.06,0a.74.74,0,0,1,.15.84,3.2,3.2,0,0,0,.1,1.86.21.21,0,0,0,.18.15h0l.06,0a.18.18,0,0,0,0-.16,2.31,2.31,0,0,1-.11-1.41,1.05,1.05,0,0,0,0-.44.3.3,0,0,1,0-.14h0a.24.24,0,0,1,.13.05c.13.13.24.37.14,1.09A2.42,2.42,0,0,0,44,27.18a1,1,0,0,1,.06.75c0,.07-.06.11-.1.11"/><path class="cls-1" d="M44.2,29.87a.18.18,0,0,1-.16-.06.21.21,0,0,1,0-.21,5.82,5.82,0,0,1,.17-1.12,4.68,4.68,0,0,0,.16-1.34c0-1.67.12-2.65.53-3.09a.4.4,0,0,1,.17-.11s.08.06.1.19a1.87,1.87,0,0,1-.25,1.28,4.33,4.33,0,0,0-.2,1.76.24.24,0,0,0,.07.18.19.19,0,0,0,.13,0c.09,0,.18-.09.19-.29a3.44,3.44,0,0,1,.18-1.75,1.72,1.72,0,0,0,.13-1.21c0-.12,0-.14,0-.14a.55.55,0,0,1,.12.08c.13.12.25.27.27.89a5.81,5.81,0,0,1-.3,2.06,6,6,0,0,1-.49.85,3.38,3.38,0,0,0-.49.92,1.19,1.19,0,0,0-.1.81.24.24,0,0,1-.2.25"/><path class="cls-1" d="M44.91,28.85h0s0-.07.05-.25l.86-1.41a5.24,5.24,0,0,0,.29-2.32c0-.14,0-.18,0-.2h0l.08,0c.14.08.27.22.18.56l-.19,1.16-.15.77a.29.29,0,0,0,0,.2h0l.06,0c.07,0,.14-.08.14-.21a2.08,2.08,0,0,1,.23-1,2.91,2.91,0,0,0,0-1.53.23.23,0,0,1,0-.11,1.61,1.61,0,0,1,.14.13,1.11,1.11,0,0,1,.27,1.06,1.49,1.49,0,0,0-.09.73,1.42,1.42,0,0,1-.29,1l-1.22,1.18a.88.88,0,0,1-.4.21"/><path class="cls-1" d="M210.5,38.51a5.37,5.37,0,0,0,.77,2.76h-1a5.09,5.09,0,0,1,0-5.51h1A5.33,5.33,0,0,0,210.5,38.51Z"/><path class="cls-1" d="M213.34,36.91c-.28,0-.46.11-.46.31,0,.74,2.34.32,2.34,1.92,0,.91-.8,1.38-1.79,1.38a3.34,3.34,0,0,1-2.05-.72l.45-.91a2.79,2.79,0,0,0,1.61.68c.35,0,.56-.13.56-.37,0-.75-2.34-.29-2.34-1.87,0-.84.7-1.36,1.78-1.36a3.43,3.43,0,0,1,1.78.5l-.44.92A3.44,3.44,0,0,0,213.34,36.91Z"/><path class="cls-1" d="M216.94,37v3.44h-1.12V37Zm0-1a.5.5,0,0,1-.52.51.52.52,0,0,1,0-1A.5.5,0,0,1,216.9,36.07Z"/><path class="cls-1" d="M219,37.77c-.19,0-.32.07-.32.22,0,.45,1.8.24,1.8,1.43,0,.71-.62,1.11-1.46,1.11a2.56,2.56,0,0,1-1.55-.49l.35-.73a2.27,2.27,0,0,0,1.23.42c.21,0,.36-.07.36-.21,0-.47-1.78-.23-1.78-1.42,0-.72.61-1.12,1.42-1.12a2.75,2.75,0,0,1,1.43.41l-.38.73A2.69,2.69,0,0,0,219,37.77Z"/><path class="cls-1" d="M223.34,40.3a1.86,1.86,0,0,1-.93.23,1,1,0,0,1-1.15-1.1V38h-.48V37.2h.48v-1h1.12v1h.89V38h-.89v1.3c0,.25.12.37.32.36a1.14,1.14,0,0,0,.42-.11Z"/><path class="cls-1" d="M227.13,39.06h-2.39a.76.76,0,0,0,.78.6,1.15,1.15,0,0,0,.81-.35l.59.59a1.91,1.91,0,0,1-1.5.62,1.76,1.76,0,1,1,0-3.52C226.6,37,227.21,37.81,227.13,39.06ZM226,38.45a.62.62,0,0,0-.64-.66.72.72,0,0,0-.69.66Z"/><path class="cls-1" d="M233.54,38.31v2.17h-1.13V38.63c0-.39-.21-.63-.56-.63a.69.69,0,0,0-.65.78v1.7h-1.14V38.63c0-.39-.21-.63-.56-.63a.7.7,0,0,0-.66.78v1.7h-1.12V37h1.12v.56A1.24,1.24,0,0,1,230,37a1.15,1.15,0,0,1,1.15.77,1.22,1.22,0,0,1,1.2-.77A1.2,1.2,0,0,1,233.54,38.31Z"/><path class="cls-1" d="M237.38,38.24v2.24h-1.12v-.39a1.22,1.22,0,0,1-1,.44,1.06,1.06,0,0,1-1.18-1.08c0-.65.46-1,1.32-1h.89v0c0-.32-.22-.51-.65-.51a2.47,2.47,0,0,0-1,.27l-.31-.76a3.65,3.65,0,0,1,1.6-.38C236.82,37,237.37,37.45,237.38,38.24Zm-1.12,1.07V39h-.67q-.48,0-.48.36c0,.24.17.39.47.39A.68.68,0,0,0,236.26,39.31Z"/><path class="cls-1" d="M243.52,35.76v4.72h-1.13V40a1.2,1.2,0,0,1-1,.49,1.6,1.6,0,0,1-1.6-1.78A1.57,1.57,0,0,1,241.35,37a1.27,1.27,0,0,1,1,.49V35.76Zm-1.13,3a.75.75,0,1,0-.74.86A.77.77,0,0,0,242.39,38.77Z"/><path class="cls-1" d="M247.67,39.06h-2.39a.77.77,0,0,0,.78.6,1.13,1.13,0,0,0,.81-.35l.59.59a1.91,1.91,0,0,1-1.5.62,1.76,1.76,0,1,1,0-3.52C247.14,37,247.75,37.81,247.67,39.06Zm-1.09-.61a.62.62,0,0,0-.64-.66.7.7,0,0,0-.68.66Z"/><path class="cls-1" d="M253.23,38.24v2.24h-1.11v-.39a1.25,1.25,0,0,1-1,.44,1.06,1.06,0,0,1-1.18-1.08c0-.65.47-1,1.32-1h.9v0c0-.32-.23-.51-.66-.51a2.47,2.47,0,0,0-1,.27l-.31-.76a3.65,3.65,0,0,1,1.6-.38C252.67,37,253.22,37.45,253.23,38.24Zm-1.11,1.07V39h-.68q-.48,0-.48.36c0,.24.18.39.47.39A.68.68,0,0,0,252.12,39.31Z"/><path class="cls-1" d="M257.77,38.77a1.57,1.57,0,0,1-1.58,1.75,1.27,1.27,0,0,1-1-.49v1.68H254V37h1.13v.44a1.22,1.22,0,0,1,1-.48A1.59,1.59,0,0,1,257.77,38.77Zm-1.14,0a.74.74,0,1,0-1.47,0,.74.74,0,1,0,1.47,0Z"/><path class="cls-1" d="M261.84,38.75A1.88,1.88,0,1,1,260,37,1.72,1.72,0,0,1,261.84,38.75Zm-2.62,0a.75.75,0,1,0,1.48,0,.75.75,0,1,0-1.48,0Z"/><path class="cls-1" d="M262.93,41.76a1.58,1.58,0,0,1-1-.35l.47-.79a.64.64,0,0,0,.46.19.42.42,0,0,0,.41-.26l.08-.16L261.91,37h1.16l.82,2.23.74-2.23h1.12l-1.47,3.77A1.34,1.34,0,0,1,262.93,41.76Z"/><path class="cls-1" d="M269.62,38.75a1.88,1.88,0,0,1-3.76,0,1.88,1.88,0,0,1,3.76,0Zm-2.63,0a.75.75,0,1,0,1.49,0,.75.75,0,1,0-1.49,0Z"/><path class="cls-1" d="M271.4,37.77c-.19,0-.33.07-.33.22,0,.45,1.81.24,1.8,1.43,0,.71-.61,1.11-1.45,1.11a2.59,2.59,0,0,1-1.56-.49l.36-.73a2.27,2.27,0,0,0,1.22.42c.21,0,.36-.07.36-.21,0-.47-1.77-.23-1.77-1.42,0-.72.6-1.12,1.41-1.12a2.7,2.7,0,0,1,1.43.41l-.38.73A2.61,2.61,0,0,0,271.4,37.77Z"/><path class="cls-1" d="M278.45,38.24v2.24h-1.11v-.39a1.23,1.23,0,0,1-1,.44,1.06,1.06,0,0,1-1.17-1.08c0-.65.46-1,1.31-1h.9v0c0-.32-.22-.51-.65-.51a2.43,2.43,0,0,0-1,.27l-.32-.76A3.69,3.69,0,0,1,277,37C277.89,37,278.45,37.45,278.45,38.24Zm-1.11,1.07V39h-.67q-.48,0-.48.36c0,.24.17.39.46.39A.68.68,0,0,0,277.34,39.31Z"/><path class="cls-1" d="M282.29,35.76v4.72h-1.13V35.76Z"/><path class="cls-1" d="M286.25,38.24v2.24h-1.11v-.39a1.25,1.25,0,0,1-1,.44,1.06,1.06,0,0,1-1.18-1.08c0-.65.47-1,1.32-1h.9v0c0-.32-.23-.51-.66-.51a2.51,2.51,0,0,0-1,.27l-.31-.76a3.68,3.68,0,0,1,1.6-.38C285.69,37,286.24,37.45,286.25,38.24Zm-1.11,1.07V39h-.68c-.32,0-.47.12-.47.36s.17.39.46.39A.68.68,0,0,0,285.14,39.31Z"/><path class="cls-1" d="M290.47,37.93c-.41,0-.69.34-.69.84s.28.83.69.83a.7.7,0,0,0,.67-.39l.84.48a1.77,1.77,0,1,1,0-1.88l-.82.48A.79.79,0,0,0,290.47,37.93Z"/><path class="cls-1" d="M294.74,37v1c-.63-.07-1.05.21-1.11.69v1.76H292.5V37h1.13v.57A1.24,1.24,0,0,1,294.74,37Z"/><path class="cls-1" d="M298.49,39.06H296.1a.76.76,0,0,0,.78.6,1.15,1.15,0,0,0,.81-.35l.59.59a1.93,1.93,0,0,1-1.5.62,1.76,1.76,0,1,1,0-3.52C298,37,298.56,37.81,298.49,39.06Zm-1.1-.61a.61.61,0,0,0-.63-.66.72.72,0,0,0-.69.66Z"/><path class="cls-1" d="M302.13,38.24v2.24H301v-.39a1.23,1.23,0,0,1-1,.44,1.06,1.06,0,0,1-1.17-1.08c0-.65.46-1,1.31-1h.9v0c0-.32-.22-.51-.65-.51a2.43,2.43,0,0,0-1,.27l-.32-.76a3.69,3.69,0,0,1,1.61-.38C301.57,37,302.13,37.45,302.13,38.24ZM301,39.31V39h-.67q-.48,0-.48.36c0,.24.17.39.46.39A.68.68,0,0,0,301,39.31Z"/><path class="cls-1" d="M304.44,37.93c-.4,0-.68.34-.68.84s.28.83.68.83a.71.71,0,0,0,.68-.39l.83.48a1.64,1.64,0,0,1-1.56.83,1.76,1.76,0,1,1,0-3.52,1.71,1.71,0,0,1,1.54.81l-.82.48A.79.79,0,0,0,304.44,37.93Z"/><path class="cls-1" d="M307.6,37v3.44h-1.12V37Zm0-1a.5.5,0,0,1-.52.51.52.52,0,0,1,0-1A.5.5,0,0,1,307.56,36.07Z"/><path class="cls-1" d="M312,38.75A1.88,1.88,0,1,1,310.06,37,1.72,1.72,0,0,1,312,38.75Zm-2.62,0a.75.75,0,0,0,.73.85.76.76,0,0,0,.75-.85.77.77,0,0,0-.75-.86A.76.76,0,0,0,309.33,38.77Zm1.86-2.84-.83.74h-.86l.68-1.09Z"/><path class="cls-1" d="M316.05,38.31v2.17h-1.13V38.63a.57.57,0,0,0-.59-.63.67.67,0,0,0-.67.66v1.82h-1.13V37h1.13v.56A1.26,1.26,0,0,1,314.8,37,1.21,1.21,0,0,1,316.05,38.31Z"/><path class="cls-1" d="M319.23,41.76a1.57,1.57,0,0,1-1-.35l.47-.79a.64.64,0,0,0,.46.19.42.42,0,0,0,.41-.26l.08-.16L318.22,37h1.16l.82,2.23.73-2.23h1.13l-1.48,3.77A1.34,1.34,0,0,1,319.23,41.76Z"/><path class="cls-1" d="M327.41,38.24v2.24H326.3v-.39a1.23,1.23,0,0,1-1,.44,1.06,1.06,0,0,1-1.18-1.08c0-.65.47-1,1.32-1h.9v0c0-.32-.22-.51-.66-.51a2.51,2.51,0,0,0-1,.27l-.31-.76a3.68,3.68,0,0,1,1.6-.38C326.85,37,327.4,37.45,327.41,38.24Zm-1.11,1.07V39h-.68c-.31,0-.47.12-.47.36s.17.39.46.39A.68.68,0,0,0,326.3,39.31Z"/><path class="cls-1" d="M333.86,38.77a1.57,1.57,0,0,1-1.57,1.75,1.27,1.27,0,0,1-1-.49v1.68h-1.13V37h1.13v.44a1.22,1.22,0,0,1,1-.48A1.59,1.59,0,0,1,333.86,38.77Zm-1.14,0a.74.74,0,1,0-.74.85A.75.75,0,0,0,332.72,38.75Z"/><path class="cls-1" d="M336.69,37v1c-.63-.07-1.05.21-1.11.69v1.76h-1.13V37h1.13v.57A1.24,1.24,0,0,1,336.69,37Z"/><path class="cls-1" d="M340.67,38.75A1.88,1.88,0,1,1,338.78,37,1.72,1.72,0,0,1,340.67,38.75Zm-2.62,0a.75.75,0,0,0,.73.85.76.76,0,0,0,.75-.85.77.77,0,0,0-.75-.86A.76.76,0,0,0,338.05,38.77Z"/><path class="cls-1" d="M341.76,41.76a1.58,1.58,0,0,1-1-.35l.47-.79a.64.64,0,0,0,.46.19.42.42,0,0,0,.41-.26l.08-.16L340.74,37h1.16l.82,2.23.73-2.23h1.13l-1.48,3.77A1.34,1.34,0,0,1,341.76,41.76Z"/><path class="cls-1" d="M348.21,39.06h-2.39a.77.77,0,0,0,.78.6,1.13,1.13,0,0,0,.81-.35l.59.59a1.91,1.91,0,0,1-1.5.62,1.76,1.76,0,1,1,0-3.52C347.68,37,348.29,37.81,348.21,39.06Zm-1.09-.61a.61.61,0,0,0-.64-.66.7.7,0,0,0-.68.66Z"/><path class="cls-1" d="M350.35,37.93c-.41,0-.69.34-.69.84s.28.83.69.83a.7.7,0,0,0,.67-.39l.83.48a1.64,1.64,0,0,1-1.56.83,1.76,1.76,0,1,1,0-3.52,1.7,1.7,0,0,1,1.54.81l-.82.48A.79.79,0,0,0,350.35,37.93Z"/><path class="cls-1" d="M354.62,40.3a1.89,1.89,0,0,1-.93.23,1,1,0,0,1-1.15-1.1V38h-.48V37.2h.48v-1h1.12v1h.89V38h-.89v1.3c0,.25.12.37.31.36a1.18,1.18,0,0,0,.43-.11Z"/><path class="cls-1" d="M358.64,38.75A1.88,1.88,0,1,1,356.76,37,1.72,1.72,0,0,1,358.64,38.75Zm-2.62,0a.75.75,0,1,0,1.48,0,.75.75,0,1,0-1.48,0Z"/><path class="cls-1" d="M360.42,37.77c-.19,0-.32.07-.32.22,0,.45,1.8.24,1.8,1.43,0,.71-.62,1.11-1.46,1.11a2.56,2.56,0,0,1-1.55-.49l.35-.73a2.27,2.27,0,0,0,1.23.42c.21,0,.36-.07.36-.21,0-.47-1.78-.23-1.78-1.42,0-.72.61-1.12,1.42-1.12a2.75,2.75,0,0,1,1.43.41l-.39.73A2.61,2.61,0,0,0,360.42,37.77Z"/><path class="cls-1" d="M366,37.93c-.4,0-.68.34-.68.84s.28.83.68.83a.71.71,0,0,0,.68-.39l.83.48a1.81,1.81,0,0,1-3.33-.92A1.67,1.67,0,0,1,365.92,37a1.71,1.71,0,0,1,1.54.81l-.82.48A.81.81,0,0,0,366,37.93Z"/><path class="cls-1" d="M371.35,37v3.44h-1.13v-.56a1.22,1.22,0,0,1-1.1.61,1.2,1.2,0,0,1-1.23-1.32V37H369v1.85a.55.55,0,0,0,.56.62c.4,0,.64-.32.64-.78V37Z"/><path class="cls-1" d="M373.38,35.76v4.72h-1.13V35.76Z"/><path class="cls-1" d="M376.52,40.3a1.86,1.86,0,0,1-.93.23,1,1,0,0,1-1.15-1.1V38H374V37.2h.48v-1h1.13v1h.89V38h-.89v1.3c0,.25.11.37.31.36a1.14,1.14,0,0,0,.42-.11Z"/><path class="cls-1" d="M380.42,37v3.44h-1.13v-.56a1.23,1.23,0,0,1-1.1.61A1.2,1.2,0,0,1,377,39.21V37h1.13v1.85a.55.55,0,0,0,.56.62c.4,0,.64-.32.64-.78V37Z"/><path class="cls-1" d="M383.53,37v1c-.63-.07-1,.21-1.11.69v1.76h-1.13V37h1.13v.57A1.23,1.23,0,0,1,383.53,37Z"/><path class="cls-1" d="M387.08,38.24v2.24H386v-.39a1.23,1.23,0,0,1-1,.44,1.06,1.06,0,0,1-1.17-1.08c0-.65.46-1,1.31-1h.9v0c0-.32-.22-.51-.65-.51a2.51,2.51,0,0,0-1,.27l-.31-.76a3.69,3.69,0,0,1,1.61-.38C386.52,37,387.08,37.45,387.08,38.24ZM386,39.31V39h-.67q-.48,0-.48.36c0,.24.17.39.46.39A.68.68,0,0,0,386,39.31Z"/><path class="cls-1" d="M389,35.76v4.72h-1.13V35.76Z"/><path class="cls-1" d="M393.16,39.06h-2.39a.76.76,0,0,0,.78.6,1.15,1.15,0,0,0,.81-.35l.59.59a1.91,1.91,0,0,1-1.5.62,1.76,1.76,0,1,1,0-3.52C392.63,37,393.24,37.81,393.16,39.06Zm-1.09-.61a.62.62,0,0,0-.64-.66.72.72,0,0,0-.69.66Z"/><path class="cls-1" d="M395,37.77c-.19,0-.32.07-.32.22,0,.45,1.8.24,1.8,1.43,0,.71-.62,1.11-1.46,1.11a2.56,2.56,0,0,1-1.55-.49l.35-.73a2.27,2.27,0,0,0,1.23.42c.21,0,.36-.07.36-.21,0-.47-1.78-.23-1.78-1.42,0-.72.61-1.12,1.42-1.12a2.75,2.75,0,0,1,1.43.41l-.39.73A2.61,2.61,0,0,0,395,37.77Z"/><path class="cls-1" d="M397.9,35.76a5,5,0,0,1,0,5.51h-1a5.31,5.31,0,0,0,0-5.51Z"/></svg>