<svg id="Capa_1" data-name="Capa 1" xmlns="http://www.w3.org/2000/svg" viewBox="0 0 234.63 63.8"><title>Fonima-logo</title><path d="M178.67,19.11a1.14,1.14,0,0,1-1.28-1.19V15.66h-.53a1.12,1.12,0,0,1-1.19-1.19v-4h-.53a1.12,1.12,0,0,1-1.2-1.19v-4h-.53a1.11,1.11,0,0,1-1.19-1.19V2.3a1.12,1.12,0,0,1,1.19-1.2,1.15,1.15,0,0,1,1.28,1.2V4.55h.53a1.12,1.12,0,0,1,1.2,1.2v4H177a1.12,1.12,0,0,1,1.19,1.2v4h1v-4a1.12,1.12,0,0,1,1.19-1.2h.54v-4A1.12,1.12,0,0,1,182,4.55h.53V2.3a1.12,1.12,0,0,1,1.2-1.2,1.15,1.15,0,0,1,1.28,1.2V4.11a1.12,1.12,0,0,1-1.2,1.19h-.53v4a1.12,1.12,0,0,1-1.19,1.19h-.53v4a1.12,1.12,0,0,1-1.2,1.19h-.53v2.26A1.12,1.12,0,0,1,178.67,19.11Zm-.53-3.45v2.26c0,.31.14.44.45.44s.53-.13.53-.44V15.66Zm1.73-.75h.53c.31,0,.45-.13.45-.44v-4h-.54c-.31,0-.44.14-.44.45Zm-3.45-4.43v4c0,.31.13.44.44.44h.53v-4c0-.31-.13-.45-.44-.45Zm5.18-.75h.53c.31,0,.44-.13.44-.44v-4H182c-.31,0-.44.14-.44.45ZM174.69,5.3v4c0,.31.13.44.45.44h.53v-4c0-.31-.14-.45-.45-.45Zm8.63-.75h.53c.31,0,.45-.13.45-.44V2.3c0-.31-.14-.45-.45-.45s-.53.14-.53.45Zm-9.82-2.7c-.4,0-.53.14-.53.45V4.11c0,.31.13.44.44.44h.53V2.3C173.94,2,173.81,1.85,173.5,1.85Z"/><path d="M196.28,19.11H191a1.12,1.12,0,0,1-1.19-1.19v-.53h-.57a1.11,1.11,0,0,1-1.16-1.15v-.58h-.53a1.12,1.12,0,0,1-1.19-1.19V5.75a1.12,1.12,0,0,1,1.19-1.2h.53V4a1.11,1.11,0,0,1,1.16-1.15h.57V2.3A1.12,1.12,0,0,1,191,1.1h5.27a1.12,1.12,0,0,1,1.19,1.2v.53h.58A1.1,1.1,0,0,1,199.2,4v.57h.53a1.12,1.12,0,0,1,1.2,1.2v8.72a1.12,1.12,0,0,1-1.2,1.19h-.53v.58a1.1,1.1,0,0,1-1.15,1.15h-.58v.53A1.11,1.11,0,0,1,196.28,19.11Zm-5.71-1.72v.53c0,.31.13.44.44.44h5.27c.31,0,.44-.13.44-.44v-.53Zm6.9-.75h.58a.35.35,0,0,0,.4-.4v-.58h-.57a.36.36,0,0,0-.41.4Zm-6.9,0h6.15v-.58a1.11,1.11,0,0,1,1.16-1.15h.57V5.3h-.57a1.11,1.11,0,0,1-1.16-1.15V3.58h-6.15v.57a1.1,1.1,0,0,1-1.15,1.15h-.58v9.61h.58a1.1,1.1,0,0,1,1.15,1.15Zm-1.73-1v.58a.36.36,0,0,0,.41.4h.57v-.58a.36.36,0,0,0-.4-.4Zm10.36-.75h.53c.31,0,.45-.13.45-.44V5.75c0-.31-.14-.45-.45-.45h-.53ZM187.56,5.3c-.31,0-.44.14-.44.45v8.72c0,.31.13.44.44.44h.53V5.3Zm9.91-1.72v.57a.36.36,0,0,0,.41.4h.57V4a.35.35,0,0,0-.4-.4Zm-8.63,1h.58a.35.35,0,0,0,.4-.4V3.58h-.57a.36.36,0,0,0-.41.4Zm1.73-1.72h6.15V2.3c0-.31-.13-.45-.44-.45H191c-.31,0-.44.14-.44.45Z"/><path d="M212.85,19.11h-8.68a1.18,1.18,0,0,1-1.23-1.24V2.3a1.12,1.12,0,0,1,1.19-1.2,1.15,1.15,0,0,1,1.28,1.2V16.64h7.44A1.12,1.12,0,0,1,214,17.83v.09A1.12,1.12,0,0,1,212.85,19.11ZM204.22,1.85c-.4,0-.53.14-.53.45V17.87a.44.44,0,0,0,.48.49h8.68c.31,0,.44-.13.44-.44v-.09c0-.31-.13-.44-.44-.44h-8.18V2.3C204.66,2,204.53,1.85,204.22,1.85Z"/><path d="M217.33,19.11a1.14,1.14,0,0,1-1.28-1.19V16.11a1.12,1.12,0,0,1,1.2-1.2,1.15,1.15,0,0,1,1.28,1.2v1.81A1.12,1.12,0,0,1,217.33,19.11Zm0-3.45c-.39,0-.53.13-.53.45v1.81c0,.31.14.44.45.44s.53-.13.53-.44V16.11C217.78,15.79,217.65,15.66,217.33,15.66Z"/><path d="M228.73,19.11h-5.27a1.12,1.12,0,0,1-1.19-1.19v-.53h-.53a1.12,1.12,0,0,1-1.2-1.2V14.38a1.12,1.12,0,0,1,1.2-1.2,1.15,1.15,0,0,1,1.28,1.2v2.26h6.15V10.48h-4A1.12,1.12,0,0,1,224,9.29,1.15,1.15,0,0,1,225.19,8h4V3.58H223V5.84A1.12,1.12,0,0,1,221.82,7a1.14,1.14,0,0,1-1.28-1.19V4a1.12,1.12,0,0,1,1.2-1.19h.53V2.3a1.12,1.12,0,0,1,1.19-1.2h5.27a1.12,1.12,0,0,1,1.19,1.2v.53h.53A1.12,1.12,0,0,1,231.65,4V7.56a1.12,1.12,0,0,1-1.2,1.2h-.53v1h.53a1.12,1.12,0,0,1,1.2,1.2v5.26a1.12,1.12,0,0,1-1.2,1.2h-.53v.53A1.12,1.12,0,0,1,228.73,19.11ZM223,17.39v.53c0,.31.13.44.44.44h5.27c.31,0,.44-.13.44-.44v-.53Zm6.9-.75h.53c.31,0,.45-.14.45-.45V10.93c0-.31-.14-.45-.45-.45h-.53Zm-8.1-2.71c-.4,0-.53.14-.53.45v1.81c0,.31.13.45.45.45h.53V14.38C222.27,14.07,222.13,13.93,221.82,13.93Zm3.37-5.17c-.32,0-.45.13-.45.44s.13.53.45.53h4v-1ZM229.92,8h.53c.31,0,.45-.14.45-.45V4c0-.31-.14-.44-.45-.44h-.53Zm-8.18-4.43c-.32,0-.45.13-.45.44V5.84c0,.31.13.44.45.44s.53-.13.53-.44V3.58ZM223,2.83h6.15V2.3c0-.31-.13-.45-.44-.45h-5.27c-.31,0-.44.14-.44.45Z"/><path d="M97.35,63.22H85L89.71.66h13.1Zm-11.28-1H96.43l5.28-60.56H90.64Z"/><path d="M134.5,63.22H122l.07-.56s1.34-11.52,2-17.4a49.76,49.76,0,0,1,2.78-10.48,24.68,24.68,0,0,0,1.19-3.93c.09-.76-.14-1.35-.58-1.51s-1,.14-1.37.76c-.62.95-.87,2.95-1.18,5.48-.23,1.79-.5,4-1,6.49-1.17,6-4.21,20.61-4.24,20.75l-.08.4h-8.49v-.5s.09-11.64.12-19.47c0-4.11.31-7,.51-9.09a17,17,0,0,0,.14-4.21c-.16-.95-.72-1.38-1.18-1.38h0c-.51,0-.89.49-1,1.26a23.33,23.33,0,0,0,.37,5.57c.16,1.13.34,2.42.47,3.78a37.93,37.93,0,0,1-.3,8.56q-.1.84-.18,1.56l-1.38,13.92H96.34L101.8.66h16.75l.53,27.64L125.32.66h16.81Zm-11.34-1h10.45L141,1.66H126.12l-7.89,34.92-.66-34.92H102.72L97.44,62.22H107.8l1.29-13c0-.49.12-1,.18-1.58a37.21,37.21,0,0,0,.31-8.34c-.13-1.35-.3-2.56-.47-3.74a23.77,23.77,0,0,1-.37-5.84,2.13,2.13,0,0,1,2-2.13h0a2.37,2.37,0,0,1,2.17,2.21,17.54,17.54,0,0,1-.13,4.48,87.25,87.25,0,0,0-.51,9c0,6.86-.1,16.65-.12,19h6.67c.49-2.4,3.09-14.94,4.15-20.34.48-2.44.74-4.55,1-6.43.34-2.75.59-4.75,1.33-5.9a2.22,2.22,0,0,1,2.55-1.15A2.27,2.27,0,0,1,129.05,31a23.83,23.83,0,0,1-1.24,4.14,50.23,50.23,0,0,0-2.73,10.26C124.52,50.48,123.43,59.85,123.16,62.22Z"/><path d="M86,63.22H73.33L71.25,48.33c-.22-1.75-.43-3.47-.6-5-.41-3.7-.58-6.55-.7-8.63a24.55,24.55,0,0,0-.53-4.82c-.1-.3-.33-.81-.77-.78a1.31,1.31,0,0,0-1,1.19A9.22,9.22,0,0,0,68.46,34c.29.89.63,1.91.94,3.1a18.73,18.73,0,0,1,.48,4.73L69.45,49c-.2,2.49-.82,13.61-.82,13.72l0,.47H56.14l.67-13.09L58.51,15,59.26.66H72.58L76,24.6,77.56.66H90.71Zm-11.8-1H85.07L89.63,1.66H78.49L76.37,34.29,71.72,1.66H60.21l-.7,13.43-1.7,35.09-.61,12H67.66c.12-2.16.62-11.06.79-13.26l.43-7.14a18.11,18.11,0,0,0-.44-4.44c-.31-1.16-.64-2.17-.93-3.05a9.79,9.79,0,0,1-.83-4.2,2.27,2.27,0,0,1,1.89-2c.82-.08,1.49.48,1.8,1.48a24.09,24.09,0,0,1,.57,5c.13,2.07.3,4.91.7,8.58.18,1.55.38,3.26.61,5Z"/><path d="M43.38,63.22A13.39,13.39,0,0,1,29.87,49.44l.82-33.39A3.29,3.29,0,0,0,30,13.72a2.26,2.26,0,0,0-1.69-.59H16.43l-.12,12.58H28.2L28,38.17H16.18l-.26,25H3.41V.66H32L31.86,7.3a.46.46,0,0,0,.29.43c.24.06.64-.14,1-.71l.09-.13A15.12,15.12,0,0,1,45.62.66,14.17,14.17,0,0,1,56,5a12.71,12.71,0,0,1,3.53,9.49l-1.68,35A14.64,14.64,0,0,1,43.38,63.22ZM15.44,12.13H28.28a3.22,3.22,0,0,1,2.4.88,4.22,4.22,0,0,1,1,3.06l-.82,33.39A12.38,12.38,0,0,0,43.38,62.22,13.62,13.62,0,0,0,56.86,49.43l1.68-35a11.74,11.74,0,0,0-3.25-8.75,13.18,13.18,0,0,0-9.67-4A14.1,14.1,0,0,0,34.06,7.52c-.65,1-1.44,1.37-2.16,1.18a1.48,1.48,0,0,1-1-1.37L31,1.66H4.41V62.22H14.93l.26-25H27l.21-10.46H15.3ZM43.73,52.6a2.25,2.25,0,0,1-1.37-.45,2.07,2.07,0,0,1-.81-1.47l0-.69a91,91,0,0,0,1.34-9.06c.27-2.68.45-5.62.58-9s.14-6.33.06-9a84.71,84.71,0,0,0-.72-9,2.22,2.22,0,0,1,.43-1.72,2.29,2.29,0,0,1,1.58-.9,2.4,2.4,0,0,1,1.86.43,2.08,2.08,0,0,1,.81,1.45l0,.78a85.22,85.22,0,0,0-1.37,9c-.27,2.67-.46,5.61-.59,9s-.15,6.32-.07,9a86,86,0,0,0,.67,9,2.26,2.26,0,0,1-.44,1.74,2.2,2.2,0,0,1-1.52.87A2,2,0,0,1,43.73,52.6Zm1.54-40.32-.28,0a1.33,1.33,0,0,0-.93.51,1.25,1.25,0,0,0-.24,1,84.78,84.78,0,0,1,.73,9.1c.08,2.69.06,5.66-.07,9.07s-.31,6.37-.58,9.07a88,88,0,0,1-1.34,9.08v.54a1,1,0,0,0,.42.71,1.31,1.31,0,0,0,1,.21,1.19,1.19,0,0,0,.88-.49,1.25,1.25,0,0,0,.25-1,91.16,91.16,0,0,1-.68-9.1c-.08-2.7,0-5.67.07-9.07s.32-6.37.6-9.06a84.37,84.37,0,0,1,1.38-9l0-.58a1.07,1.07,0,0,0-.42-.69A1.34,1.34,0,0,0,45.27,12.28Z"/><path d="M167.36,63.22H154.91l0-9.1h-6.44l-2.55,9.1H133.4L150.54.66h17Zm-11.45-1h10.46l.16-60.56H151.3L134.71,62.22h10.42l2.55-9.1h8.2Zm-2.77-19.15a2,2,0,0,1-1.32-.46,1.94,1.94,0,0,1-.66-1.51V41l.08-.62c.93-3,3.89-15.17,4.29-18.07h0l1,.14c-.37,2.69-.74,13.06-.72,17.1V40a3.31,3.31,0,0,1-.67,2.2l-.11.1a2.56,2.56,0,0,1-1.46.7A2.15,2.15,0,0,1,153.14,43.07Zm-1-1.94a.91.91,0,0,0,.31.71,1.12,1.12,0,0,0,.95.2,1.66,1.66,0,0,0,.9-.41l.45.26-.37-.34a2.24,2.24,0,0,0,.41-1.51v-.46c0-2.23.1-6.38.26-10.13-1,4.38-2.29,9.36-2.84,11.17Z"/></svg>